<svg xmlns="http://www.w3.org/2000/svg" width="16" height="16" viewBox="0 0 16 16" fill="none">
    <path d="M7.87636 15.32L7.30815 14.9184C6.56016 14.3896 0.00279451 9.62545 0.00279451 5.27334C-0.0396307 4.05392 0.402423 2.8673 1.23233 1.97284C2.06223 1.07839 3.21249 0.548859 4.43167 0.5C5.10464 0.506614 5.76671 0.670702 6.36488 0.979127C6.96304 1.28755 7.48068 1.73175 7.87636 2.27614C8.27203 1.73175 8.78967 1.28755 9.38784 0.979127C9.986 0.670702 10.6481 0.506614 11.321 0.5C12.5402 0.548859 13.6905 1.07839 14.5204 1.97284C15.3503 2.8673 15.7923 4.05392 15.7499 5.27334C15.7499 9.62545 9.19255 14.3896 8.44457 14.9184L7.87636 15.32ZM4.43167 2.46839C3.73484 2.51776 3.08561 2.84001 2.62494 3.36518C2.16427 3.89034 1.92935 4.57602 1.97119 5.27334C1.97119 7.84275 5.81808 11.3163 7.87636 12.8917C9.93464 11.317 13.7815 7.84275 13.7815 5.27334C13.8234 4.57602 13.5884 3.89034 13.1278 3.36518C12.6671 2.84001 12.0179 2.51776 11.321 2.46839C10.6242 2.51776 9.97498 2.84001 9.51431 3.36518C9.05364 3.89034 8.81872 4.57602 8.86055 5.27334H6.89216C6.934 4.57602 6.69907 3.89034 6.23841 3.36518C5.77774 2.84001 5.12851 2.51776 4.43167 2.46839Z" fill="#646E74"/>
</svg>