<svg xmlns="http://www.w3.org/2000/svg" width="16" height="16" viewBox="0 0 16 16" fill="none">
    <g clip-path="url(#clip0_3801_5624)">
        <path d="M7.66667 10.6667C7.40145 10.6667 7.1471 10.772 6.95956 10.9596C6.77202 11.1471 6.66667 11.4015 6.66667 11.6667V12.2C6.66667 12.6774 6.47702 13.1352 6.13946 13.4728C5.80189 13.8104 5.34406 14 4.86667 14H3.8C3.32261 14 2.86477 13.8104 2.52721 13.4728C2.18964 13.1352 2 12.6774 2 12.2V3.8C2 3.32261 2.18964 2.86477 2.52721 2.52721C2.86477 2.18964 3.32261 2 3.8 2H4.86667C5.34406 2 5.80189 2.18964 6.13946 2.52721C6.47702 2.86477 6.66667 3.32261 6.66667 3.8V4.33333C6.66667 4.59855 6.77202 4.8529 6.95956 5.04044C7.1471 5.22798 7.40145 5.33333 7.66667 5.33333C7.93188 5.33333 8.18624 5.22798 8.37377 5.04044C8.56131 4.8529 8.66667 4.59855 8.66667 4.33333V3.8C8.66561 2.7925 8.26491 1.82657 7.5525 1.11416C6.84009 0.401755 5.87416 0.00105885 4.86667 0L3.8 0C2.7925 0.00105885 1.82657 0.401755 1.11416 1.11416C0.401755 1.82657 0.00105885 2.7925 0 3.8L0 12.2C0.00105885 13.2075 0.401755 14.1734 1.11416 14.8858C1.82657 15.5982 2.7925 15.9989 3.8 16H4.86667C5.87416 15.9989 6.84009 15.5982 7.5525 14.8858C8.26491 14.1734 8.66561 13.2075 8.66667 12.2V11.6667C8.66667 11.4015 8.56131 11.1471 8.37377 10.9596C8.18624 10.772 7.93188 10.6667 7.66667 10.6667Z" fill="#646E74"/>
        <path d="M15.0405 6.34996L11.9832 3.29263C11.8903 3.19978 11.78 3.12614 11.6587 3.07591C11.5373 3.02568 11.4073 2.99985 11.2759 2.99988C11.1446 2.99991 11.0146 3.02581 10.8932 3.07609C10.7719 3.12638 10.6617 3.20007 10.5688 3.29296C10.3813 3.48056 10.276 3.73496 10.2761 4.0002C10.2761 4.13153 10.302 4.26157 10.3523 4.3829C10.4026 4.50422 10.4763 4.61445 10.5692 4.7073L12.8432 6.9813L4.6665 6.99996C4.40129 6.99996 4.14693 7.10532 3.9594 7.29286C3.77186 7.48039 3.6665 7.73475 3.6665 7.99996C3.6665 8.26518 3.77186 8.51953 3.9594 8.70707C4.14693 8.89461 4.40129 8.99996 4.6665 8.99996L12.8785 8.9813L10.5672 11.2926C10.3796 11.4801 10.2741 11.7345 10.2741 11.9997C10.274 12.265 10.3793 12.5194 10.5668 12.707C10.7543 12.8946 11.0087 13 11.2739 13C11.5392 13.0001 11.7936 12.8948 11.9812 12.7073L15.0385 9.64996C15.4756 9.2122 15.7213 8.61899 15.7216 8.00038C15.722 7.38177 15.4771 6.78825 15.0405 6.34996Z" fill="#646E74"/>
    </g>
    <defs>
        <clipPath id="clip0_3801_5624">
            <rect width="16" height="16" fill="white"/>
        </clipPath>
    </defs>
</svg>