<svg width="16" height="16" viewBox="0 0 16 16" fill="none" xmlns="http://www.w3.org/2000/svg">
<g id="validation">
<g id="Group">
<path id="Vector" d="M15.9842 16H7.99553C6.43488 15.9991 4.90857 15.5418 3.60459 14.6843C2.3006 13.8269 1.27589 12.6067 0.656669 11.1742C0.0374472 9.74164 -0.149244 8.15926 0.119589 6.62194C0.388422 5.08462 1.10104 3.65951 2.16967 2.52212C3.2383 1.38473 4.61627 0.584749 6.13386 0.220701C7.65146 -0.143348 9.24239 -0.0555616 10.7107 0.473247C12.179 1.00205 13.4606 1.94879 14.3976 3.19685C15.3346 4.4449 15.8861 5.93977 15.9842 7.49733V7.56V16ZM7.99553 2C7.2076 2 6.42738 2.15519 5.69943 2.45672C4.97148 2.75825 4.31004 3.20021 3.75289 3.75736C3.19574 4.31451 2.75378 4.97595 2.45225 5.7039C2.15072 6.43185 1.99553 7.21207 1.99553 8C1.99553 8.78793 2.15072 9.56815 2.45225 10.2961C2.75378 11.0241 3.19574 11.6855 3.75289 12.2426C4.31004 12.7998 4.97148 13.2417 5.69943 13.5433C6.42738 13.8448 7.2076 14 7.99553 14H13.9842V7.59267C13.8786 6.07581 13.202 4.65535 12.0907 3.61754C10.9794 2.57973 9.51606 2.00173 7.99553 2Z" fill="#646E74"/>
<path id="Vector_2" d="M9.31787 5.33337H5.31787V7.33337H9.31787V5.33337Z" fill="#646E74"/>
<path id="Vector_3" d="M11.9845 9.33337H5.31787V11.3334H11.9845V9.33337Z" fill="#646E74"/>
</g>
</g>
</svg>
