<svg xmlns="http://www.w3.org/2000/svg" width="16" height="16" viewBox="0 0 16 16" fill="none">
    <path d="M15 8.14831C14.787 8.36077 14.508 8.4744 14.2288 8.47458C13.9492 8.47475 13.6512 8.36112 13.4378 8.14831C13.2247 7.93567 12.9491 7.79237 12.6697 7.79237C12.3903 7.79237 12.1086 7.93567 11.8955 8.14831C11.6856 8.35765 11.3993 8.47134 11.1243 8.47458C10.8406 8.47793 10.5399 8.36424 10.3234 8.14831C10.1103 7.93567 9.83225 7.79237 9.55287 7.79237C9.27353 7.79237 8.99421 7.93567 8.78106 8.14831C8.56997 8.3589 8.27917 8.47253 8.00249 8.47455C7.72047 8.47659 7.42422 8.36296 7.20903 8.14831C6.99633 7.93611 6.7166 7.82248 6.43784 7.82203C6.1579 7.82159 5.88025 7.93522 5.66666 8.14831C5.45049 8.36394 5.1491 8.47763 4.86581 8.47458C4.59041 8.47161 4.30474 8.35795 4.09462 8.14831C3.88157 7.93575 3.62236 7.82215 3.34322 7.82203M5.80508 2.18644C5.80508 1.5312 5.27389 1 4.61864 1C3.9634 1 3.4322 1.5312 3.4322 2.18644M12.6271 2.18644C12.6271 1.5312 12.0959 1 11.4407 1C10.7854 1 10.2542 1.5312 10.2542 2.18644M3.9661 15C2.32795 15 1 13.672 1 12.0339V7.16949C1 5.53134 2.32795 4.20339 3.9661 4.20339H12.0339C13.672 4.20339 15 5.53134 15 7.16949V12.0339C15 13.672 13.672 15 12.0339 15H3.9661Z" stroke="#646E74" stroke-width="1.7" stroke-miterlimit="10" stroke-linecap="round" stroke-linejoin="round"/>
</svg>