<svg width="324" height="282" viewBox="0 0 324 282" fill="none" xmlns="http://www.w3.org/2000/svg">
<path d="M7.95155 196.006C88.3699 183.696 128.106 307.042 141.541 366.506L152.894 359.878C104.517 298.962 145.01 195.69 177.618 136.1C216.408 65.2112 283.329 14.7114 366.081 13.8907C374.154 13.8276 373.839 2.27578 366.081 1.51828C274.499 -7.38231 198.937 60.2243 159.958 137.615C126.592 203.959 91.7758 303.949 143.307 369.473C147.848 375.28 155.858 368.778 154.66 362.845C140.973 294.922 98.2093 160.593 4.92403 184.896C-2.39246 186.79 0.824276 197.079 8.01462 196.006H7.95155Z" fill="#2540E4"/>
<path d="M229.249 117.835C224.645 123.958 225.086 134.058 229.06 140.371C232.403 145.673 237.385 149.839 243.567 151.354C252.208 153.501 260.975 150.218 266.336 143.274C271.003 137.278 272.076 130.397 270.751 123.011C269.616 116.762 265.327 111.46 260.092 108.051C254.226 104.2 246.909 103.569 240.161 105.021C233.853 106.41 228.114 110.45 224.771 115.941C221.428 121.433 221.428 129.766 224.897 135.384C227.735 139.992 231.709 143.148 236.881 144.726C245.459 147.378 254.73 142.264 258.073 134.311C259.587 130.713 260.218 126.42 258.956 122.633C257.632 118.466 254.857 113.732 250.694 111.901L250.315 111.712L253.974 114.553C253.974 114.553 253.532 114.237 253.406 113.985L256.244 117.646L256.055 117.267L257.884 121.56L257.758 121.118L258.389 125.915V125.473C258.136 127.051 257.947 128.693 257.695 130.271V129.892C257.19 131.344 256.56 132.796 255.929 134.184L256.118 133.806L253.28 137.467L253.595 137.151L249.937 139.992C250.568 139.55 251.198 139.171 251.955 138.856L247.603 140.686C248.549 140.308 249.432 140.055 250.378 139.929L245.585 140.56C246.342 140.56 247.099 140.56 247.856 140.56L243.062 139.929C243.63 140.055 244.134 140.181 244.702 140.371L240.35 138.54C240.854 138.793 241.359 139.045 241.8 139.361L238.142 136.52C238.584 136.836 238.899 137.151 239.214 137.593L236.376 133.932C236.628 134.311 236.881 134.689 237.07 135.194L235.241 130.839C235.493 131.47 235.619 132.038 235.682 132.669L235.052 127.809C235.052 128.314 235.052 128.756 235.052 129.261L235.682 124.4C235.619 125.031 235.43 125.6 235.178 126.231L237.007 121.875C236.818 122.317 236.565 122.633 236.313 123.075L239.151 119.413C239.151 119.413 238.773 119.855 238.521 120.045L242.179 117.204C241.8 117.52 241.422 117.709 240.981 117.898L245.333 116.068C245.333 116.068 244.765 116.257 244.45 116.257L249.306 115.626C249.306 115.626 248.675 115.626 248.423 115.626L253.28 116.257C253.28 116.257 252.712 116.131 252.397 116.005L256.749 117.835C256.307 117.646 255.929 117.456 255.55 117.141L259.209 119.981C258.83 119.666 258.515 119.35 258.2 118.971L261.038 122.633C260.722 122.254 260.533 121.875 260.344 121.433L262.173 125.789C261.984 125.347 261.921 124.968 261.795 124.526L262.425 129.387C262.425 129.387 262.425 128.819 262.425 128.503L261.795 133.364C261.795 133.364 261.921 132.796 262.047 132.543L260.218 136.899C260.218 136.899 260.533 136.394 260.722 136.141C263.372 132.669 263.687 126.105 262.552 122.065C261.416 117.835 258.136 113.227 254.163 111.144C249.937 108.935 244.765 107.798 240.098 109.313L235.745 111.144C233.033 112.785 230.826 114.931 229.186 117.709L229.249 117.835Z" fill="#2540E4"/>
</svg>
