
<svg width="338" height="293" viewBox="0 0 338 293" fill="none" xmlns="http://www.w3.org/2000/svg">
    <mask id="mask0_532_1601" style="mask-type:luminance" maskUnits="userSpaceOnUse" x="0" y="0" width="338" height="293">
        <path d="M337.48 204.829L270.942 0L0.000201579 88.1588L66.5381 292.987L337.48 204.829Z" fill="white"/>
    </mask>
    <g mask="url(#mask0_532_1601)">
        <path d="M21.9515 207.006C102.37 194.696 142.106 318.042 155.541 377.506L166.894 370.878C118.517 309.962 159.01 206.69 191.618 147.1C230.408 76.2112 297.329 25.7114 380.081 24.8907C388.154 24.8276 387.839 13.2758 380.081 12.5183C288.499 3.61769 212.937 71.2243 173.958 148.615C140.592 214.959 105.776 314.949 157.307 380.473C161.848 386.28 169.858 379.778 168.66 373.845C154.973 305.922 112.209 171.593 18.924 195.896C11.6075 197.79 14.8243 208.079 22.0146 207.006H21.9515Z" fill="#2540E4"/>
        <path d="M243.249 128.835C238.645 134.958 239.086 145.058 243.06 151.371C246.403 156.673 251.385 160.839 257.567 162.354C266.208 164.501 274.975 161.218 280.336 154.274C285.003 148.278 286.076 141.397 284.751 134.011C283.616 127.762 279.327 122.46 274.092 119.051C268.226 115.2 260.909 114.569 254.161 116.021C247.853 117.41 242.114 121.45 238.771 126.941C235.428 132.433 235.428 140.766 238.897 146.384C241.735 150.992 245.709 154.148 250.881 155.726C259.459 158.378 268.73 153.264 272.073 145.311C273.587 141.713 274.218 137.42 272.956 133.633C271.632 129.466 268.857 124.732 264.694 122.901L264.315 122.712L267.974 125.553C267.974 125.553 267.532 125.237 267.406 124.985L270.244 128.646L270.055 128.267L271.884 132.56L271.758 132.118L272.389 136.915V136.473C272.136 138.051 271.947 139.693 271.695 141.271V140.892C271.19 142.344 270.56 143.796 269.929 145.184L270.118 144.806L267.28 148.467L267.595 148.151L263.937 150.992C264.568 150.55 265.198 150.171 265.955 149.856L261.603 151.686C262.549 151.308 263.432 151.055 264.378 150.929L259.585 151.56C260.342 151.56 261.099 151.56 261.856 151.56L257.062 150.929C257.63 151.055 258.134 151.181 258.702 151.371L254.35 149.54C254.854 149.793 255.359 150.045 255.8 150.361L252.142 147.52C252.584 147.836 252.899 148.151 253.214 148.593L250.376 144.932C250.628 145.311 250.881 145.689 251.07 146.194L249.241 141.839C249.493 142.47 249.619 143.038 249.682 143.669L249.052 138.809C249.052 139.314 249.052 139.756 249.052 140.261L249.682 135.4C249.619 136.031 249.43 136.6 249.178 137.231L251.007 132.875C250.818 133.317 250.565 133.633 250.313 134.075L253.151 130.413C253.151 130.413 252.773 130.855 252.521 131.045L256.179 128.204C255.8 128.52 255.422 128.709 254.981 128.898L259.333 127.068C259.333 127.068 258.765 127.257 258.45 127.257L263.306 126.626C263.306 126.626 262.675 126.626 262.423 126.626L267.28 127.257C267.28 127.257 266.712 127.131 266.397 127.005L270.749 128.835C270.307 128.646 269.929 128.456 269.55 128.141L273.209 130.981C272.83 130.666 272.515 130.35 272.2 129.971L275.038 133.633C274.722 133.254 274.533 132.875 274.344 132.433L276.173 136.789C275.984 136.347 275.921 135.968 275.795 135.526L276.425 140.387C276.425 140.387 276.425 139.819 276.425 139.503L275.795 144.364C275.795 144.364 275.921 143.796 276.047 143.543L274.218 147.899C274.218 147.899 274.533 147.394 274.722 147.141C277.372 143.669 277.687 137.105 276.552 133.065C275.416 128.835 272.136 124.227 268.163 122.144C263.937 119.935 258.765 118.798 254.098 120.313L249.745 122.144C247.033 123.785 244.826 125.931 243.186 128.709L243.249 128.835Z" fill="#2540E4"/>
    </g>
</svg>
