<svg width="22" height="22" viewBox="0 0 22 22" fill="none" xmlns="http://www.w3.org/2000/svg">
<path d="M15.9 9.58333L16.4167 9.99167L16.9333 9.58333C17.35 9.25833 21 6.30833 21 3.85833C21 2.28333 19.7833 1 18.2917 1C17.575 1 16.9 1.29167 16.4083 1.74167C15.9083 1.29167 15.2417 1 14.5417 1C13.05 1 11.8333 2.28333 11.8333 3.85833C11.8333 6.31667 15.4833 9.25833 15.9 9.58333ZM14.5417 2.66667C15.15 2.66667 15.5833 3.20833 15.5833 3.5H17.25C17.25 3.175 17.7 2.66667 18.2917 2.66667C18.8833 2.66667 19.3333 3.2 19.3333 3.85833C19.3333 4.9 17.7667 6.675 16.4167 7.85C15.0667 6.675 13.5 4.9 13.5 3.85833C13.5 3.2 13.9667 2.66667 14.5417 2.66667ZM7.66667 1H3.5C2.125 1 1 2.125 1 3.5V8.16667C1 9.27124 1.89543 10.1667 3 10.1667H8.16667C9.27124 10.1667 10.1667 9.27124 10.1667 8.16667V3.5C10.1667 2.125 9.04167 1 7.66667 1ZM8.5 8.5H2.66667V3.5C2.66667 3.04167 3.04167 2.66667 3.5 2.66667H7.66667C8.125 2.66667 8.5 3.04167 8.5 3.5V8.5ZM18.5 11.8333H14.3333C12.9583 11.8333 11.8333 12.9583 11.8333 14.3333V19C11.8333 20.1046 12.7288 21 13.8333 21H19C20.1046 21 21 20.1046 21 19V14.3333C21 12.9583 19.875 11.8333 18.5 11.8333ZM19.3333 19.3333H13.5V14.3333C13.5 13.875 13.875 13.5 14.3333 13.5H18.5C18.9583 13.5 19.3333 13.875 19.3333 14.3333V19.3333ZM7.66667 11.8333H3.5C2.125 11.8333 1 12.9583 1 14.3333V19C1 20.1046 1.89543 21 3 21H8.16667C9.27124 21 10.1667 20.1046 10.1667 19V14.3333C10.1667 12.9583 9.04167 11.8333 7.66667 11.8333ZM8.5 19.3333H2.66667V14.3333C2.66667 13.875 3.04167 13.5 3.5 13.5H7.66667C8.125 13.5 8.5 13.875 8.5 14.3333V19.3333Z" fill="black" stroke="black" stroke-width="0.2"/>
</svg>
