<svg width="18" height="21" viewBox="0 0 18 21" fill="none" xmlns="http://www.w3.org/2000/svg">
<path d="M14.8584 11.0286C14.849 9.31866 15.6327 8.02802 17.2191 7.07752C16.3315 5.82416 14.9906 5.13458 13.2201 4.99946C11.544 4.869 9.71203 5.96394 9.04158 5.96394C8.33337 5.96394 6.70919 5.04605 5.43439 5.04605C2.79982 5.08799 0 7.11946 0 11.2523C0 12.473 0.22663 13.7342 0.679889 15.0357C1.28424 16.7456 3.46555 20.939 5.74129 20.8691C6.93109 20.8412 7.77151 20.0351 9.32015 20.0351C10.8216 20.0351 11.6006 20.8691 12.9273 20.8691C15.222 20.8365 17.1955 17.0252 17.7716 15.3106C14.6932 13.8801 14.8584 11.1172 14.8584 11.0286ZM12.1861 3.37801C13.475 1.86839 13.357 0.493889 13.3192 0C12.1814 0.0652306 10.8641 0.76413 10.1134 1.62611C9.2871 2.54865 8.80079 3.69019 8.90466 4.97616C10.137 5.06935 11.2607 4.445 12.1861 3.37801Z" fill="#646E74"/>
</svg>
