<svg xmlns="http://www.w3.org/2000/svg" width="23" height="21" viewBox="0 0 23 21" fill="none">
    <path d="M20.0303 12.4016C19.6041 12.4016 19.241 12.0756 19.2028 11.6431C19.162 11.1856 19.5005 10.7818 19.958 10.7415H19.9588C20.0145 10.2857 20.4262 9.96425 20.8858 10.0175C21.342 10.0736 21.6659 10.4886 21.6098 10.9444C21.5146 11.7183 20.8812 12.3297 20.1044 12.3983C20.0794 12.4008 20.0545 12.4016 20.0303 12.4016Z" fill="black" stroke="black" stroke-width="0.3"/>
    <path d="M6.52125 13.5835C6.09458 13.5835 5.73153 13.2571 5.69369 12.8242C5.65335 12.3663 5.99227 11.9633 6.44972 11.923L19.9581 10.7411C20.418 10.6987 20.8189 11.0397 20.8588 11.4971C20.8992 11.955 20.5603 12.358 20.1028 12.3983L6.59444 13.5802C6.57032 13.5823 6.54537 13.5835 6.52125 13.5835Z" fill="black" stroke="black" stroke-width="0.3"/>
    <path d="M20.785 11.6749C20.7509 11.6749 20.7168 11.6728 20.6822 11.6687C20.226 11.6125 19.9021 11.1975 19.9582 10.7417L20.9675 2.54803C21.0241 2.09225 21.442 1.7683 21.8945 1.82444C22.3507 1.88058 22.6746 2.29561 22.6185 2.75139L21.6092 10.9451C21.5576 11.3663 21.1987 11.6749 20.785 11.6749Z" fill="black" stroke="black" stroke-width="0.3"/>
    <path d="M4.30616 5.01112C3.87949 5.01112 3.51644 4.68467 3.4786 4.25176C3.43826 3.7939 3.77719 3.39093 4.23463 3.35059L21.7207 1.82064C22.1798 1.77864 22.5815 2.11923 22.6214 2.57667C22.6618 3.03454 22.3229 3.4375 21.8654 3.47784L4.37935 5.00779C4.35482 5.00987 4.33028 5.01112 4.30616 5.01112Z" fill="black" stroke="black" stroke-width="0.3"/>
    <path d="M4.08952 3.38579C3.67948 3.38579 3.32226 3.08221 3.26653 2.66427V2.66344C2.80742 2.66344 2.43481 2.29124 2.43481 1.83172C2.43481 1.37219 2.80742 1 3.26653 1C4.09659 1 4.80521 1.62046 4.91542 2.44345C4.97613 2.89881 4.65634 3.31717 4.20097 3.3783C4.16313 3.38329 4.12653 3.38579 4.08952 3.38579Z" fill="black" stroke="black" stroke-width="0.3"/>
    <path d="M3.26602 2.66393H1.83172C1.37261 2.66393 1 2.29132 1 1.83221C1 1.3731 1.37261 1.00049 1.83172 1.00049H3.26602C3.72513 1.00049 4.09774 1.3731 4.09774 1.83221C4.09774 2.29132 3.72554 2.66393 3.26602 2.66393Z" fill="black" stroke="black" stroke-width="0.3"/>
    <path d="M5.25125 12.1002C4.84122 12.1002 4.48358 11.7966 4.42827 11.3783L3.26594 2.66393C3.20522 2.20856 3.52502 1.79021 3.98039 1.72949C4.43284 1.66795 4.85452 1.98857 4.91482 2.44394L6.07673 11.1587C6.13745 11.6141 5.81765 12.0324 5.36229 12.0931C5.32486 12.0981 5.28826 12.1002 5.25125 12.1002Z" fill="black" stroke="black" stroke-width="0.3"/>
    <path d="M8.99158 20.1299C7.41381 20.1299 6.08057 18.7966 6.08057 17.2189C6.08057 15.6411 7.41381 14.3079 8.99158 14.3079C10.5694 14.3079 11.9026 15.6411 11.9026 17.2189C11.9026 18.7966 10.5694 20.1299 8.99158 20.1299ZM8.99158 15.9713C8.32704 15.9713 7.744 16.5543 7.744 17.2189C7.744 17.8834 8.32704 18.4665 8.99158 18.4665C9.65613 18.4665 10.2392 17.8834 10.2392 17.2189C10.2392 16.5543 9.65571 15.9713 8.99158 15.9713Z" fill="black" stroke="black" stroke-width="0.3"/>
    <path d="M16.893 20.1299C15.3152 20.1299 13.9819 18.7966 13.9819 17.2189C13.9819 15.6411 15.3152 14.3079 16.893 14.3079C18.4707 14.3079 19.804 15.6411 19.804 17.2189C19.804 18.7966 18.4707 20.1299 16.893 20.1299ZM16.893 15.9713C16.2284 15.9713 15.6454 16.5543 15.6454 17.2189C15.6454 17.8834 16.2284 18.4665 16.893 18.4665C17.5575 18.4665 18.1405 17.8834 18.1405 17.2189C18.1405 16.5543 17.5571 15.9713 16.893 15.9713Z" fill="black" stroke="black" stroke-width="0.3"/>
    <path d="M6.89717 13.5442C5.65749 13.5442 4.59456 12.6302 4.4278 11.3784C4.36708 10.9231 4.68729 10.5047 5.14266 10.4444C5.5947 10.3825 6.01638 10.7039 6.07668 11.1593C6.13573 11.6013 6.53662 11.9128 6.97327 11.8779C7.44112 11.838 7.83452 12.1769 7.87444 12.6339C7.91478 13.0914 7.57585 13.4947 7.11882 13.5351C7.04439 13.5409 6.96995 13.5442 6.89717 13.5442Z" fill="black" stroke="black" stroke-width="0.3"/>
</svg>