<svg width="35" height="41" viewBox="0 0 35 41" fill="none" xmlns="http://www.w3.org/2000/svg">
<path d="M2 20.2634C6.67143 21.8585 10.1735 26.2751 13.7476 29.4962C15.5 31.0755 14.872 30.9551 15.4002 29.2447C16.2949 26.3474 17.3462 23.4098 18.6846 20.7181C18.6846 20.7181 18.9729 18.7349 23.3233 12.598C25.6666 9.29245 28.1654 6.06272 31.1011 3.25745C31.7104 2.67524 32.1871 2.20008 32.9872 2.00006" stroke="#2540E4" stroke-width="3" stroke-linecap="round"/>
<path d="M18.4976 21.1877C18.0678 20.8697 17.4575 20.9706 16.9563 20.9706C15.3549 20.9706 13.7072 20.8686 12.1192 21.1154C9.16056 21.5752 7.77869 23.5833 7.40067 26.446C6.94523 29.895 7.22494 33.5275 9.7718 36.1183C11.8468 38.2291 15.9518 39.3875 18.8058 38.4942C25.3155 36.4567 24.5717 26.1227 19.6713 22.84C18.003 21.7224 16.2225 21.2151 14.2295 21.1877C13.2433 21.1742 11.9172 20.9528 11.0285 21.4048" stroke="#2540E4" stroke-width="3" stroke-linecap="round"/>
</svg>
