<svg xmlns="http://www.w3.org/2000/svg" width="10" height="10" viewBox="0 0 10 10" fill="none">
    <path d="M0.299996 9.7C0.394994 9.79511 0.507806 9.87055 0.631981 9.92203C0.756156 9.97351 0.88926 10 1.02368 10C1.1581 10 1.29121 9.97351 1.41538 9.92203C1.53956 9.87055 1.65237 9.79511 1.74737 9.7L5.00012 6.44725L8.25287 9.7C8.4448 9.89194 8.70512 9.99976 8.97655 9.99976C9.24799 9.99976 9.50831 9.89194 9.70024 9.7C9.89217 9.50807 10 9.24775 10 8.97632C10 8.70488 9.89217 8.44457 9.70024 8.25263L6.44749 4.99988L9.70024 1.74713C9.89217 1.5552 10 1.29488 10 1.02345C10 0.752012 9.89217 0.491694 9.70024 0.29976C9.50831 0.107827 9.24799 2.02235e-09 8.97655 0C8.70512 -2.02235e-09 8.4448 0.107827 8.25287 0.29976L5.00012 3.55251L1.74737 0.29976C1.65233 0.204725 1.53951 0.129338 1.41534 0.0779052C1.29117 0.0264722 1.15808 0 1.02368 0C0.889281 0 0.756196 0.0264722 0.632026 0.0779052C0.507856 0.129338 0.395032 0.204725 0.299996 0.29976C0.108063 0.491694 0.000235825 0.752012 0.000235825 1.02345C0.000235825 1.29488 0.108063 1.5552 0.299996 1.74713L3.55275 4.99988L0.299996 8.25263C0.204893 8.34763 0.129446 8.46044 0.0779708 8.58462C0.0264952 8.70879 0 8.8419 0 8.97632C0 9.11074 0.0264952 9.24384 0.0779708 9.36802C0.129446 9.49219 0.204893 9.60501 0.299996 9.7Z" fill="#E2E5E9"/>
</svg>