<svg width="22" height="22" viewBox="0 0 22 22" fill="none" xmlns="http://www.w3.org/2000/svg">
<g id="Group">
<path id="Vector" d="M10.4333 3.00995L10.4334 3.00995V3.00867V2.99197C10.4377 2.6829 10.6897 2.43333 11 2.43333C11.3128 2.43333 11.5667 2.68723 11.5667 3C11.5667 3.31277 11.3128 3.56667 11 3.56667C10.5768 3.56667 10.2341 3.90943 10.2334 4.33248L10.2334 4.33259L10.2327 5.15021L7.40299 6.27938L5.83772 6.80113L5.83771 6.80113C4.09175 7.38334 2.70164 8.7233 2.05572 10.4462C1.78905 11.1569 1.51238 11.8947 1.30238 12.4549L1.04696 13.1363L0.97472 13.329L0.955611 13.38L0.950703 13.3931L0.94946 13.3965L0.949147 13.3973L0.949074 13.3975L0.949068 13.3975L0.949048 13.3976C0.811059 13.7649 0.972926 14.1766 1.32394 14.3521C1.32395 14.3521 1.32396 14.3521 1.32397 14.3521L4.89867 16.1411L4.89803 20.3333C4.89803 20.5365 4.97856 20.7313 5.12265 20.8754C5.26624 21.0196 5.46175 21.1 5.66469 21.1H16.3334C16.7566 21.1 17.1 20.7566 17.1 20.3333V16.1385L20.676 14.3528L20.6761 14.3528C21.0272 14.1772 21.1889 13.7655 21.0517 13.3977L21.0517 13.3976L20.958 13.4327L21.0517 13.3975L21.0516 13.3975L21.0516 13.3973L21.0513 13.3965L21.05 13.3931L21.0451 13.3801L21.026 13.3291L20.9539 13.1366L20.6988 12.4559C20.4892 11.8963 20.213 11.1589 19.947 10.4483L19.8534 10.4833L19.947 10.4483C19.3004 8.72131 17.9076 7.3793 16.1576 6.79776L16.1575 6.79775L14.5997 6.28072L11.766 5.14633V4.95542C12.5464 4.64914 13.1 3.88932 13.1 3C13.1 1.84077 12.1592 0.9 11 0.9C9.84079 0.9 8.90002 1.84077 8.90002 3C8.90002 3.42323 9.24346 3.76667 9.66669 3.76667C10.0868 3.76667 10.428 3.42858 10.4333 3.00995ZM4.89939 14.4268L2.6266 13.2895L3.49099 10.9851C3.97506 9.69469 5.01561 8.692 6.32298 8.2562L6.323 8.2562L7.45959 7.87713L7.62854 8.0466L7.62865 8.0467C9.49037 9.90842 12.5083 9.90843 14.3701 8.04739L14.541 7.87699L15.6739 8.25291C15.6739 8.25291 15.6739 8.25291 15.6739 8.25291C16.9845 8.68805 18.027 9.69269 18.511 10.9857L19.3735 13.2894L17.1 14.4249V11.6667C17.1 11.2434 16.7566 10.9 16.3334 10.9C15.9101 10.9 15.5667 11.2434 15.5667 11.6667V19.5667H6.43138L6.43335 11.6667V11.6667C6.43335 11.2434 6.08992 10.9 5.66669 10.9C5.24347 10.9 4.90003 11.2434 4.90002 11.6666C4.90002 11.6667 4.90002 11.6667 4.90002 11.6667L4.89939 14.4268ZM11.004 6.49303L12.936 7.26608C11.7925 8.12376 10.209 8.12439 9.0649 7.26745L11.004 6.49303Z" fill="black" stroke="black" stroke-width="0.2"/>
</g>
</svg>
