<svg xmlns="http://www.w3.org/2000/svg" width="16" height="16" viewBox="0 0 16 16" fill="none">
    <path d="M3.54545 15.1H12.4545C13.1562 15.1 13.829 14.8213 14.3252 14.3251C14.8213 13.829 15.1 13.1561 15.1 12.4545V4.81816C15.1 4.11654 14.8213 3.44366 14.3252 2.94754C13.829 2.45142 13.1562 2.17271 12.4545 2.17271H3.54545C2.84384 2.17271 2.17095 2.45142 1.67484 2.94754C1.17872 3.44366 0.9 4.11654 0.9 4.81816V12.4545C0.9 13.1561 1.17872 13.829 1.67484 14.3251C2.17095 14.8213 2.84384 15.1 3.54545 15.1ZM2.71621 3.98892C2.93614 3.76899 3.23443 3.64543 3.54545 3.64543H12.4545C12.7656 3.64543 13.0639 3.76899 13.2838 3.98892C13.5037 4.20885 13.6273 4.50713 13.6273 4.81816V12.4545C13.6273 12.7655 13.5037 13.0638 13.2838 13.2838C13.0639 13.5037 12.7656 13.6272 12.4545 13.6272H3.54545C3.23443 13.6272 2.93614 13.5037 2.71621 13.2838C2.49628 13.0638 2.37273 12.7655 2.37273 12.4545V4.81816C2.37273 4.50713 2.49628 4.20885 2.71621 3.98892Z" fill="black" stroke="black" stroke-width="0.2"/>
    <path d="M5.55437 1.63636C5.55437 1.22968 5.22469 0.9 4.818 0.9C4.41132 0.9 4.08164 1.22968 4.08164 1.63636V4.18182C4.08164 4.5885 4.41132 4.91818 4.818 4.91818C5.22469 4.91818 5.55437 4.5885 5.55437 4.18182V1.63636Z" fill="black" stroke="black" stroke-width="0.2"/>
    <path d="M11.9181 1.63636C11.9181 1.22968 11.5885 0.9 11.1818 0.9C10.7751 0.9 10.4454 1.22968 10.4454 1.63636V4.18182C10.4454 4.5885 10.7751 4.91818 11.1818 4.91818C11.5885 4.91818 11.9181 4.5885 11.9181 4.18182V1.63636Z" fill="black" stroke="black" stroke-width="0.2"/>
    <path d="M11.8181 5.99094H4.18177C3.77509 5.99094 3.44541 6.32062 3.44541 6.72731C3.44541 7.13399 3.77509 7.46367 4.18177 7.46367H11.8181C12.2248 7.46367 12.5545 7.13399 12.5545 6.72731C12.5545 6.32062 12.2248 5.99094 11.8181 5.99094Z" fill="black" stroke="black" stroke-width="0.2"/>
</svg>