<svg width="520" height="927" viewBox="0 0 520 927" fill="none" xmlns="http://www.w3.org/2000/svg">
<rect width="520" height="927" rx="23" fill="#2540E4"/>
<path d="M135.673 791.861C161.305 799.633 188.894 799.837 214.388 791.337C238.2 783.361 259.147 767.845 274.333 746.887C289.519 725.928 297.732 701.884 297.981 676.384C298.201 650.681 290.126 625.006 275.105 604.775C271.356 599.71 267.167 595.024 262.564 590.803C257.962 586.582 252.036 582.186 245.532 582.041C239.744 581.924 234.728 585.621 232.302 591.065C229.767 596.799 230.235 603.116 232.578 608.821C237.704 621.193 249.693 629.169 261.324 633.593C273.782 638.338 287.314 639.648 300.433 638.076C326.589 634.932 350.264 620.902 368.179 600.816C386.093 580.731 397.697 557.182 404.78 531.711C411.863 506.24 413.82 479.489 410.871 453.29C407.922 427.092 400.039 401.68 387.472 378.858C384.385 373.24 380.967 367.884 377.384 362.615C376.392 361.16 374.104 362.557 375.097 364.012C388.96 384.331 398.413 407.967 403.567 432.361C408.749 456.842 409.824 482.312 406.103 507.143C402.355 532.089 393.921 556.25 380.857 577.442C367.462 599.157 348.776 617.816 325.79 627.539C302.804 637.261 274.526 638.804 252.394 625.53C242.693 619.708 230.373 607.541 234.507 594.354C236.492 588.066 242.059 584.34 248.288 585.912C254.517 587.484 259.478 592.287 263.915 596.799C280.7 613.945 291.173 637.581 293.984 661.975C296.795 686.31 291.641 710.879 280.121 732.099C268.6 753.32 250.823 771.077 229.849 782.022C206.753 794.073 180.101 798.148 154.663 794.568C148.379 793.695 142.177 792.326 136.086 790.463C135.232 790.201 134.874 791.628 135.728 791.861L135.673 791.861Z" fill="#F4F4F4"/>
<path d="M426.306 692.54C405.249 677.84 387.362 658.57 372.644 636.971C357.486 614.76 344.036 589.61 340.067 562.189C338.165 549.031 338.661 535.35 342.134 522.542C345.607 509.734 351.973 498.934 360.793 489.852C369.613 480.77 379.59 474.308 390.228 468.69C401.997 462.489 414.372 457.483 426.912 453.262C453.343 444.325 480.96 439.289 508.659 437.863C512.076 437.688 515.466 437.572 518.884 437.426C520.372 437.368 520.372 435.039 518.884 434.981C490.496 433.817 461.722 438.474 434.492 446.8C421.152 450.875 408.06 455.911 395.41 461.965C384.248 467.292 373.499 473.697 364.045 481.993C354.592 490.289 346.875 500.564 342.134 512.557C337.394 524.55 335.409 538.843 336.153 552.321C337.697 580.644 350.21 606.959 365.093 630.072C379.452 652.369 396.898 672.571 417.624 688.465C420.187 690.444 422.806 692.307 425.451 694.141C426.389 694.782 427.215 693.21 426.306 692.598L426.306 692.54Z" fill="#F4F4F4"/>
<path d="M199.477 874.997C216.096 863.237 225.881 843.646 229.822 823.328C232.137 811.451 232.688 799.254 232.468 787.145C232.247 775.035 231.31 763.828 229.381 752.33C225.688 730.032 217.943 708.695 205.155 690.415C193.11 673.211 177.676 659.006 160.864 647.217C141.874 633.855 121.121 623.492 100.284 613.799C97.6386 612.576 94.9928 611.354 92.3469 610.16C91.3271 609.695 90.4176 611.237 91.4649 611.761C111.447 621.833 131.622 631.643 150.501 643.956C167.672 655.163 183.795 668.408 196.914 684.709C210.033 701.01 219.514 721.271 224.447 742.695C226.983 753.757 228.499 765.051 229.216 776.404C229.932 787.756 230.098 799.866 228.995 811.509C227.011 832.555 220.01 854.504 204.548 868.855C202.702 870.572 200.745 872.144 198.705 873.6C197.879 874.182 198.65 875.608 199.505 875.026L199.477 874.997Z" fill="#F4F4F4"/>
<path d="M168 891C168 891 501 550.047 501 551.002L501 596.719L168 891Z" fill="black"/>
<path d="M316.5 628.701L316.5 927L500 927C511.046 927 520 918.046 520 907L520 425.731L316.5 628.701Z" fill="url(#paint0_linear_230_32696)"/>
<path d="M419 583.661L419 637.69L419 645L497 645L497 546L419 583.661Z" fill="black"/>
<path d="M0 904C0 916.703 10.2975 927 23 927H500C511.046 927 520 918.046 520 907V871H0V904Z" fill="black"/>
<path d="M283.323 902.657L267.125 879.19C254.175 860.451 251.785 837.168 259.286 816.884C261.525 810.831 264.625 805.073 268.598 799.757C270.551 797.133 272.705 794.63 275.088 792.247C288.401 778.933 305.821 772.256 323.299 772.233C340.696 772.211 358.139 778.831 371.432 792.124L382.644 803.336L283.323 902.657Z" fill="url(#paint1_linear_230_32696)"/>
<path d="M339.086 832.581C338.365 832.194 328.344 828.765 328.483 830.507C328.713 833.381 330.83 836.162 331.665 838.935C332.128 840.474 330.226 838.397 329.868 838.16C326.265 835.775 322.243 834.203 318.131 833.054C314.055 831.914 310.199 830.04 306.113 829.07C305.345 828.888 302.937 828.879 302.283 829.37C301.691 829.814 307.064 836.821 307.569 837.679C309.128 840.33 308.843 839.463 306.487 838.454C291.505 832.04 275.92 826.919 259.972 823.699" stroke="black" stroke-width="6" stroke-linecap="round"/>
<path d="M268.61 799.744C270.563 797.12 272.717 794.616 275.1 792.234C288.414 778.92 305.833 772.243 323.311 772.22C340.709 772.198 358.151 778.818 371.445 792.111L382.657 803.323L268.624 799.731L268.61 799.744Z" fill="black"/>
<path d="M431.595 830.526C430.424 811.115 433.755 791.588 442.183 773.991C444.558 769.044 447.312 764.261 450.247 759.61C451.006 758.423 449.175 757.417 448.384 758.522C442.595 766.537 438.307 775.624 435.19 784.992C432.106 794.244 430.276 803.908 429.781 813.638C429.501 819.278 429.649 824.919 430.358 830.509C430.457 831.284 431.645 831.317 431.595 830.509V830.526Z" fill="black"/>
<path d="M429.467 835.127C430.654 834.203 430.374 812.137 454.188 796.091C470.367 785.173 488.211 801.022 455.475 814.298C438.702 821.092 429.467 835.127 429.467 835.127Z" fill="black"/>
<path d="M426.367 806.201C430.325 818.553 430.556 831.499 430.951 834.501C430.094 831.334 425.146 817.102 403.509 807.734C391.42 802.49 389.491 793.667 392.888 787.927L393.564 786.888C397.308 781.924 405.405 779.995 413.932 786.526C420.1 791.242 423.942 798.598 426.367 806.184V806.201Z" fill="black"/>
<path d="M431.084 835.127C431.084 835.127 430.968 834.847 430.935 834.484C431.051 834.896 431.084 835.127 431.084 835.127Z" fill="black"/>
<path d="M445.596 753.591C445.481 753.674 434.052 735.137 448.482 733.587C462.913 732.036 452.869 754.597 452.869 754.597C452.869 754.597 461.808 732.036 469.345 744.059C476.882 756.082 455.953 759.083 455.953 759.083C455.953 759.083 476.601 758.671 470.417 772.112C464.216 785.553 453.051 777.818 449.34 765.713C449.34 765.713 445.86 784.002 434.497 774.948C423.134 765.911 442.71 759.083 442.71 759.083C442.71 759.083 421.568 763.058 425.954 748.842C430.341 734.626 445.613 753.591 445.613 753.591H445.596Z" fill="#4A7143"/>
<path d="M449.323 765.696C452.984 765.696 455.953 762.728 455.953 759.066C455.953 755.405 452.984 752.437 449.323 752.437C445.661 752.437 442.693 755.405 442.693 759.066C442.693 762.728 445.661 765.696 449.323 765.696Z" fill="#F4F4F4"/>
<path d="M407.384 895.389L390.991 829.306C390.991 829.306 462.83 830.873 462.83 830.906V895.406H407.384V895.389Z" fill="#4A7143"/>
<path d="M401.331 870.948L462.83 895.389H407.384L401.331 870.948Z" fill="black"/>
<path d="M0 870.864H114.167L62.8221 589.757H0V870.864Z" fill="url(#paint2_linear_230_32696)"/>
<path d="M108.389 871.753C108.372 856 108.075 580.352 108.075 567.858C108.075 556.439 111.98 549.845 115.253 546.322C118.782 542.53 122.32 541.361 122.894 541.19C134.097 537.663 141.856 538.3 147.024 540.109C147.325 538.832 147.947 537.758 148.912 537.019C152.108 534.574 157.839 536.68 161.857 541.711C174.225 538.839 191.369 547.298 203.709 563.454L160.018 596.861C147.678 580.705 144.021 561.936 150.038 550.747C148.947 549.254 148.129 547.69 147.591 546.157C147.091 545.888 146.538 545.626 145.923 545.384C142.153 543.897 135.37 542.841 124.467 546.276H124.481L124.422 546.29C123.971 546.427 113.397 549.869 113.397 567.855C113.397 580.348 113.694 856.055 113.711 871.75H139.104V875.108H83V871.75H108.389V871.753Z" fill="black"/>
<path d="M171.578 846.101L138.89 854.859L130.288 822.759L162.977 814L171.578 846.101Z" fill="#4377F4"/>
<path d="M164.013 852C163.684 850.775 163.285 849.592 162.822 848.447L138.694 854.912L132.129 830.412C130.818 830.577 129.497 830.833 128.187 831.184C112.604 835.365 103.371 851.456 107.569 867.124C111.768 882.793 127.809 892.111 143.394 887.935C158.978 883.76 168.211 867.669 164.013 852Z" fill="#4A7143"/>
<path d="M162.822 848.447C157.817 836.191 145.177 828.779 132.129 830.412L138.694 854.912L162.822 848.447Z" fill="url(#paint3_linear_230_32696)"/>
<path d="M47.1866 889.74V791.049C47.1866 791.049 73.5855 791.049 73.5855 819.478C73.5855 847.908 63.8382 889.74 63.8382 889.74H47.1866Z" fill="#4A7143"/>
<path d="M47.5932 889.74V791.049C47.5932 791.049 21.1943 791.049 21.1943 819.478C21.1943 847.908 30.9416 889.74 30.9416 889.74H47.5932Z" fill="#4A7143"/>
<path d="M42.7194 889.74C47.3959 851.192 51.9941 810.138 47.1869 795.111C47.1869 795.111 53.6851 796.735 52.0605 828.82C50.436 860.905 50.436 889.74 50.436 889.74H42.7194Z" fill="black"/>
<path d="M52.8724 889.74C61.4013 863.748 88.6125 805.264 47.9988 790.643C47.9988 790.643 78.459 791.861 73.9915 829.226C69.524 866.591 63.8381 889.74 63.8381 889.74H52.8724Z" fill="black"/>
<rect x="23.631" y="889.334" width="48.7364" height="37.3646" fill="#F4973B"/>
<path d="M32.1592 853.188L34.1898 889.334H39.4696L32.1592 853.188Z" fill="black"/>
<path d="M357.448 510.102L320.882 474.004L216.294 649.179L341.08 649.179L357.448 510.102Z" fill="url(#paint4_linear_230_32696)"/>
<path d="M379.457 453.19L376.722 450.456L336.99 490.188L347.15 500.348L357.311 510.509L379.457 488.363C389.169 478.65 389.169 462.903 379.457 453.19Z" fill="url(#paint5_linear_230_32696)"/>
<path d="M377.93 451.663L376.722 450.456L336.99 490.188L320.611 473.81L342.758 451.663C352.47 441.951 368.217 441.951 377.93 451.663Z" fill="url(#paint6_linear_230_32696)"/>
<path d="M330.414 498.837L331.486 499.909C335.78 504.202 342.742 504.202 347.035 499.909L338.188 491.062L330.414 498.837Z" fill="#DF9238"/>
<path d="M330.414 484.896L331.218 484.092L338.188 491.062L330.414 498.837C326.565 494.987 326.565 488.746 330.414 484.896Z" fill="#DF9238"/>
<path d="M376.295 450.142C377.945 451.658 379.158 452.871 380.675 454.691C382.95 453.096 384.915 451.816 387.578 451.137C395.84 449.044 403.653 449.869 410.465 455.456C413.207 457.706 415.245 460.551 416.343 463.99C417.774 465.792 417.993 467.97 418.254 470.141C418.284 470.457 418.308 470.772 418.338 471.088C419.145 472.719 419 474.46 418.903 476.195C418.933 476.85 418.981 477.499 418.981 478.154C418.981 497.899 418.988 517.644 418.981 537.395C418.981 539.002 418.933 540.616 418.903 542.223C418.921 542.624 418.939 543.018 418.951 543.418C418.951 543.831 418.963 544.237 418.969 544.65C418.951 545.359 418.927 546.063 418.909 546.773C419.03 554.034 419.06 561.295 418.89 568.556C418.915 568.804 419.677 598.772 419.701 599.027L425.482 599.553C425.494 599.049 424.787 568.422 424.787 567.919C424.787 539.912 424.787 511.899 424.787 483.893C424.787 483.244 424.671 482.577 424.956 481.952C424.768 481.351 424.768 480.757 424.95 480.156C424.635 478.342 424.762 476.523 424.853 474.703C424.841 474.381 424.823 474.066 424.811 473.744C424.344 473.18 424.374 472.586 424.72 471.973C424.708 471.597 424.69 471.227 424.677 470.851C423.737 469.547 423.877 467.994 423.707 466.52C423.677 466.308 423.646 466.089 423.61 465.877C423.106 465.501 422.924 465.009 423.052 464.397C422.797 463.821 422.585 463.232 422.615 462.583C422.275 462.516 422.069 462.359 422.166 461.97C421.79 460.994 421.414 460.017 421.044 459.047C420.371 458.725 420.025 458.185 420.013 457.439C419.97 457.336 419.934 457.227 419.891 457.124C419.558 457.069 419.333 456.917 419.388 456.535C419.157 456.196 418.927 455.856 418.696 455.522C418.272 455.419 418.138 455.128 418.181 454.722C417.738 454.394 417.368 454.012 417.174 453.484C416.804 453.454 416.616 453.272 416.658 452.884C406.273 441.637 387.244 441.461 376.295 450.142Z" fill="black"/>
<defs>
<linearGradient id="paint0_linear_230_32696" x1="398.363" y1="425.731" x2="398.363" y2="959.277" gradientUnits="userSpaceOnUse">
<stop stop-color="#F69640"/>
<stop offset="1" stop-color="#DF3680"/>
</linearGradient>
<linearGradient id="paint1_linear_230_32696" x1="332.984" y1="852.997" x2="273.661" y2="793.674" gradientUnits="userSpaceOnUse">
<stop stop-color="#F59244"/>
<stop offset="1" stop-color="#E03B7D"/>
</linearGradient>
<linearGradient id="paint2_linear_230_32696" x1="47.5833" y1="589.757" x2="47.5833" y2="870.864" gradientUnits="userSpaceOnUse">
<stop stop-color="#F59144"/>
<stop offset="1" stop-color="#E54D71"/>
</linearGradient>
<linearGradient id="paint3_linear_230_32696" x1="150.758" y1="851.679" x2="144.193" y2="827.18" gradientUnits="userSpaceOnUse">
<stop stop-color="#F59244"/>
<stop offset="1" stop-color="#E13C7D"/>
</linearGradient>
<linearGradient id="paint4_linear_230_32696" x1="341.275" y1="493.928" x2="255.84" y2="579.362" gradientUnits="userSpaceOnUse">
<stop stop-color="#7A88E7"/>
<stop offset="1" stop-color="#D9D9D9" stop-opacity="0"/>
</linearGradient>
<linearGradient id="paint5_linear_230_32696" x1="317.275" y1="488.368" x2="390.077" y2="466.52" gradientUnits="userSpaceOnUse">
<stop stop-color="#D70563"/>
<stop offset="1" stop-color="#EE8834"/>
</linearGradient>
<linearGradient id="paint6_linear_230_32696" x1="317.275" y1="488.368" x2="390.077" y2="466.52" gradientUnits="userSpaceOnUse">
<stop stop-color="#D70563"/>
<stop offset="1" stop-color="#EE8834"/>
</linearGradient>
</defs>
</svg>
