<svg xmlns="http://www.w3.org/2000/svg" width="122" height="21" viewBox="0 0 122 21" fill="none">
    <path d="M11.41 0.589952C13.59 0.589952 15.41 0.849951 16.87 1.36995C18.33 1.88995 19.49 2.59995 20.35 3.49995C21.23 4.37995 21.85 5.39995 22.21 6.55995C22.59 7.71995 22.78 8.93995 22.78 10.22C22.78 11.5 22.57 12.73 22.15 13.91C21.75 15.09 21.1 16.14 20.2 17.06C19.32 17.96 18.15 18.68 16.69 19.22C15.25 19.74 13.49 20 11.41 20H0.309998V0.589952H11.41ZM4.3 16.58H11.32C12.76 16.58 13.95 16.41 14.89 16.07C15.85 15.71 16.61 15.23 17.17 14.63C17.73 14.03 18.13 13.35 18.37 12.59C18.61 11.83 18.73 11.04 18.73 10.22C18.73 9.39995 18.61 8.61995 18.37 7.87995C18.13 7.13995 17.73 6.47995 17.17 5.89995C16.61 5.31995 15.85 4.85995 14.89 4.51995C13.95 4.17995 12.76 4.00995 11.32 4.00995H4.3V16.58Z" fill="black"/>
    <path d="M38.2272 20.39C35.6472 20.39 33.4372 19.99 31.5972 19.19C29.7772 18.37 28.3772 17.21 27.3972 15.71C26.4372 14.21 25.9572 12.41 25.9572 10.31C25.9572 8.18995 26.4372 6.37995 27.3972 4.87995C28.3772 3.37995 29.7772 2.22995 31.5972 1.42995C33.4372 0.609951 35.6472 0.199951 38.2272 0.199951C40.8272 0.199951 43.0372 0.609951 44.8572 1.42995C46.6772 2.22995 48.0672 3.37995 49.0272 4.87995C50.0072 6.37995 50.4972 8.18995 50.4972 10.31C50.4972 12.41 50.0072 14.21 49.0272 15.71C48.0672 17.21 46.6772 18.37 44.8572 19.19C43.0372 19.99 40.8272 20.39 38.2272 20.39ZM38.2272 16.94C39.8272 16.94 41.2272 16.7 42.4272 16.22C43.6472 15.74 44.5972 15.01 45.2772 14.03C45.9772 13.05 46.3272 11.81 46.3272 10.31C46.3272 8.80995 45.9772 7.56995 45.2772 6.58995C44.5972 5.60995 43.6472 4.87995 42.4272 4.39995C41.2272 3.89995 39.8272 3.64995 38.2272 3.64995C36.6472 3.64995 35.2372 3.89995 33.9972 4.39995C32.7572 4.87995 31.7872 5.60995 31.0872 6.58995C30.3872 7.56995 30.0372 8.80995 30.0372 10.31C30.0372 11.81 30.3872 13.05 31.0872 14.03C31.7872 15.01 32.7572 15.74 33.9972 16.22C35.2372 16.7 36.6472 16.94 38.2272 16.94Z" fill="black"/>
    <path d="M54.392 20V0.589952H65.582C68.182 0.589952 70.152 1.02995 71.492 1.90995C72.852 2.76995 73.532 4.05995 73.532 5.77995C73.532 6.87995 73.262 7.74995 72.722 8.38995C72.182 9.00995 71.412 9.46995 70.412 9.76995C69.432 10.07 68.272 10.26 66.932 10.34L67.052 10.13C68.032 10.15 68.952 10.22 69.812 10.34C70.692 10.46 71.462 10.68 72.122 11C72.782 11.32 73.302 11.77 73.682 12.35C74.062 12.91 74.252 13.65 74.252 14.57C74.252 15.77 73.932 16.77 73.292 17.57C72.652 18.35 71.762 18.94 70.622 19.34C69.482 19.74 68.162 19.96 66.662 20H54.392ZM58.382 16.7H66.242C67.502 16.7 68.472 16.5 69.152 16.1C69.832 15.68 70.172 15.02 70.172 14.12C70.172 13.46 69.972 12.98 69.572 12.68C69.172 12.38 68.642 12.2 67.982 12.14C67.322 12.06 66.612 12.02 65.852 12.02H58.382V16.7ZM58.382 8.80995H65.432C66.692 8.80995 67.662 8.62995 68.342 8.26995C69.022 7.88995 69.362 7.24995 69.362 6.34995C69.362 5.44995 69.022 4.81995 68.342 4.45995C67.662 4.07995 66.762 3.88995 65.642 3.88995H58.382V8.80995Z" fill="black"/>
    <path d="M77.8002 20V0.589952H90.9702C92.4702 0.589952 93.7702 0.799951 94.8702 1.21995C95.9902 1.61995 96.8602 2.25995 97.4802 3.13995C98.1002 3.99995 98.4102 5.10995 98.4102 6.46995C98.4102 7.38995 98.2502 8.16995 97.9302 8.80995C97.6102 9.44995 97.1602 9.96995 96.5802 10.37C96.0202 10.77 95.3702 11.08 94.6302 11.3C93.8902 11.5 93.1002 11.63 92.2602 11.69L91.8402 11.45C93.2402 11.47 94.3902 11.59 95.2902 11.81C96.1902 12.01 96.8602 12.39 97.3002 12.95C97.7602 13.49 97.9902 14.3 97.9902 15.38V20H94.0002V15.65C94.0002 14.91 93.8702 14.34 93.6102 13.94C93.3502 13.52 92.8802 13.23 92.2002 13.07C91.5402 12.91 90.5802 12.83 89.3202 12.83H81.7902V20H77.8002ZM81.7902 9.70995H90.9702C92.0902 9.70995 92.9402 9.43995 93.5202 8.89995C94.1202 8.35995 94.4202 7.62995 94.4202 6.70995C94.4202 5.82995 94.1202 5.15995 93.5202 4.69995C92.9402 4.23995 92.0902 4.00995 90.9702 4.00995H81.7902V9.70995Z" fill="black"/>
    <path d="M106.575 11.9V16.67H121.545V20H102.585V0.589952H121.515V3.91995H106.575V8.74995H118.815V11.9H106.575Z" fill="black"/>
</svg>