<svg xmlns="http://www.w3.org/2000/svg" width="81" height="89" viewBox="0 0 81 89" fill="none">
    <path d="M0.319336 79.1076C0.319336 79.0248 1.81406 78.9578 3.6579 78.9578H77.3447C79.1885 78.9578 80.6832 79.0248 80.6832 79.1076V81.5905C80.6832 81.6732 79.1885 81.7403 77.3447 81.7403H3.65789C1.81406 81.7403 0.319336 81.6732 0.319336 81.5905V79.1076Z" fill="#EEEEEE"/>
    <path d="M0.202148 85.8715C0.202148 85.7888 1.11971 85.7217 2.25158 85.7217H47.4856C48.6174 85.7217 49.535 85.7888 49.535 85.8715V88.3544C49.535 88.4371 48.6174 88.5042 47.4856 88.5042H2.25158C1.11971 88.5042 0.202148 88.4371 0.202148 88.3544V85.8715Z" fill="#EEEEEE"/>
    <rect width="81" height="69.8824" rx="12" fill="#EEEEEE"/>
    <circle cx="12.3084" cy="12.3088" r="5.95588" fill="#D9D9D9"/>
</svg>