<svg width="264" height="273" viewBox="0 0 264 273" fill="none" xmlns="http://www.w3.org/2000/svg">
<path d="M0.524491 266.311C31.5063 275.212 64.8535 275.446 95.6687 265.711C124.452 256.576 149.77 238.807 168.126 214.803C186.482 190.8 196.41 163.262 196.709 134.058C196.976 104.62 187.215 75.2158 169.059 52.0456C164.528 46.2448 159.465 40.8774 153.901 36.0433C148.338 31.2093 141.175 26.1751 133.313 26.0085C126.317 25.8751 120.254 30.1091 117.323 36.3433C114.258 42.911 114.824 50.1454 117.656 56.6797C123.852 70.8485 138.344 79.9832 152.402 85.0506C167.46 90.4847 183.817 91.9849 199.674 90.1847C231.289 86.5841 259.906 70.5151 281.56 47.5117C303.214 24.5083 317.239 -2.46242 325.8 -31.6334C334.362 -60.8044 336.727 -91.4423 333.163 -121.447C329.598 -151.451 320.071 -180.556 304.879 -206.693C301.148 -213.127 297.017 -219.261 292.687 -225.296C291.487 -226.962 288.722 -225.362 289.922 -223.695C306.678 -200.425 318.105 -173.354 324.335 -145.417C330.598 -117.38 331.897 -88.2085 327.4 -59.7709C322.869 -31.2 312.675 -3.52928 296.884 20.741C280.694 45.6114 258.107 66.9812 230.323 78.1162C202.539 89.2512 168.359 91.0181 141.608 75.8159C129.882 69.1482 114.991 55.2128 119.988 40.1106C122.386 32.9095 129.116 28.6422 136.645 30.4425C144.174 32.2427 150.17 37.7436 155.534 42.911C175.822 62.5472 188.481 89.6179 191.879 117.555C195.277 145.426 189.047 173.564 175.122 197.867C161.197 222.171 139.71 242.507 114.358 255.042C86.4408 268.845 54.2263 273.512 23.4777 269.411C15.8822 268.411 8.38655 266.844 1.0242 264.711C-0.0085252 264.411 -0.441608 266.044 0.59112 266.311L0.524491 266.311Z" fill="#2540E4"/>
</svg>
