<svg width="234" height="7" viewBox="0 0 234 7" fill="none" xmlns="http://www.w3.org/2000/svg">
<g clip-path="url(#clip0_532_1617)">
<path d="M215.262 0.840434C210.147 0.65608 205.032 0.520527 199.917 0.363284C198.229 0.309063 196.533 0.309063 194.846 0.281952C191.182 0.222308 187.518 0.168087 183.855 0.108443C181.817 0.0759101 179.771 0.0379551 177.734 0.0108443C177.139 0.00542215 176.554 0 175.959 0C174.63 0 173.301 0.0108443 171.972 0.0162665C165.93 0.0162665 159.879 0.0271108 153.837 0.0271108C152.395 0.0271108 150.961 0.0487994 149.518 0.0596437C145.951 0.0867544 142.392 0.119287 138.833 0.146398C134.811 0.178931 130.798 0.189775 126.775 0.254841C120.27 0.35244 113.774 0.455461 107.268 0.55306C103.5 0.612703 99.7399 0.645236 95.9713 0.737413C89.4835 0.900077 83.0043 1.05732 76.5165 1.21456C72.9753 1.30132 69.4253 1.3718 65.8841 1.49651C59.1776 1.72967 52.4712 1.9574 45.7647 2.19055C42.1798 2.31526 38.5949 2.40744 35.0187 2.59721C28.3385 2.94965 21.667 3.30209 14.9868 3.65453C13.5441 3.73044 12.1013 3.80635 10.6586 3.88226C7.77319 4.03408 4.90524 4.27266 2.02855 4.47328C1.84493 4.48954 1.67006 4.50581 1.48644 4.51665C1.14543 4.5763 0.8394 4.68474 0.585831 4.84198C0.20985 5.07514 -0.00874329 5.40046 -0.00874329 5.73122C-0.00874329 6.06197 0.20985 6.3873 0.585831 6.62587C0.926837 6.83734 1.52141 7.03253 2.02855 6.99458C5.49981 6.75058 8.96233 6.49574 12.4423 6.31139C15.6688 6.1433 18.8865 5.96979 22.1129 5.8017C25.6279 5.61735 29.1429 5.433 32.6579 5.24864C34.0744 5.17273 35.4908 5.07514 36.9161 5.02634C42.3984 4.83656 47.8807 4.65221 53.363 4.46785C56.7819 4.34857 60.2007 4.2347 63.6195 4.11541C65.0272 4.06661 66.4437 4.00697 67.8602 3.96902C73.29 3.83346 78.7286 3.70875 84.1585 3.58404C87.4549 3.50813 90.7425 3.4268 94.0389 3.35089C95.1494 3.32378 96.2511 3.29125 97.3616 3.27498C103.229 3.18823 109.096 3.10689 114.963 3.02556C118.242 2.97676 121.512 2.93338 124.791 2.88459C125.954 2.86832 127.125 2.84121 128.288 2.83579C134.339 2.79783 140.389 2.75988 146.44 2.72192C150.217 2.69481 153.986 2.67312 157.763 2.67854C164.19 2.68939 170.617 2.69481 177.035 2.70565C178.302 2.70565 179.57 2.73819 180.838 2.7653C184.388 2.83036 187.929 2.89543 191.479 2.9605C194.137 3.00929 196.795 3.05809 199.462 3.10689C201.351 3.13943 203.231 3.22618 205.119 3.29125C210.672 3.4756 216.224 3.6708 221.768 3.88226C223.175 3.93648 224.583 4.00155 225.991 4.06661C227.503 4.13168 229.016 4.20217 230.52 4.30519C230.756 4.32688 230.983 4.35399 231.219 4.38652C231.814 4.46243 232.382 4.44074 232.916 4.25097C233.405 4.07204 233.773 3.77382 233.93 3.43222C234.245 2.7165 233.545 1.95198 232.391 1.75136C231.377 1.57785 230.328 1.50736 229.287 1.44229C228.57 1.39892 227.862 1.35012 227.145 1.30674C225.772 1.21998 224.391 1.17661 223.018 1.11154C220.438 0.992254 217.85 0.921766 215.262 0.829589V0.840434Z" fill="#2540E4"/>
</g>
<defs>
<clipPath id="clip0_532_1617">
<rect width="234" height="7" fill="white"/>
</clipPath>
</defs>
</svg>
