<svg xmlns="http://www.w3.org/2000/svg" width="45" height="45" viewBox="0 0 45 45" fill="none">
    <path d="M14.7483 8.90697L14.8702 9.39196C12.7477 11.3625 11.8352 14.3876 11.4254 17.4081C11.1124 19.7122 11.0623 22.0348 10.7564 24.303C9.9966 29.9316 7.52756 35.3321 3.80404 39.5097C3.00428 40.4067 2.78196 41.6915 3.22364 42.8631C3.67324 44.0546 4.6734 44.7948 5.83404 44.7948H12.6955C16.6796 44.7948 20.4238 43.0376 22.9684 39.9735C23.1395 39.7675 23.3056 39.5556 23.4662 39.3374C24.5111 37.9191 25.2592 36.2881 25.8231 34.5907L37.0218 31.1343C38.825 30.5783 39.8881 28.5171 39.3961 26.5079C41.0631 26.4286 42.3276 25.9511 42.8068 25.1411C43.0492 24.7313 43.0642 24.2607 42.848 23.85C42.3494 22.9028 40.7004 22.3994 38.3772 22.451L38.0936 21.3232C40.3681 20.5623 41.6885 19.4442 41.9992 18.5094C42.1628 18.0176 42.0857 17.5456 41.7824 17.18C41.1068 16.3663 39.3831 16.2226 36.9415 16.7409L36.5767 15.29C39.7661 13.9702 41.7058 12.4501 41.9057 11.0356C41.9865 10.4645 41.7678 9.94423 41.3057 9.6084C40.2919 8.8709 38.0413 8.99285 35.3481 10.4043L34.9796 8.93879C37.0729 7.35539 38.3126 5.39911 37.8028 4.23626C37.4882 3.51888 36.5212 2.98877 33.7911 4.21198L33.5152 3.11472C33.01 1.10509 31.1324 -0.0704331 29.3162 0.490162L17.1176 4.25523C15.3028 4.81476 14.2426 6.89574 14.7483 8.90697ZM22.8204 38.7541C22.6704 38.9579 22.5152 39.1553 22.3551 39.3483C19.9678 42.223 16.4472 43.8716 12.6954 43.8716H5.83404C4.85588 43.8716 4.24148 43.1665 3.99268 42.507C3.7498 41.8633 3.72844 40.908 4.39692 40.1584C8.24372 35.8425 10.7949 30.2603 11.5804 24.4391C11.8897 22.1499 11.9433 19.8011 12.2494 17.5451C12.6083 14.9015 13.3644 12.2075 15.1224 10.3947L17.7251 20.7452C16.6886 21.6626 15.8096 22.8455 15.4172 24.3598C15.3536 24.605 15.4816 24.8607 15.7027 24.9309C15.9236 25.0008 16.1548 24.8597 16.218 24.615C16.8853 22.0405 19.2392 20.5087 21.0963 19.6769C23.5557 18.5756 25.248 17.8125 26.4156 17.2814C27.1122 16.9636 27.6956 17.3026 28.0104 17.7255C28.3245 18.147 28.5135 18.8452 28.1019 19.5408C27.132 21.1799 25.4701 22.7663 23.1622 24.2561C22.5551 24.6483 22.1564 25.3525 22.0953 26.1408C21.785 30.1622 21.0952 34.6071 17.864 36.7462C17.6665 36.877 17.6022 37.1605 17.7202 37.3792C17.8378 37.5969 18.0923 37.67 18.2917 37.5388C19.5336 36.7165 20.5864 35.3998 21.3493 33.7424C22.2469 34.8833 23.5888 35.2802 24.8232 34.8993L24.831 34.8969C24.3253 36.2776 23.6796 37.5877 22.8204 38.7541ZM42.1281 24.3147C42.17 24.3945 42.1967 24.4882 42.1098 24.6352C41.8589 25.059 40.8913 25.5537 39.1684 25.5979L38.6076 23.3674C40.9568 23.3458 41.9366 23.951 42.1281 24.3147ZM41.1687 17.8048C41.2342 17.8837 41.2855 17.9851 41.2173 18.1902C41.018 18.7893 39.9505 19.7439 37.8708 20.4373L37.1654 17.632C39.7078 17.1011 40.8714 17.4468 41.1687 17.8048ZM40.8484 10.3801C41.0946 10.5591 41.1028 10.7479 41.0824 10.8927C40.9851 11.5805 39.8222 12.9595 36.3529 14.4004L35.5748 11.306C38.1505 9.91994 40.1426 9.86747 40.8484 10.3801ZM37.0529 4.63927C37.2662 5.12559 36.4876 6.59954 34.7423 7.99531L34.016 5.10671C36.2048 4.11129 36.9523 4.41016 37.0529 4.63927ZM29.5398 1.37914C30.907 0.956186 32.3296 1.83993 32.7121 3.36262L38.588 26.7305C38.9702 28.2487 38.1696 29.8218 36.7979 30.2454L24.5992 34.0104C23.5504 34.334 22.3752 33.909 21.7436 32.7778C22.5071 30.6902 22.752 28.4666 22.9257 26.2193C22.9633 25.7302 23.2087 25.2947 23.5816 25.054C26.0023 23.4915 27.7576 21.8069 28.7988 20.0465C29.3424 19.1278 29.2851 17.9859 28.6528 17.1376C28.02 16.2879 27.0179 16.0101 26.0989 16.4275C24.9326 16.9576 23.2415 17.7208 20.784 18.8213C20.0389 19.1548 19.2201 19.5962 18.4442 20.1649L15.5511 8.65898C15.1688 7.14045 15.9696 5.56769 17.3412 5.14412L29.5398 1.37914Z" fill="black" stroke="black" stroke-width="0.3"/>
    <path d="M19.6564 13.654C19.8995 14.6198 20.8055 15.1696 21.6583 14.905L23.0995 14.46C23.9647 14.1933 24.4703 13.2016 24.229 12.2426L23.5674 9.61083C23.3264 8.65245 22.4315 8.0931 21.5657 8.35944L20.1243 8.80392C20.1241 8.80437 20.1241 8.80437 20.1241 8.80437C19.2609 9.07124 18.7542 10.0661 18.9945 11.0223L19.6564 13.654ZM20.3479 9.69334L21.7895 9.24885C22.2113 9.11892 22.6472 9.39155 22.7646 9.85882L23.4262 12.4906C23.5439 12.9588 23.2969 13.4408 22.8759 13.5712L21.4347 14.0161C21.0146 14.1455 20.5765 13.8723 20.4592 13.4061L19.7973 10.7744C19.6802 10.3087 19.9272 9.82363 20.3479 9.69334Z" fill="black" stroke="black" stroke-width="0.3"/>
    <path d="M30.7594 27.1113C30.8219 27.3603 31.0551 27.4999 31.2726 27.4317C31.4942 27.3637 31.6238 27.1089 31.5622 26.8633L30.4754 22.5406C30.4137 22.2949 30.1846 22.1516 29.9621 22.2201C29.7406 22.2882 29.611 22.5429 29.6726 22.7886L30.7594 27.1113Z" fill="black" stroke="black" stroke-width="0.3"/>
    <path d="M33.7318 26.1937C33.7944 26.4428 34.0276 26.5824 34.2451 26.5142C34.4666 26.4462 34.5962 26.1914 34.5346 25.9458L30.7562 10.9194C30.6946 10.6737 30.4653 10.53 30.243 10.5989C30.0214 10.667 29.8918 10.9217 29.9534 11.1674L33.7318 26.1937Z" fill="black" stroke="black" stroke-width="0.3"/>
</svg>