<svg xmlns="http://www.w3.org/2000/svg" width="14" height="14" viewBox="0 0 14 14" fill="none">
    <path d="M13 7.12712C12.8175 7.30923 12.5782 7.40663 12.339 7.40678C12.0993 7.40693 11.8439 7.30953 11.661 7.12712C11.4783 6.94486 11.2421 6.82203 11.0026 6.82203C10.7631 6.82203 10.5217 6.94486 10.339 7.12712C10.1591 7.30656 9.91369 7.40401 9.67796 7.40678C9.4348 7.40965 9.17703 7.3122 8.99152 7.12712C8.80882 6.94486 8.5705 6.82203 8.33103 6.82203C8.09159 6.82203 7.85218 6.94486 7.66948 7.12712C7.48854 7.30763 7.23929 7.40503 7.00214 7.40675C6.76041 7.40851 6.50647 7.31111 6.32203 7.12712C6.13971 6.94524 5.89994 6.84784 5.66101 6.84746C5.42106 6.84708 5.18307 6.94447 4.99999 7.12712C4.8147 7.31195 4.55637 7.4094 4.31355 7.40678C4.07749 7.40424 3.83264 7.30681 3.65253 7.12712C3.46992 6.94493 3.24774 6.84756 3.00847 6.84746M5.11864 2.01695C5.11864 1.45531 4.66333 1 4.10169 1C3.54006 1 3.08475 1.45531 3.08475 2.01695M10.9661 2.01695C10.9661 1.45531 10.5108 1 9.94915 1C9.38752 1 8.9322 1.45531 8.9322 2.01695M3.54237 13C2.13825 13 1 11.8617 1 10.4576V6.28814C1 4.88401 2.13825 3.74576 3.54237 3.74576H10.4576C11.8617 3.74576 13 4.88401 13 6.28814V10.4576C13 11.8617 11.8617 13 10.4576 13H3.54237Z" stroke="white" stroke-width="1.5" stroke-miterlimit="10" stroke-linecap="round" stroke-linejoin="round"/>
</svg>