<svg width="381" height="483" viewBox="0 0 381 483" fill="none" xmlns="http://www.w3.org/2000/svg">
<path d="M319.234 481.832L319.234 33.9975L75.7573 33.9975L19.0001 481.832L319.234 481.832Z" fill="#2540E4"/>
<path d="M1.03847 386.757C25.3183 393.733 51.4517 393.916 75.6009 386.287C98.1576 379.128 117.999 365.203 132.384 346.392C146.769 327.581 154.549 306 154.784 283.114C154.993 260.044 147.344 237 133.115 218.842C129.565 214.296 125.596 210.09 121.236 206.302C116.877 202.513 111.263 198.568 105.102 198.438C99.6196 198.333 94.8681 201.651 92.5707 206.537C90.1688 211.684 90.6126 217.353 92.8317 222.474C97.6877 233.578 109.044 240.736 120.062 244.708C131.862 248.966 144.681 250.142 157.108 248.731C181.884 245.909 204.31 233.317 221.28 215.289C238.249 197.262 249.241 176.126 255.95 153.265C262.66 130.404 264.513 106.394 261.72 82.8802C258.926 59.3664 251.46 36.558 239.555 16.0748C236.631 11.0324 233.393 6.22515 229.999 1.49627C229.06 0.189931 226.893 1.44399 227.833 2.75033C240.965 20.9866 249.919 42.2013 254.801 64.0953C259.71 86.0676 260.728 108.928 257.203 131.214C253.653 153.605 245.664 175.29 233.289 194.31C220.601 213.8 202.9 230.547 181.127 239.273C159.353 248 132.567 249.384 111.603 237.471C102.413 232.245 90.7431 221.324 94.6592 209.489C96.539 203.846 101.813 200.502 107.713 201.912C113.613 203.323 118.312 207.634 122.516 211.684C138.415 227.072 148.336 248.287 150.999 270.181C153.662 292.023 148.78 314.073 137.867 333.12C126.954 352.166 110.115 368.103 90.2471 377.927C68.3692 388.743 43.1234 392.401 19.0264 389.187C13.0739 388.403 7.1998 387.175 1.43009 385.503C0.62076 385.268 0.281363 386.548 1.09069 386.757L1.03847 386.757Z" fill="#F4F4F4"/>
<path d="M276.34 297.614C256.394 284.42 239.451 267.125 225.51 247.739C211.15 227.804 198.41 205.231 194.651 180.62C192.849 168.811 193.319 156.531 196.609 145.036C199.898 133.54 205.929 123.847 214.283 115.695C222.638 107.544 232.089 101.744 242.166 96.7015C253.314 91.1366 265.036 86.6428 276.915 82.8545C301.952 74.8337 328.111 70.3138 354.349 69.0336C357.586 68.8768 360.798 68.7723 364.035 68.6417C365.445 68.5894 365.445 66.4993 364.035 66.4471C337.144 65.402 309.888 69.5823 284.094 77.0544C271.458 80.7121 259.057 85.232 247.074 90.6663C236.501 95.4474 226.319 101.195 217.364 108.641C208.409 116.087 201.099 125.31 196.609 136.074C192.118 146.838 190.239 159.666 190.943 171.763C192.405 197.184 204.258 220.802 218.356 241.547C231.958 261.56 248.484 279.691 268.117 293.956C270.545 295.733 273.025 297.405 275.531 299.051C276.419 299.626 277.202 298.215 276.34 297.666L276.34 297.614Z" fill="#F4F4F4"/>
<path d="M19 481.834C19 481.834 319.234 174.169 319.234 175.031L319.234 216.284L19 481.834Z" fill="black"/>
<path d="M181 211.623L181 450.66L181 483L361 483C372.046 483 381 474.046 381 463L381 45L181 211.623Z" fill="url(#paint0_linear_532_1146)"/>
<path d="M260 176.998L260 227.207L260 234L333 234L333 142L260 176.998Z" fill="black"/>
<path d="M186 466C186 477.046 194.954 486 206 486H361C372.046 486 381 477.046 381 466V391H186V466Z" fill="black"/>
<path d="M159.943 456.916L145.129 435.453C133.285 418.315 131.099 397.021 137.959 378.47C140.007 372.934 142.842 367.668 146.476 362.806C148.262 360.406 150.232 358.117 152.411 355.938C164.587 343.761 180.519 337.655 196.503 337.634C212.415 337.614 228.367 343.668 240.525 355.825L250.779 366.08L159.943 456.916Z" fill="url(#paint1_linear_532_1146)"/>
<path d="M210.942 392.826C210.282 392.472 201.118 389.336 201.245 390.929C201.455 393.557 203.391 396.101 204.155 398.637C204.579 400.045 202.839 398.145 202.512 397.928C199.216 395.747 195.538 394.31 191.777 393.259C188.049 392.216 184.522 390.502 180.786 389.615C180.084 389.448 177.881 389.441 177.283 389.889C176.741 390.295 181.656 396.704 182.117 397.488C183.544 399.913 183.282 399.12 181.128 398.198C167.426 392.331 153.172 387.648 138.587 384.703" stroke="black" stroke-width="6" stroke-linecap="round"/>
<path d="M146.487 362.795C148.273 360.395 150.243 358.105 152.423 355.926C164.599 343.75 180.53 337.643 196.515 337.622C212.426 337.602 228.379 343.656 240.536 355.814L250.79 366.068L146.499 362.782L146.487 362.795Z" fill="black"/>
<path d="M317.329 357.634C316.368 341.7 319.103 325.672 326.02 311.228C327.97 307.167 330.23 303.241 332.64 299.424C333.263 298.449 331.76 297.623 331.11 298.53C326.359 305.109 322.839 312.568 320.28 320.258C317.749 327.852 316.246 335.785 315.84 343.772C315.61 348.401 315.732 353.031 316.314 357.62C316.395 358.256 317.37 358.283 317.329 357.62V357.634Z" fill="black"/>
<path d="M315.583 361.41C316.557 360.652 316.327 342.54 335.875 329.368C349.155 320.406 363.802 333.416 336.931 344.313C323.163 349.89 315.583 361.41 315.583 361.41Z" fill="black"/>
<path d="M313.038 337.667C316.287 347.806 316.476 358.433 316.801 360.896C316.097 358.297 312.036 346.615 294.275 338.926C284.353 334.621 282.769 327.378 285.557 322.667L286.112 321.815C289.185 317.74 295.832 316.156 302.831 321.517C307.894 325.388 311.048 331.426 313.038 337.653V337.667Z" fill="black"/>
<path d="M316.91 361.411C316.91 361.411 316.815 361.181 316.788 360.883C316.883 361.221 316.91 361.411 316.91 361.411Z" fill="black"/>
<path d="M328.822 294.483C328.727 294.551 319.346 279.335 331.191 278.063C343.036 276.79 334.792 295.309 334.792 295.309C334.792 295.309 342.129 276.79 348.316 286.659C354.502 296.527 337.323 298.991 337.323 298.991C337.323 298.991 354.272 298.653 349.196 309.685C344.106 320.718 334.941 314.369 331.895 304.433C331.895 304.433 329.039 319.446 319.712 312.014C310.385 304.595 326.453 298.991 326.453 298.991C326.453 298.991 309.099 302.253 312.699 290.584C316.3 278.915 328.836 294.483 328.836 294.483H328.822Z" fill="#4A7143"/>
<path d="M331.881 304.419C334.887 304.419 337.323 301.983 337.323 298.977C337.323 295.972 334.887 293.535 331.881 293.535C328.876 293.535 326.439 295.972 326.439 298.977C326.439 301.983 328.876 304.419 331.881 304.419Z" fill="#F4F4F4"/>
<path d="M297.456 410.876L284 356.632C284 356.632 342.968 357.918 342.968 357.945V410.889H297.456V410.876Z" fill="#4A7143"/>
<path d="M292.488 390.813L342.968 410.876H297.456L292.488 390.813Z" fill="black"/>
<path d="M197.881 148.892L163.09 114.547L63.5803 281.217H182.307L197.881 148.892Z" fill="url(#paint2_linear_532_1146)"/>
<path d="M218.821 94.7442L216.219 92.1421L178.416 129.945L188.083 139.612L197.75 149.279L218.821 128.209C228.062 118.968 228.062 103.985 218.821 94.7442Z" fill="url(#paint3_linear_532_1146)"/>
<path d="M217.368 93.2914L216.219 92.1421L178.416 129.945L162.833 114.362L183.904 93.2914C193.145 84.0505 208.127 84.0505 217.368 93.2914Z" fill="url(#paint4_linear_532_1146)"/>
<path d="M172.16 138.174L173.18 139.194C177.265 143.279 183.888 143.279 187.974 139.194L179.556 130.777L172.16 138.174Z" fill="#DF9238"/>
<path d="M172.16 124.911L172.925 124.146L179.556 130.777L172.16 138.174C168.497 134.511 168.497 128.573 172.16 124.911Z" fill="#DF9238"/>
<path d="M215.813 91.8436C217.383 93.2864 218.537 94.4407 219.98 96.1722C222.144 94.6543 224.014 93.4365 226.548 92.7901C234.409 90.7989 241.842 91.5838 248.324 96.8994C250.932 99.0406 252.871 101.747 253.916 105.02C255.278 106.734 255.486 108.806 255.734 110.872C255.763 111.172 255.786 111.472 255.815 111.772C256.582 113.325 256.444 114.981 256.352 116.632C256.38 117.255 256.427 117.873 256.427 118.496C256.427 137.282 256.432 156.068 256.427 174.86C256.427 176.389 256.38 177.925 256.352 179.454C256.369 179.835 256.386 180.21 256.398 180.591C256.398 180.984 256.409 181.37 256.415 181.763C256.398 182.438 256.375 183.107 256.357 183.783C256.473 190.691 256.502 197.6 256.34 204.508C256.363 204.745 257.088 233.258 257.112 233.5L262.612 234C262.623 233.521 261.95 204.381 261.95 203.902C261.95 177.255 261.95 150.603 261.95 123.956C261.95 123.338 261.84 122.703 262.111 122.109C261.933 121.538 261.933 120.972 262.106 120.401C261.806 118.675 261.927 116.944 262.013 115.212C262.002 114.906 261.985 114.606 261.973 114.3C261.529 113.764 261.557 113.198 261.886 112.615C261.875 112.257 261.858 111.905 261.846 111.547C260.951 110.306 261.084 108.829 260.923 107.426C260.894 107.224 260.865 107.017 260.83 106.815C260.351 106.457 260.178 105.989 260.299 105.406C260.057 104.858 259.855 104.298 259.884 103.681C259.561 103.617 259.364 103.467 259.457 103.098C259.099 102.169 258.741 101.239 258.389 100.316C257.748 100.01 257.419 99.4965 257.408 98.7866C257.367 98.6885 257.333 98.5846 257.292 98.4865C256.975 98.4346 256.761 98.2903 256.813 97.9267C256.594 97.6035 256.375 97.2803 256.155 96.9628C255.751 96.8647 255.624 96.5877 255.665 96.201C255.243 95.8893 254.891 95.5257 254.707 95.0236C254.355 94.9948 254.176 94.8216 254.216 94.4523C244.335 83.752 226.23 83.5846 215.813 91.8436Z" fill="black"/>
<defs>
<linearGradient id="paint0_linear_532_1146" x1="281" y1="45" x2="281" y2="483" gradientUnits="userSpaceOnUse">
<stop stop-color="#F69640"/>
<stop offset="1" stop-color="#DF3680"/>
</linearGradient>
<linearGradient id="paint1_linear_532_1146" x1="205.361" y1="411.498" x2="151.106" y2="357.243" gradientUnits="userSpaceOnUse">
<stop stop-color="#F59244"/>
<stop offset="1" stop-color="#E03B7D"/>
</linearGradient>
<linearGradient id="paint2_linear_532_1146" x1="182.493" y1="133.504" x2="101.206" y2="214.79" gradientUnits="userSpaceOnUse">
<stop stop-color="#7A88E7"/>
<stop offset="1" stop-color="#D9D9D9" stop-opacity="0"/>
</linearGradient>
<linearGradient id="paint3_linear_532_1146" x1="159.659" y1="128.214" x2="228.926" y2="107.427" gradientUnits="userSpaceOnUse">
<stop stop-color="#D70563"/>
<stop offset="1" stop-color="#EE8834"/>
</linearGradient>
<linearGradient id="paint4_linear_532_1146" x1="159.659" y1="128.214" x2="228.926" y2="107.427" gradientUnits="userSpaceOnUse">
<stop stop-color="#D70563"/>
<stop offset="1" stop-color="#EE8834"/>
</linearGradient>
</defs>
</svg>
