<svg width="45" height="45" viewBox="0 0 45 45" fill="none" xmlns="http://www.w3.org/2000/svg">
<mask id="path-1-inside-1_532_1575" fill="white">
<path d="M26.1952 37.3742C26.0231 37.1128 26.09 36.7673 26.3577 36.5993C26.6159 36.4312 26.9792 36.4966 27.1513 36.758L28.0117 38.0184L31.6639 34.5546C31.8933 34.3398 32.2566 34.3492 32.4765 34.5639C32.6964 34.788 32.6869 35.1428 32.467 35.3575L28.2316 39.3629C27.9639 39.531 27.6102 39.4656 27.4381 39.2042L26.1952 37.3742ZM28.5949 44.9181C25.9084 43.3963 23.7955 41.0435 22.6195 38.2332C21.6061 38.9988 20.4302 39.5776 19.1777 39.9138C15.0667 41.0155 10.6688 39.3629 8.36467 35.8617C7.01662 33.8077 6.45255 31.2588 7.01662 28.6819C7.01662 28.6632 7.02618 28.6445 7.02618 28.6259C7.60938 26.0583 9.18688 23.9576 11.2902 22.6318C13.4031 21.306 16.0227 20.7645 18.671 21.3247C23.1645 22.277 26.3482 26.1423 26.4055 30.5585L28.7383 29.9517C28.8435 29.9236 28.9487 29.9236 29.0443 29.9517L35.7558 31.7069C36.0044 31.7723 36.1765 31.9964 36.1765 32.2391L36.2052 33.0327C36.2052 37.9811 33.4899 42.4906 29.1781 44.9275C28.9869 45.0302 28.767 45.0208 28.5949 44.9181ZM22.2084 37.1221C22.0363 36.5619 21.8929 36.0017 21.7878 35.4135C21.3862 35.1334 20.9464 34.9094 20.478 34.7506C19.9617 34.5732 19.3976 34.4799 18.824 34.4799H14.3783C12.753 34.4799 11.252 35.2268 10.2959 36.4686C13.4414 39.7457 18.6806 40.0351 22.2084 37.1221ZM21.6061 34.0037C21.5583 33.4155 21.5583 32.8273 21.5966 32.2111C21.6061 31.9684 21.7878 31.7629 22.0172 31.7069L25.2487 30.8573C25.3443 26.8426 22.5048 23.276 18.4224 22.4171C16.0896 21.9222 13.7664 22.3984 11.9021 23.5748C10.0378 24.7512 8.63237 26.6092 8.12565 28.8966C7.61894 31.1747 8.10653 33.4435 9.31117 35.2642C9.38765 35.3762 9.46414 35.4882 9.54062 35.6003C10.6114 34.3398 12.1507 33.5369 13.8333 33.3968C11.2711 31.7069 10.9078 28.1497 13.0972 26.0023C15.0189 24.1256 18.1452 24.1256 20.0669 26.0023C22.2658 28.1497 21.9025 31.7069 19.3307 33.3968C20.1433 33.4529 20.8986 33.6583 21.6061 34.0037ZM24.4361 39.3256C25.5164 41.1462 27.0461 42.6867 28.8817 43.7884C32.8111 41.4356 35.1631 37.2528 35.0483 32.6779L28.8817 31.0627L22.7247 32.6779C22.6578 35.0214 23.241 37.3089 24.4361 39.3256ZM23.0689 16.1522V19.7095C23.0689 20.0176 22.8107 20.2697 22.4952 20.2697C22.1797 20.2697 21.9216 20.0176 21.9216 19.7095V16.1522C20.1051 16.2643 18.3555 16.9552 17.0935 18.1689C16.9788 18.2716 16.8354 18.3277 16.692 18.3277H13.4605C13.2884 18.3277 13.1354 18.253 13.0302 18.1409C12.3801 17.5247 11.5675 17.0205 10.6401 16.6657C8.13521 15.7228 5.06626 16.0309 2.91512 17.6087C2.46578 17.9355 1.84434 17.4967 2.03555 16.9739C5.0089 8.76702 12.8868 3.0904 21.9216 2.86632V0.560193C21.9216 0.252087 22.1797 0 22.4952 0C22.8107 0 23.0689 0.252087 23.0689 0.560193V2.86632C32.1037 3.09974 39.9912 8.76702 42.9645 16.9832C43.1557 17.4967 42.5343 17.9729 42.0563 17.5901C41.4253 17.1326 40.6891 16.7684 39.886 16.5164C37.1899 15.6761 33.9584 16.2269 31.9411 18.1689C31.8264 18.2716 31.683 18.3277 31.5396 18.3277H28.3081C28.136 18.3277 27.983 18.253 27.8779 18.1409C27.2278 17.5247 26.4151 17.0205 25.4877 16.6657C24.742 16.3856 23.9293 16.1989 23.0689 16.1522ZM15.124 14.7424C15.0953 15.0505 14.8181 15.2746 14.5026 15.2466C14.1871 15.2186 13.9576 14.9478 13.9863 14.6397C14.407 10.3822 16.778 6.58227 20.3154 4.08941C13.0111 4.84567 6.71069 9.35522 3.72778 15.8441C6.0032 14.8078 8.71841 14.7424 11.0512 15.62C12.0551 16.0028 12.9442 16.535 13.6899 17.2073H16.4721C17.2082 16.5444 18.0974 16.0028 19.1012 15.62C21.2619 14.8078 23.7381 14.8078 25.8988 15.62C26.9027 16.0028 27.7918 16.535 28.528 17.2073H31.3101C32.0463 16.5444 32.945 16.0028 33.9489 15.62C36.2816 14.7424 38.9969 14.8078 41.2723 15.8441C38.2894 9.36456 31.9889 4.84567 24.6846 4.08941C28.2221 6.58227 30.6026 10.3822 31.0138 14.6397C31.0424 14.9478 30.813 15.2186 30.4975 15.2466C30.182 15.2746 29.9047 15.0505 29.876 14.7424C29.4363 10.2329 26.6063 6.29283 22.5335 4.07074C22.5239 4.0614 22.5144 4.0614 22.5048 4.05206C22.4952 4.0614 22.4857 4.0614 22.4761 4.07074C18.3842 6.29283 15.5734 10.2235 15.124 14.7424ZM16.5964 25.7035C14.5121 25.7035 12.8199 27.3561 12.8199 29.3915C12.8199 31.4268 14.5121 33.0794 16.5964 33.0794C18.6806 33.0794 20.3728 31.4268 20.3728 29.3915C20.3728 27.3561 18.6806 25.7035 16.5964 25.7035Z"/>
</mask>
<path d="M26.1952 37.3742C26.0231 37.1128 26.09 36.7673 26.3577 36.5993C26.6159 36.4312 26.9792 36.4966 27.1513 36.758L28.0117 38.0184L31.6639 34.5546C31.8933 34.3398 32.2566 34.3492 32.4765 34.5639C32.6964 34.788 32.6869 35.1428 32.467 35.3575L28.2316 39.3629C27.9639 39.531 27.6102 39.4656 27.4381 39.2042L26.1952 37.3742ZM28.5949 44.9181C25.9084 43.3963 23.7955 41.0435 22.6195 38.2332C21.6061 38.9988 20.4302 39.5776 19.1777 39.9138C15.0667 41.0155 10.6688 39.3629 8.36467 35.8617C7.01662 33.8077 6.45255 31.2588 7.01662 28.6819C7.01662 28.6632 7.02618 28.6445 7.02618 28.6259C7.60938 26.0583 9.18688 23.9576 11.2902 22.6318C13.4031 21.306 16.0227 20.7645 18.671 21.3247C23.1645 22.277 26.3482 26.1423 26.4055 30.5585L28.7383 29.9517C28.8435 29.9236 28.9487 29.9236 29.0443 29.9517L35.7558 31.7069C36.0044 31.7723 36.1765 31.9964 36.1765 32.2391L36.2052 33.0327C36.2052 37.9811 33.4899 42.4906 29.1781 44.9275C28.9869 45.0302 28.767 45.0208 28.5949 44.9181ZM22.2084 37.1221C22.0363 36.5619 21.8929 36.0017 21.7878 35.4135C21.3862 35.1334 20.9464 34.9094 20.478 34.7506C19.9617 34.5732 19.3976 34.4799 18.824 34.4799H14.3783C12.753 34.4799 11.252 35.2268 10.2959 36.4686C13.4414 39.7457 18.6806 40.0351 22.2084 37.1221ZM21.6061 34.0037C21.5583 33.4155 21.5583 32.8273 21.5966 32.2111C21.6061 31.9684 21.7878 31.7629 22.0172 31.7069L25.2487 30.8573C25.3443 26.8426 22.5048 23.276 18.4224 22.4171C16.0896 21.9222 13.7664 22.3984 11.9021 23.5748C10.0378 24.7512 8.63237 26.6092 8.12565 28.8966C7.61894 31.1747 8.10653 33.4435 9.31117 35.2642C9.38765 35.3762 9.46414 35.4882 9.54062 35.6003C10.6114 34.3398 12.1507 33.5369 13.8333 33.3968C11.2711 31.7069 10.9078 28.1497 13.0972 26.0023C15.0189 24.1256 18.1452 24.1256 20.0669 26.0023C22.2658 28.1497 21.9025 31.7069 19.3307 33.3968C20.1433 33.4529 20.8986 33.6583 21.6061 34.0037ZM24.4361 39.3256C25.5164 41.1462 27.0461 42.6867 28.8817 43.7884C32.8111 41.4356 35.1631 37.2528 35.0483 32.6779L28.8817 31.0627L22.7247 32.6779C22.6578 35.0214 23.241 37.3089 24.4361 39.3256ZM23.0689 16.1522V19.7095C23.0689 20.0176 22.8107 20.2697 22.4952 20.2697C22.1797 20.2697 21.9216 20.0176 21.9216 19.7095V16.1522C20.1051 16.2643 18.3555 16.9552 17.0935 18.1689C16.9788 18.2716 16.8354 18.3277 16.692 18.3277H13.4605C13.2884 18.3277 13.1354 18.253 13.0302 18.1409C12.3801 17.5247 11.5675 17.0205 10.6401 16.6657C8.13521 15.7228 5.06626 16.0309 2.91512 17.6087C2.46578 17.9355 1.84434 17.4967 2.03555 16.9739C5.0089 8.76702 12.8868 3.0904 21.9216 2.86632V0.560193C21.9216 0.252087 22.1797 0 22.4952 0C22.8107 0 23.0689 0.252087 23.0689 0.560193V2.86632C32.1037 3.09974 39.9912 8.76702 42.9645 16.9832C43.1557 17.4967 42.5343 17.9729 42.0563 17.5901C41.4253 17.1326 40.6891 16.7684 39.886 16.5164C37.1899 15.6761 33.9584 16.2269 31.9411 18.1689C31.8264 18.2716 31.683 18.3277 31.5396 18.3277H28.3081C28.136 18.3277 27.983 18.253 27.8779 18.1409C27.2278 17.5247 26.4151 17.0205 25.4877 16.6657C24.742 16.3856 23.9293 16.1989 23.0689 16.1522ZM15.124 14.7424C15.0953 15.0505 14.8181 15.2746 14.5026 15.2466C14.1871 15.2186 13.9576 14.9478 13.9863 14.6397C14.407 10.3822 16.778 6.58227 20.3154 4.08941C13.0111 4.84567 6.71069 9.35522 3.72778 15.8441C6.0032 14.8078 8.71841 14.7424 11.0512 15.62C12.0551 16.0028 12.9442 16.535 13.6899 17.2073H16.4721C17.2082 16.5444 18.0974 16.0028 19.1012 15.62C21.2619 14.8078 23.7381 14.8078 25.8988 15.62C26.9027 16.0028 27.7918 16.535 28.528 17.2073H31.3101C32.0463 16.5444 32.945 16.0028 33.9489 15.62C36.2816 14.7424 38.9969 14.8078 41.2723 15.8441C38.2894 9.36456 31.9889 4.84567 24.6846 4.08941C28.2221 6.58227 30.6026 10.3822 31.0138 14.6397C31.0424 14.9478 30.813 15.2186 30.4975 15.2466C30.182 15.2746 29.9047 15.0505 29.876 14.7424C29.4363 10.2329 26.6063 6.29283 22.5335 4.07074C22.5239 4.0614 22.5144 4.0614 22.5048 4.05206C22.4952 4.0614 22.4857 4.0614 22.4761 4.07074C18.3842 6.29283 15.5734 10.2235 15.124 14.7424ZM16.5964 25.7035C14.5121 25.7035 12.8199 27.3561 12.8199 29.3915C12.8199 31.4268 14.5121 33.0794 16.5964 33.0794C18.6806 33.0794 20.3728 31.4268 20.3728 29.3915C20.3728 27.3561 18.6806 25.7035 16.5964 25.7035Z" fill="black" stroke="black" stroke-width="2" mask="url(#path-1-inside-1_532_1575)"/>
</svg>
