<svg xmlns="http://www.w3.org/2000/svg" width="16" height="19" viewBox="0 0 16 19" fill="none">
    <path d="M8.29686 18.604L8.0372 18.4888C7.7482 18.3619 1 15.3143 1 9.7954V5.01005C1.00026 4.54953 1.14581 4.10084 1.41592 3.72787C1.68604 3.35489 2.06695 3.07665 2.50441 2.93277L8.335 1L14.1656 2.93277C14.6031 3.07665 14.984 3.35489 15.2541 3.72787C15.5242 4.10084 15.6697 4.54953 15.67 5.01005V9.7954C15.67 16.0866 8.85725 18.4177 8.56679 18.5145L8.29686 18.604ZM8.335 2.53815L2.96871 4.31762C2.82271 4.36531 2.69554 4.45798 2.60541 4.58236C2.51529 4.70674 2.46684 4.85645 2.467 5.01005V9.7954C2.467 13.8252 7.19074 16.4394 8.36947 17.0284C9.54601 16.5553 14.203 14.3893 14.203 9.7954V5.01005C14.2032 4.85645 14.1547 4.70674 14.0646 4.58236C13.9745 4.45798 13.8473 4.36531 13.7013 4.31762L8.335 2.53815Z" fill="#55C94D" stroke="#55C94D" stroke-width="0.5"/>
    <path d="M7.68171 11.6601H7.6575C7.47185 11.6573 7.28869 11.6168 7.11912 11.5412C6.94955 11.4655 6.79709 11.3563 6.67094 11.22L4.97949 9.45963L6.03647 8.44593L7.68244 10.1623L11.4827 6.36206L12.5199 7.39923L8.66093 11.2582C8.5324 11.3866 8.37967 11.4883 8.21158 11.5572C8.0435 11.6262 7.8634 11.6612 7.68171 11.6601Z" fill="#55C94D" stroke="#55C94D" stroke-width="0.5"/>
</svg>