<svg xmlns="http://www.w3.org/2000/svg" width="45" height="45" viewBox="0 0 45 45" fill="none">
    <path d="M31.6406 0.703125C25.4391 0.703125 20.3906 5.75156 20.3906 11.9531C20.3906 13.9289 20.9109 15.8695 21.8883 17.5711L23.1047 16.868C22.2469 15.3773 21.7898 13.6828 21.7898 11.9531C21.7898 6.525 26.2055 2.10938 31.6336 2.10938C37.0617 2.10938 41.4773 6.525 41.4773 11.9531C41.4773 14.6813 40.3313 17.3109 38.3273 19.1742L39.2836 20.2078C41.5688 18.0844 42.8836 15.075 42.8836 11.9602C42.8836 5.75859 37.8352 0.710156 31.6336 0.710156L31.6406 0.703125Z" fill="black"/>
    <path d="M42.1875 30.9375C42.1875 23.5688 36.1969 17.5781 28.8281 17.5781C21.4594 17.5781 15.4688 23.5688 15.4688 30.9375C15.4688 38.3062 21.4594 44.2969 28.8281 44.2969C36.1969 44.2969 42.1875 38.3062 42.1875 30.9375ZM28.8281 42.8906C22.2398 42.8906 16.875 37.5258 16.875 30.9375C16.875 24.3492 22.2398 18.9844 28.8281 18.9844C35.4164 18.9844 40.7812 24.3492 40.7812 30.9375C40.7812 37.5258 35.4164 42.8906 28.8281 42.8906Z" fill="black"/>
    <path d="M32.3368 24.8977C31.1555 24.8977 30.0375 25.3617 29.2008 26.2125L28.8211 26.5922L28.4415 26.2125C27.6047 25.3617 26.4938 24.8977 25.3125 24.8977C24.1313 24.8977 23.0133 25.3687 22.1766 26.2125C20.461 27.9562 20.461 30.7828 22.1766 32.5266L23.0555 33.4195C23.0555 33.4195 23.0907 33.4547 23.1118 33.4758L28.3219 38.7492C28.4555 38.8828 28.6313 38.9602 28.8211 38.9602C29.011 38.9602 29.1868 38.8828 29.3204 38.7492L34.5868 33.4195L35.4657 32.5266C37.1813 30.7828 37.1813 27.9492 35.4657 26.2055C34.629 25.3547 33.518 24.8906 32.3297 24.8906L32.3368 24.8977ZM34.4672 31.5422L28.8282 37.2516L24.068 32.4281C24.068 32.4281 24.0329 32.393 24.0118 32.3719L23.1821 31.5352C22.0008 30.3398 22.0008 28.3922 23.1821 27.1898C23.7516 26.6133 24.511 26.2898 25.3125 26.2898C26.1141 26.2898 26.8735 26.6062 27.443 27.1828L28.3219 28.0687C28.4555 28.2023 28.6313 28.2797 28.8211 28.2797C29.011 28.2797 29.1868 28.2023 29.3204 28.0687L30.1993 27.1828C30.7688 26.6062 31.5282 26.2898 32.3297 26.2898C33.1383 26.2898 33.8907 26.6062 34.4602 27.1898C35.6415 28.3852 35.6415 30.3328 34.4602 31.5352L34.4672 31.5422Z" fill="black"/>
    <path d="M20.8125 4.35937C18.8508 2.88984 16.5164 2.10938 14.0625 2.10938C7.86094 2.10938 2.8125 7.15781 2.8125 13.3594C2.8125 19.5609 7.86094 24.6094 14.0625 24.6094C14.5617 24.6094 15.068 24.5742 15.5602 24.5109L15.3773 23.1188C14.9484 23.175 14.5055 23.2031 14.0625 23.2031C8.63438 23.2031 4.21875 18.7875 4.21875 13.3594C4.21875 7.93125 8.63438 3.51562 14.0625 3.51562C16.2141 3.51562 18.2531 4.19766 19.9688 5.48438L20.8125 4.35937Z" fill="black"/>
    <path d="M11.2219 10.793C11.2219 10.2094 10.7508 9.73828 10.1672 9.73828C9.58364 9.73828 9.11255 10.2094 9.11255 10.793C9.11255 11.3766 9.58364 11.8477 10.1672 11.8477C10.7508 11.8477 11.2219 11.3766 11.2219 10.793Z" fill="black"/>
    <path d="M19.0125 10.793C19.0125 10.2094 18.5414 9.73828 17.9578 9.73828C17.3742 9.73828 16.9031 10.2094 16.9031 10.793C16.9031 11.3766 17.3742 11.8477 17.9578 11.8477C18.5414 11.8477 19.0125 11.3766 19.0125 10.793Z" fill="black"/>
    <path d="M14.0625 18.6328C16.6008 18.6328 18.661 16.861 18.661 14.6813H17.2547C17.2547 16.0805 15.8204 17.2266 14.0625 17.2266C12.3047 17.2266 10.8704 16.0875 10.8704 14.6813H9.46411C9.46411 16.861 11.5243 18.6328 14.0625 18.6328Z" fill="black"/>
    <path d="M34.207 5.24526C33.8273 5.05542 33.3773 5.03433 32.9766 5.18198C32.5758 5.33667 32.2523 5.65308 32.0977 6.04683L31.3805 7.83979C31.275 8.10698 31.0148 8.28276 30.7266 8.28276H30.2695C30.2695 7.89604 29.9531 7.57964 29.5664 7.57964H26.7539C26.3672 7.57964 26.0508 7.89604 26.0508 8.28276V13.9078C26.0508 14.2945 26.3672 14.6109 26.7539 14.6109H29.5664C29.9391 14.6109 30.2344 14.3226 30.2625 13.957L30.8883 14.4562C31.0148 14.5546 31.1695 14.6109 31.3242 14.6109H35.2969C35.9859 14.6109 36.5695 14.1187 36.682 13.4367L37.1953 10.35C37.2867 9.78745 37.1039 9.21089 36.6961 8.80308C36.3586 8.46558 35.9156 8.28276 35.4445 8.28276H34.6781L35.0016 6.98901C35.1773 6.28589 34.8469 5.5687 34.2 5.24526H34.207ZM28.8633 13.2046H27.457V8.98589H28.8633V13.2046ZM35.4516 9.68901C35.55 9.68901 35.6414 9.72417 35.7117 9.79448C35.7961 9.87886 35.8313 9.99839 35.8172 10.1179L35.3039 13.2046H31.5773L30.2766 12.164V9.68901H30.7336C31.5984 9.68901 32.3719 9.1687 32.6953 8.36011L33.4125 6.56714C33.4266 6.52495 33.4617 6.50386 33.4828 6.49683C33.5039 6.48979 33.5461 6.48276 33.5883 6.49683C33.6445 6.52495 33.6727 6.5812 33.6586 6.64448L33.1172 8.81011C33.068 9.02104 33.1172 9.24605 33.2438 9.4148C33.3773 9.58355 33.5813 9.68198 33.7992 9.68198H35.4656L35.4516 9.68901Z" fill="black"/>
</svg>