<svg xmlns="http://www.w3.org/2000/svg" width="16" height="16" viewBox="0 0 16 16" fill="none">
    <g clip-path="url(#clip0_560_58)">
        <path d="M16 8.00005L14.1887 5.98906L14.4723 3.29683L11.8237 2.73615L10.4727 0.38916L8.00001 1.49429L7.66626 8.00005L8.00001 14.5058L10.4727 15.6109L11.8237 13.2639L14.4723 12.7032L14.1887 10.011L16 8.00005Z" fill="#72D66B"/>
        <path d="M5.52725 0.38916L4.17626 2.73615L1.52768 3.29687L1.81127 5.98906L0 8.00005L1.81127 10.011L1.52768 12.7032L4.17626 13.2639L5.52728 15.6109L8.00002 14.5058V1.49429L5.52725 0.38916Z" fill="#55C94D"/>
        <path d="M11.3538 6.24833L10.6535 5.62329L8.00003 8.59617L7.66628 9.33498L8.00003 10.0058L11.3538 6.24833Z" fill="#F7F0EB" stroke="white" stroke-width="0.5"/>
        <path d="M5.21137 7.29321L4.54768 7.95693L7.33812 10.7474L8.00002 10.0058V8.59624L7.29939 9.3812L5.21137 7.29321Z" fill="#FFFBF5" stroke="white" stroke-width="0.5"/>
    </g>
    <defs>
        <clipPath id="clip0_560_58">
            <rect width="16" height="16" fill="white"/>
        </clipPath>
    </defs>
</svg>