<svg width="22" height="15" viewBox="0 0 22 15" fill="none" xmlns="http://www.w3.org/2000/svg">
<path d="M21.5403 2.34699C21.2873 1.42316 20.5418 0.695586 19.5953 0.448672C17.8796 0 11 0 11 0C11 0 4.12044 0 2.40474 0.448672C1.45821 0.695625 0.71273 1.42316 0.459711 2.34699C0 4.02148 0 7.51516 0 7.51516C0 7.51516 0 11.0088 0.459711 12.6833C0.71273 13.6071 1.45821 14.3044 2.40474 14.5513C4.12044 15 11 15 11 15C11 15 17.8796 15 19.5953 14.5513C20.5418 14.3044 21.2873 13.6071 21.5403 12.6833C22 11.0088 22 7.51516 22 7.51516C22 7.51516 22 4.02148 21.5403 2.34699ZM8.74998 10.6871V4.34316L14.5 7.51523L8.74998 10.6871Z" fill="#2540E4"/>
</svg>
