<svg xmlns="http://www.w3.org/2000/svg" width="18" height="18" viewBox="0 0 18 18" fill="none">
    <g clip-path="url(#clip0_4828_861)">
        <path d="M7.99629 2.09994L7.99629 2.09994L3.58696 4.64516C3.49724 4.70193 3.41197 4.76539 3.33187 4.83499L7.80382 7.41649L7.99629 2.09994ZM7.99629 2.09994C8.32241 1.91166 8.69234 1.81253 9.0689 1.81253C9.44547 1.81253 9.8154 1.91166 10.1415 2.09994L10.1665 2.05664M7.99629 2.09994L10.1665 2.05664M10.1665 2.05664L10.1415 2.09994L14.5508 4.64516M10.1665 2.05664L14.5508 4.64516M2.55006 6.18966L7.02211 8.77122L7.02238 8.77138C7.41541 8.99494 7.84287 9.15137 8.28716 9.23432V16.1258C8.18687 16.0915 8.08934 16.0494 7.99545 16.0001L3.58616 13.4541L2.55006 6.18966ZM2.55006 6.18966C2.52984 6.29345 2.51761 6.39867 2.51348 6.50439V11.5948C2.51382 11.9715 2.61308 12.3415 2.80133 12.6678C2.98956 12.9941 3.26018 13.2652 3.58609 13.4541L2.55006 6.18966ZM11.1157 8.77122L11.1154 8.77138C10.7224 8.99494 10.2949 9.15137 9.85065 9.23432V16.1258C9.95094 16.0915 10.0485 16.0494 10.1424 16.0001L14.5516 13.4541L11.1157 8.77122ZM11.1157 8.77122L15.5877 6.18966C15.608 6.29345 15.6202 6.39867 15.6243 6.50439V11.5948C15.624 11.9715 15.5247 12.3415 15.3365 12.6678M11.1157 8.77122L15.3365 12.6678M14.5508 4.64516C14.6406 4.70193 14.7258 4.76539 14.8059 4.83499L10.334 7.41649C9.94926 7.63828 9.51298 7.75503 9.0689 7.75503C8.62483 7.75503 8.18857 7.63828 7.80384 7.41651L14.5508 4.64516ZM15.3365 12.6678C15.1482 12.9941 14.8776 13.2652 14.5517 13.4541L15.3365 12.6678ZM15.3335 3.29173L15.3335 3.29169L10.9233 0.74523L10.9232 0.745186C10.359 0.420778 9.71967 0.250049 9.0689 0.250049C8.41814 0.250049 7.77877 0.420778 7.21463 0.745186L7.21455 0.74523L2.80435 3.29169L2.80428 3.29173C2.24123 3.61802 1.77365 4.08634 1.44826 4.64991C1.12287 5.21349 0.951065 5.85258 0.95 6.50334V6.50342L0.95 11.5963L0.95 11.5964C0.951085 12.2473 1.12289 12.8865 1.44827 13.4501C1.77365 14.0138 2.24121 14.4823 2.80427 14.8088L2.80436 14.8088L7.21456 17.3545L7.21461 17.3546C7.77868 17.6792 8.41809 17.85 9.0689 17.85C9.71972 17.85 10.3591 17.6792 10.9232 17.3546L10.9233 17.3545L15.3335 14.8088L15.3335 14.8088C15.8966 14.4823 16.3642 14.0138 16.6895 13.4501C17.0149 12.8865 17.1867 12.2473 17.1878 11.5964V11.5963V6.50342V6.50334C17.1867 5.85258 17.0149 5.21349 16.6895 4.64991C16.3642 4.08634 15.8966 3.61802 15.3335 3.29173Z" fill="black" stroke="black" stroke-width="0.1"/>
    </g>
    <defs>
        <clipPath id="clip0_4828_861">
            <rect width="18" height="18" fill="white"/>
        </clipPath>
    </defs>
</svg>