<svg width="18" height="18" viewBox="0 0 18 18" fill="none" xmlns="http://www.w3.org/2000/svg">
<path d="M11.1757 0.269336C6.35533 -0.93277 1.47171 2.00189 0.270525 6.82361C-0.932039 11.6444 2.00217 16.528 6.82205 17.7306C11.6438 18.9332 16.5274 15.9985 17.729 11.1772C18.9316 6.35551 15.9974 1.47144 11.1757 0.269336ZM7.14756 6.07172C7.15994 5.86174 7.0875 5.59721 6.68726 5.49726C6.70285 5.48717 5.97022 5.31892 5.97022 5.31892L6.23338 4.26444L7.59503 4.60462L7.59411 4.61012C7.79859 4.66055 8.00949 4.70915 8.22497 4.75821L8.62979 3.1366L9.61642 3.3828L9.21984 4.97277C9.48438 5.03329 9.75121 5.09427 10.0107 5.15891L10.4045 3.57948L11.3921 3.82568L10.9877 5.44774C12.2343 5.87733 13.1462 6.52102 12.9669 7.71854C12.8372 8.59514 12.3512 9.01968 11.7061 9.16822C12.5919 9.62944 13.0426 10.3369 12.613 11.5633C12.0802 13.0863 10.8139 13.2147 9.12998 12.896L8.72149 14.5337L7.73395 14.2875L8.1374 12.6723C7.88158 12.6086 7.61979 12.5412 7.35067 12.4678L6.94583 14.0908L5.95921 13.8446L6.36817 12.2037C6.13756 12.1446 5.90328 12.0823 5.66396 12.0222L4.37887 11.7017L4.86897 10.5716C4.86897 10.5716 5.59656 10.7651 5.58694 10.7509C5.8666 10.8196 5.99039 10.6376 6.03945 10.5161L7.14756 6.07172Z" fill="black"/>
</svg>
