<svg width="20" height="15" viewBox="0 0 20 15" fill="none" xmlns="http://www.w3.org/2000/svg">
<path d="M5.125 11.5C5.74632 11.5 6.25 10.9963 6.25 10.375C6.25 9.75368 5.74632 9.25 5.125 9.25C4.50368 9.25 4 9.75368 4 10.375C4 10.9963 4.50368 11.5 5.125 11.5Z" fill="black" stroke="black" stroke-width="0.3"/>
<path d="M15.25 1H4.75C3.7558 1.00119 2.80267 1.39666 2.09966 2.09966C1.39666 2.80267 1.00119 3.7558 1 4.75L1 10.75C1.00119 11.7442 1.39666 12.6973 2.09966 13.4003C2.80267 14.1033 3.7558 14.4988 4.75 14.5H15.25C16.2442 14.4988 17.1973 14.1033 17.9003 13.4003C18.6033 12.6973 18.9988 11.7442 19 10.75V4.75C18.9988 3.7558 18.6033 2.80267 17.9003 2.09966C17.1973 1.39666 16.2442 1.00119 15.25 1ZM4.75 2.5H15.25C15.8467 2.5 16.419 2.73705 16.841 3.15901C17.2629 3.58097 17.5 4.15326 17.5 4.75H2.5C2.5 4.15326 2.73705 3.58097 3.15901 3.15901C3.58097 2.73705 4.15326 2.5 4.75 2.5ZM15.25 13H4.75C4.15326 13 3.58097 12.7629 3.15901 12.341C2.73705 11.919 2.5 11.3467 2.5 10.75V6.25H17.5V10.75C17.5 11.3467 17.2629 11.919 16.841 12.341C16.419 12.7629 15.8467 13 15.25 13Z" fill="black" stroke="black" stroke-width="0.3"/>
</svg>
