<svg width="20" height="20" viewBox="0 0 20 20" fill="none" xmlns="http://www.w3.org/2000/svg">
<path d="M13.375 1C10.2205 1 7.75 2.48275 7.75 4.375V6.31525C7.38775 6.2725 7.01125 6.25 6.625 6.25C3.4705 6.25 1 7.73275 1 9.625V15.625C1 17.5173 3.4705 19 6.625 19C9.18025 19 11.287 18.0273 11.995 16.6517C12.4435 16.717 12.9055 16.75 13.375 16.75C16.5295 16.75 19 15.2673 19 13.375V4.375C19 2.48275 16.5295 1 13.375 1ZM17.5 10.375C17.5 11.26 15.736 12.25 13.375 12.25C12.991 12.25 12.6145 12.2238 12.25 12.1728V10.6847C12.6175 10.7275 12.994 10.75 13.375 10.75C15.0205 10.75 16.48 10.3465 17.5 9.69175V10.375ZM2.5 11.9417C3.52 12.5965 4.9795 13 6.625 13C8.2705 13 9.73 12.5965 10.75 11.9417V12.625C10.75 13.51 8.986 14.5 6.625 14.5C4.264 14.5 2.5 13.51 2.5 12.625V11.9417ZM17.5 7.375C17.5 8.26 15.736 9.25 13.375 9.25C12.9738 9.25 12.58 9.2215 12.2005 9.166C12.0557 8.50075 11.6005 7.903 10.921 7.42375C11.659 7.63375 12.49 7.75 13.375 7.75C15.0205 7.75 16.48 7.3465 17.5 6.69175V7.375ZM13.375 2.5C15.736 2.5 17.5 3.49 17.5 4.375C17.5 5.26 15.736 6.25 13.375 6.25C11.014 6.25 9.25 5.26 9.25 4.375C9.25 3.49 11.014 2.5 13.375 2.5ZM6.625 7.75C8.986 7.75 10.75 8.74 10.75 9.625C10.75 10.51 8.986 11.5 6.625 11.5C4.264 11.5 2.5 10.51 2.5 9.625C2.5 8.74 4.264 7.75 6.625 7.75ZM6.625 17.5C4.264 17.5 2.5 16.51 2.5 15.625V14.9418C3.52 15.5965 4.9795 16 6.625 16C8.2705 16 9.73 15.5965 10.75 14.9418V15.625C10.75 16.51 8.986 17.5 6.625 17.5ZM13.375 15.25C12.991 15.25 12.6145 15.2237 12.25 15.1727V13.6847C12.6175 13.7275 12.994 13.75 13.375 13.75C15.0205 13.75 16.48 13.3465 17.5 12.6917V13.375C17.5 14.26 15.736 15.25 13.375 15.25Z" fill="black" stroke="black" stroke-width="0.2"/>
</svg>
