<svg width="16" height="16" viewBox="0 0 16 16" fill="none" xmlns="http://www.w3.org/2000/svg">
<path d="M2.27595 4.5386C0.772426 6.59243 0.916602 9.98019 2.21416 12.0975C3.30576 13.8761 4.93285 15.2736 6.95128 15.7817C9.77296 16.5016 12.6358 15.4006 14.3865 13.0715C15.9106 11.06 16.2608 8.75212 15.8282 6.27482C15.4575 4.17865 14.057 2.40007 12.3475 1.2567C10.432 -0.0348788 8.04288 -0.246617 5.83908 0.240374C3.77947 0.706191 1.90522 2.0613 0.81362 3.90339C-0.277977 5.74549 -0.277976 8.54039 0.854813 10.4248C1.78164 11.9705 3.0792 13.0292 4.76808 13.5585C7.56916 14.4478 10.5968 12.7327 11.6884 10.0649C12.1827 8.85799 12.3887 7.41819 11.9767 6.14778C11.5442 4.75033 10.638 3.16232 9.27865 2.54829L9.15507 2.48477L10.3497 3.43757C10.3497 3.43757 10.2055 3.33171 10.1643 3.24701L11.0911 4.47507L11.0293 4.34803L11.6266 5.78783L11.5854 5.63962L11.7914 7.24881V7.10059C11.709 7.62993 11.6472 8.18044 11.5648 8.70977V8.58274C11.4001 9.06973 11.1941 9.55672 10.9881 10.0225L11.0499 9.89549L10.1231 11.1236L10.2261 11.0177L9.03149 11.9705C9.23745 11.8223 9.44342 11.6952 9.69057 11.5894L8.26943 12.2034C8.57838 12.0764 8.86673 11.9917 9.17567 11.9493L7.61036 12.1611C7.85751 12.1611 8.10467 12.1611 8.35182 12.1611L6.78651 11.9493C6.97187 11.9917 7.13665 12.034 7.32201 12.0975L5.90088 11.4835C6.06565 11.5682 6.23042 11.6529 6.37459 11.7588L5.18001 10.806C5.32418 10.9118 5.42717 11.0177 5.53015 11.1659L4.60332 9.93784C4.6857 10.0649 4.76809 10.1919 4.82988 10.3613L4.23259 8.90034C4.31497 9.11207 4.35616 9.30264 4.37676 9.51437L4.1708 7.88401C4.1708 8.0534 4.1708 8.20161 4.1708 8.371L4.37676 6.74064C4.35616 6.95238 4.29437 7.14294 4.21198 7.35467L4.80928 5.8937C4.74749 6.04191 4.6651 6.14778 4.58272 6.296L5.50955 5.06793C5.50955 5.06793 5.38597 5.21615 5.30359 5.27967L6.49816 4.32686C6.37458 4.43273 6.25101 4.49625 6.10684 4.55977L7.52797 3.94574C7.52797 3.94574 7.34261 4.00926 7.23963 4.00926L8.82553 3.79752C8.82553 3.79752 8.61957 3.79752 8.53719 3.79752L10.1231 4.00926C10.1231 4.00926 9.93773 3.96691 9.83475 3.92457L11.2559 4.5386C11.1117 4.47508 10.9881 4.41155 10.8646 4.30569L12.0591 5.2585C11.9356 5.15263 11.8326 5.04676 11.7296 4.91972L12.6564 6.14778C12.5534 6.02074 12.4917 5.8937 12.4299 5.74549L13.0272 7.20646C12.9654 7.05824 12.9448 6.9312 12.9036 6.78299L13.1095 8.41335C13.1095 8.41335 13.1095 8.22279 13.1095 8.11692L12.9036 9.74728C12.9036 9.74728 12.9448 9.55672 12.986 9.47202L12.3887 10.933C12.3887 10.933 12.4917 10.7636 12.5534 10.6789C13.4185 9.51437 13.5215 7.31233 13.1507 5.95722C12.78 4.5386 11.709 2.99293 10.4114 2.29421C9.03149 1.55313 7.34261 1.17201 5.81849 1.68017L4.39735 2.29421C3.51171 2.84472 2.79085 3.56461 2.25535 4.49625L2.27595 4.5386Z" fill="#2540E4"/>
</svg>
