<svg xmlns="http://www.w3.org/2000/svg" width="20" height="20" viewBox="0 0 20 20" fill="none">
    <circle cx="10" cy="10" r="10" fill="#2540E4"/>
    <path d="M6.24 13.76C6.316 13.8361 6.40624 13.8964 6.50558 13.9376C6.60493 13.9788 6.71141 14 6.81895 14C6.92648 14 7.03297 13.9788 7.13231 13.9376C7.23165 13.8964 7.3219 13.8361 7.39789 13.76L10.0001 11.1578L12.6023 13.76C12.7558 13.9136 12.9641 13.9998 13.1812 13.9998C13.3984 13.9998 13.6066 13.9136 13.7602 13.76C13.9137 13.6065 14 13.3982 14 13.1811C14 12.9639 13.9137 12.7557 13.7602 12.6021L11.158 9.99991L13.7602 7.39771C13.9137 7.24416 14 7.03591 14 6.81876C14 6.60161 13.9137 6.39336 13.7602 6.23981C13.6066 6.08626 13.3984 6 13.1812 6C12.9641 6 12.7558 6.08626 12.6023 6.23981L10.0001 8.84201L7.39789 6.23981C7.32187 6.16378 7.23161 6.10347 7.13227 6.06232C7.03293 6.02118 6.92647 6 6.81895 6C6.71143 6 6.60496 6.02118 6.50562 6.06232C6.40628 6.10347 6.31603 6.16378 6.24 6.23981C6.08645 6.39336 6.00019 6.60161 6.00019 6.81876C6.00019 7.03591 6.08645 7.24416 6.24 7.39771L8.8422 9.99991L6.24 12.6021C6.16391 12.6781 6.10356 12.7684 6.06238 12.8677C6.0212 12.967 6 13.0735 6 13.1811C6 13.2886 6.0212 13.3951 6.06238 13.4944C6.10356 13.5938 6.16391 13.684 6.24 13.76Z" fill="white"/>
</svg>