<svg xmlns="http://www.w3.org/2000/svg" width="24" height="20" viewBox="0 0 24 20" fill="none">
    <path d="M15.1296 0.978702L15.1296 0.97871C15.5463 1.23221 15.6782 1.77496 15.4251 2.19088L5.38701 18.6956L5.387 18.6956C5.24604 18.9273 5.00705 19.0809 4.73823 19.1133C4.70245 19.1177 4.66712 19.1196 4.6328 19.1196C4.40037 19.1196 4.17523 19.028 4.00889 18.8612C4.00883 18.8612 4.00877 18.8611 4.00872 18.8611L1.32352 16.1759C0.978618 15.8315 0.978618 15.2722 1.32352 14.9279M15.1296 0.978702L9.30046 0.978691C8.88418 1.23173 8.75184 1.77494 9.00493 2.19088L11.1824 5.77116L4.46278 16.8195L2.57126 14.9279C2.22651 14.5832 1.66826 14.5831 1.32352 14.9279M15.1296 0.978702C14.7142 0.726061 14.1705 0.857873 13.9174 1.27423C13.9174 1.27424 13.9174 1.27425 13.9174 1.27426L12.215 4.07322M15.1296 0.978702L12.215 4.07322M1.32352 14.9279C1.32349 14.9279 1.32346 14.9279 1.32342 14.928L1.4295 15.034L1.32352 14.9279ZM12.215 4.07322L10.5126 1.27423L10.5125 1.27411C10.2588 0.857895 9.71623 0.72511 9.30048 0.978682L12.215 4.07322Z" fill="black" stroke="black" stroke-width="0.3"/>
    <path d="M19.0429 18.6962L19.0428 18.696L12.8194 8.46363C12.608 8.116 12.6615 7.66929 12.9492 7.38146L19.0429 18.6962ZM19.0429 18.6962C19.1838 18.9273 19.4227 19.0814 19.6917 19.1137L19.7096 18.9648L19.6913 19.1137C19.7271 19.1181 19.7621 19.12 19.797 19.12C20.0297 19.12 20.2543 19.0283 20.4209 18.8616L23.1064 16.1762L23.1065 16.1761M19.0429 18.6962L23.1065 16.1761M23.1065 16.1761C23.4507 15.831 23.4509 15.2724 23.1061 14.928L23.1065 16.1761ZM21.8583 14.928C22.203 14.5832 22.7612 14.5832 23.106 14.9279L21.8583 14.928ZM21.8583 14.928L19.9668 16.8195L14.3271 7.54667C14.3271 7.54666 14.3271 7.54665 14.3271 7.54663C14.03 7.05797 13.3535 6.9768 12.9493 7.3814L21.8583 14.928Z" fill="black" stroke="black" stroke-width="0.3"/>
    <path d="M14.6422 14.8415H9.91293C9.42567 14.8415 9.03066 15.2365 9.03066 15.7237V18.2733C9.03066 18.7606 9.42567 19.1556 9.91293 19.1556C10.4002 19.1556 10.7952 18.7606 10.7952 18.2733V16.606H13.7598V18.2733C13.7598 18.7606 14.1549 19.1556 14.6421 19.1556C15.1294 19.1556 15.5244 18.7606 15.5244 18.2733V15.7238C15.5244 15.7238 15.5244 15.7237 15.5244 15.7237C15.5245 15.2364 15.1294 14.8415 14.6422 14.8415Z" fill="black" stroke="black" stroke-width="0.3"/>
</svg>