<svg width="139" height="23" viewBox="0 0 139 23" fill="none" xmlns="http://www.w3.org/2000/svg">
<g id="DOBRE">
<path d="M12.7265 0.44428C15.2259 0.44428 17.3126 0.740466 18.9865 1.33284C20.6605 1.92521 21.9904 2.73403 22.9765 3.75929C23.9854 4.76176 24.6963 5.92372 25.109 7.24517C25.5447 8.56662 25.7625 9.95641 25.7625 11.4146C25.7625 12.8727 25.5218 14.2739 25.0402 15.6181C24.5816 16.9624 23.8364 18.1585 22.8045 19.2065C21.7955 20.2318 20.4541 21.052 18.7802 21.6672C17.1292 22.2595 15.1113 22.5557 12.7265 22.5557H0V0.44428H12.7265ZM4.57465 18.6597H12.6233C14.2743 18.6597 15.6387 18.4661 16.7164 18.0788C17.8171 17.6686 18.6884 17.1218 19.3305 16.4383C19.9726 15.7548 20.4312 14.9802 20.7063 14.1144C20.9815 13.2486 21.1191 12.3487 21.1191 11.4146C21.1191 10.4804 20.9815 9.59188 20.7063 8.74889C20.4312 7.90589 19.9726 7.15404 19.3305 6.49331C18.6884 5.83259 17.8171 5.30857 16.7164 4.92125C15.6387 4.53393 14.2743 4.34027 12.6233 4.34027H4.57465V18.6597Z" fill="white"/>
<path d="M43.4732 23C40.5151 23 37.9813 22.5443 35.8717 21.633C33.785 20.6989 32.1799 19.3774 31.0563 17.6686C29.9556 15.9599 29.4053 13.9094 29.4053 11.5171C29.4053 9.10203 29.9556 7.04012 31.0563 5.33135C32.1799 3.62258 33.785 2.31253 35.8717 1.40119C37.9813 0.467063 40.5151 0 43.4732 0C46.4542 0 48.988 0.467063 51.0747 1.40119C53.1614 2.31253 54.755 3.62258 55.8557 5.33135C56.9793 7.04012 57.5411 9.10203 57.5411 11.5171C57.5411 13.9094 56.9793 15.9599 55.8557 17.6686C54.755 19.3774 53.1614 20.6989 51.0747 21.633C48.988 22.5443 46.4542 23 43.4732 23ZM43.4732 19.0698C45.3076 19.0698 46.9128 18.7964 48.2886 18.2496C49.6874 17.7028 50.7766 16.8712 51.5562 15.7548C52.3588 14.6384 52.7601 13.2259 52.7601 11.5171C52.7601 9.80832 52.3588 8.39574 51.5562 7.27935C50.7766 6.16295 49.6874 5.33135 48.2886 4.78455C46.9128 4.21496 45.3076 3.93016 43.4732 3.93016C41.6617 3.93016 40.0451 4.21496 38.6234 4.78455C37.2017 5.33135 36.0895 6.16295 35.287 7.27935C34.4844 8.39574 34.0831 9.80832 34.0831 11.5171C34.0831 13.2259 34.4844 14.6384 35.287 15.7548C36.0895 16.8712 37.2017 17.7028 38.6234 18.2496C40.0451 18.7964 41.6617 19.0698 43.4732 19.0698Z" fill="white"/>
<path d="M62.0067 22.5557V0.44428H74.8363C77.8173 0.44428 80.076 0.945518 81.6123 1.94799C83.1716 2.92769 83.9512 4.39723 83.9512 6.35661C83.9512 7.60971 83.6417 8.60079 83.0226 9.32987C82.4034 10.0362 81.5206 10.5602 80.3741 10.9019C79.2505 11.2437 77.9205 11.4601 76.3842 11.5513L76.5217 11.312C77.6453 11.3348 78.7001 11.4146 79.6862 11.5513C80.6951 11.688 81.5779 11.9386 82.3346 12.3031C83.0914 12.6677 83.6875 13.1803 84.1232 13.841C84.5589 14.4789 84.7767 15.3219 84.7767 16.37C84.7767 17.737 84.4099 18.8762 83.6761 19.7875C82.9423 20.6761 81.9219 21.3482 80.6149 21.8039C79.3078 22.2595 77.7944 22.5102 76.0746 22.5557H62.0067ZM66.5813 18.7964H75.593C77.0377 18.7964 78.1498 18.5686 78.9295 18.1129C79.7091 17.6345 80.0989 16.8826 80.0989 15.8574C80.0989 15.1055 79.8696 14.5587 79.411 14.2169C78.9524 13.8752 78.3447 13.6701 77.588 13.6018C76.8313 13.5106 76.0173 13.4651 75.1459 13.4651H66.5813V18.7964ZM66.5813 9.80832H74.6644C76.109 9.80832 77.2211 9.60327 78.0008 9.19316C78.7804 8.76028 79.1702 8.0312 79.1702 7.00594C79.1702 5.98068 78.7804 5.263 78.0008 4.8529C77.2211 4.42001 76.1892 4.20357 74.9051 4.20357H66.5813V9.80832Z" fill="white"/>
<path d="M88.8449 22.5557V0.44428H103.945C105.664 0.44428 107.155 0.683507 108.416 1.16196C109.7 1.61763 110.698 2.34671 111.409 3.34918C112.119 4.32887 112.475 5.59336 112.475 7.14264C112.475 8.19069 112.291 9.07925 111.925 9.80832C111.558 10.5374 111.042 11.1298 110.377 11.5854C109.735 12.0411 108.989 12.3943 108.141 12.6449C107.293 12.8727 106.387 13.0208 105.424 13.0892L104.942 12.8158C106.547 12.8385 107.866 12.9752 108.898 13.2259C109.93 13.4537 110.698 13.8866 111.202 14.5245C111.73 15.1397 111.993 16.0624 111.993 17.2927V22.5557H107.419V17.6003C107.419 16.7573 107.27 16.108 106.972 15.6523C106.673 15.1738 106.135 14.8435 105.355 14.6612C104.598 14.479 103.498 14.3878 102.053 14.3878H93.4195V22.5557H88.8449ZM93.4195 10.8336H103.945C105.229 10.8336 106.203 10.526 106.868 9.91085C107.556 9.29569 107.9 8.46409 107.9 7.41605C107.9 6.41357 107.556 5.65032 106.868 5.1263C106.203 4.60228 105.229 4.34027 103.945 4.34027H93.4195V10.8336Z" fill="white"/>
<path d="M121.836 13.3284V18.7623H139V22.5557H117.262V0.44428H138.966V4.23774H121.836V9.73997H135.87V13.3284H121.836Z" fill="white"/>
</g>
</svg>
