<svg width="520" height="927" viewBox="0 0 520 927" fill="none" xmlns="http://www.w3.org/2000/svg">
    <rect width="520" height="927" rx="23" fill="#2540E4"/>
    <path d="M135.673 791.861C161.305 799.633 188.894 799.837 214.388 791.337C238.2 783.361 259.147 767.845 274.333 746.887C289.519 725.928 297.732 701.884 297.981 676.384C298.201 650.681 290.126 625.006 275.105 604.775C271.356 599.71 267.167 595.024 262.564 590.803C257.962 586.582 252.036 582.186 245.532 582.041C239.744 581.924 234.728 585.621 232.302 591.065C229.767 596.799 230.235 603.116 232.578 608.821C237.704 621.193 249.693 629.169 261.324 633.593C273.782 638.338 287.314 639.648 300.433 638.076C326.589 634.932 350.264 620.902 368.179 600.816C386.093 580.731 397.697 557.182 404.78 531.711C411.863 506.24 413.82 479.489 410.871 453.29C407.922 427.092 400.039 401.68 387.472 378.858C384.385 373.24 380.967 367.884 377.384 362.615C376.392 361.16 374.104 362.557 375.097 364.012C388.96 384.331 398.413 407.967 403.567 432.361C408.749 456.842 409.824 482.312 406.103 507.143C402.355 532.089 393.921 556.25 380.857 577.442C367.462 599.157 348.776 617.816 325.79 627.539C302.804 637.261 274.526 638.804 252.394 625.53C242.693 619.708 230.373 607.541 234.507 594.354C236.492 588.066 242.059 584.34 248.288 585.912C254.517 587.484 259.478 592.287 263.915 596.799C280.7 613.945 291.173 637.581 293.984 661.975C296.795 686.31 291.641 710.879 280.121 732.099C268.6 753.32 250.823 771.077 229.849 782.022C206.753 794.073 180.101 798.148 154.663 794.568C148.379 793.695 142.177 792.326 136.086 790.463C135.232 790.201 134.874 791.628 135.728 791.861L135.673 791.861Z" fill="#F4F4F4"/>
    <path d="M426.306 692.54C405.249 677.84 387.362 658.57 372.644 636.971C357.486 614.76 344.036 589.61 340.067 562.189C338.165 549.031 338.661 535.35 342.134 522.542C345.607 509.734 351.973 498.934 360.793 489.852C369.613 480.77 379.59 474.308 390.228 468.69C401.997 462.489 414.372 457.483 426.912 453.262C453.343 444.325 480.96 439.289 508.659 437.863C512.076 437.688 515.466 437.572 518.884 437.426C520.372 437.368 520.372 435.039 518.884 434.981C490.496 433.817 461.722 438.474 434.492 446.8C421.152 450.875 408.06 455.911 395.41 461.965C384.248 467.292 373.499 473.697 364.045 481.993C354.592 490.289 346.875 500.564 342.134 512.557C337.394 524.55 335.409 538.843 336.153 552.321C337.697 580.644 350.21 606.959 365.093 630.072C379.452 652.369 396.898 672.571 417.624 688.465C420.187 690.444 422.806 692.307 425.451 694.141C426.389 694.782 427.215 693.21 426.306 692.598L426.306 692.54Z" fill="#F4F4F4"/>
    <path d="M199.477 874.997C216.096 863.237 225.881 843.646 229.822 823.328C232.137 811.451 232.688 799.254 232.468 787.145C232.247 775.035 231.31 763.828 229.381 752.33C225.688 730.032 217.943 708.695 205.155 690.415C193.11 673.211 177.676 659.006 160.864 647.217C141.874 633.855 121.121 623.492 100.284 613.799C97.6386 612.576 94.9928 611.354 92.3469 610.16C91.3271 609.695 90.4176 611.237 91.4649 611.761C111.447 621.833 131.622 631.643 150.501 643.956C167.672 655.163 183.795 668.408 196.914 684.709C210.033 701.01 219.514 721.271 224.447 742.695C226.983 753.757 228.499 765.051 229.216 776.404C229.932 787.756 230.098 799.866 228.995 811.509C227.011 832.555 220.01 854.504 204.548 868.855C202.702 870.572 200.745 872.144 198.705 873.6C197.879 874.182 198.65 875.608 199.505 875.026L199.477 874.997Z" fill="#F4F4F4"/>
    <path d="M168 891C168 891 501 550.047 501 551.002L501 596.719L168 891Z" fill="black"/>
    <path d="M316.5 628.701L316.5 927L500 927C511.046 927 520 918.046 520 907L520 425.731L316.5 628.701Z" fill="url(#paint0_linear_298_1712)"/>
    <path d="M419 583.661L419 637.69L419 645L497 645L497 546L419 583.661Z" fill="black"/>
    <path d="M0 904C0 916.703 10.2975 927 23 927H500C511.046 927 520 918.046 520 907V871H0V904Z" fill="black"/>
    <path d="M283.323 902.657L267.125 879.19C254.175 860.451 251.785 837.168 259.286 816.884C261.525 810.831 264.625 805.073 268.598 799.757C270.551 797.133 272.705 794.63 275.088 792.247C288.401 778.933 305.821 772.256 323.299 772.233C340.696 772.211 358.139 778.831 371.432 792.124L382.644 803.336L283.323 902.657Z" fill="url(#paint1_linear_298_1712)"/>
    <path d="M339.086 832.581C338.365 832.194 328.344 828.765 328.483 830.507C328.713 833.381 330.83 836.162 331.665 838.935C332.128 840.474 330.226 838.397 329.868 838.16C326.265 835.775 322.243 834.203 318.131 833.054C314.055 831.914 310.199 830.04 306.113 829.07C305.345 828.888 302.937 828.879 302.283 829.37C301.691 829.814 307.064 836.821 307.569 837.679C309.128 840.33 308.843 839.463 306.487 838.454C291.505 832.04 275.92 826.919 259.972 823.699" stroke="black" stroke-width="6" stroke-linecap="round"/>
    <path d="M268.61 799.744C270.563 797.12 272.717 794.616 275.1 792.234C288.414 778.92 305.833 772.243 323.311 772.22C340.709 772.198 358.151 778.818 371.445 792.111L382.657 803.323L268.624 799.731L268.61 799.744Z" fill="black"/>
    <path d="M431.595 830.526C430.424 811.115 433.755 791.588 442.183 773.991C444.558 769.044 447.312 764.261 450.247 759.61C451.006 758.423 449.175 757.417 448.384 758.522C442.595 766.537 438.307 775.624 435.19 784.992C432.106 794.244 430.276 803.908 429.781 813.638C429.501 819.278 429.649 824.919 430.358 830.509C430.457 831.284 431.645 831.317 431.595 830.509V830.526Z" fill="black"/>
    <path d="M429.467 835.127C430.654 834.203 430.374 812.137 454.188 796.091C470.367 785.173 488.211 801.022 455.475 814.298C438.702 821.092 429.467 835.127 429.467 835.127Z" fill="black"/>
    <path d="M426.367 806.201C430.325 818.553 430.556 831.499 430.951 834.501C430.094 831.334 425.146 817.102 403.509 807.734C391.42 802.49 389.491 793.667 392.888 787.927L393.564 786.888C397.308 781.924 405.405 779.995 413.932 786.526C420.1 791.242 423.942 798.598 426.367 806.184V806.201Z" fill="black"/>
    <path d="M431.084 835.127C431.084 835.127 430.968 834.847 430.935 834.484C431.051 834.896 431.084 835.127 431.084 835.127Z" fill="black"/>
    <path d="M445.596 753.591C445.481 753.674 434.052 735.137 448.482 733.587C462.913 732.036 452.869 754.597 452.869 754.597C452.869 754.597 461.808 732.036 469.345 744.059C476.882 756.082 455.953 759.083 455.953 759.083C455.953 759.083 476.601 758.671 470.417 772.112C464.216 785.553 453.051 777.818 449.34 765.713C449.34 765.713 445.86 784.002 434.497 774.948C423.134 765.911 442.71 759.083 442.71 759.083C442.71 759.083 421.568 763.058 425.954 748.842C430.341 734.626 445.613 753.591 445.613 753.591H445.596Z" fill="#4A7143"/>
    <path d="M449.323 765.696C452.984 765.696 455.953 762.728 455.953 759.066C455.953 755.405 452.984 752.437 449.323 752.437C445.661 752.437 442.693 755.405 442.693 759.066C442.693 762.728 445.661 765.696 449.323 765.696Z" fill="#F4F4F4"/>
    <path d="M407.384 895.389L390.991 829.306C390.991 829.306 462.83 830.873 462.83 830.906V895.406H407.384V895.389Z" fill="#4A7143"/>
    <path d="M401.331 870.948L462.83 895.389H407.384L401.331 870.948Z" fill="black"/>
    <path d="M0 870.864H114.167L62.8221 589.757H0V870.864Z" fill="url(#paint2_linear_298_1712)"/>
    <path d="M108.389 871.753C108.372 856 108.075 580.352 108.075 567.858C108.075 556.439 111.98 549.845 115.253 546.322C118.782 542.53 122.32 541.361 122.894 541.19C134.097 537.663 141.856 538.3 147.024 540.109C147.325 538.832 147.947 537.758 148.912 537.019C152.108 534.574 157.839 536.68 161.857 541.711C174.225 538.839 191.369 547.298 203.709 563.454L160.018 596.861C147.678 580.705 144.021 561.936 150.038 550.747C148.947 549.254 148.129 547.69 147.591 546.157C147.091 545.888 146.538 545.626 145.923 545.384C142.153 543.897 135.37 542.841 124.467 546.276H124.481L124.422 546.29C123.971 546.427 113.397 549.869 113.397 567.855C113.397 580.348 113.694 856.055 113.711 871.75H139.104V875.108H83V871.75H108.389V871.753Z" fill="black"/>
    <path d="M171.578 846.101L138.89 854.859L130.288 822.759L162.977 814L171.578 846.101Z" fill="#4377F4"/>
    <path d="M164.013 852C163.684 850.775 163.285 849.592 162.822 848.447L138.694 854.912L132.129 830.412C130.818 830.577 129.497 830.833 128.187 831.184C112.604 835.365 103.371 851.456 107.569 867.124C111.768 882.793 127.809 892.111 143.394 887.935C158.978 883.76 168.211 867.669 164.013 852Z" fill="#4A7143"/>
    <path d="M162.822 848.447C157.817 836.191 145.177 828.779 132.129 830.412L138.694 854.912L162.822 848.447Z" fill="url(#paint3_linear_298_1712)"/>
    <path d="M47.1866 889.74V791.049C47.1866 791.049 73.5855 791.049 73.5855 819.478C73.5855 847.908 63.8382 889.74 63.8382 889.74H47.1866Z" fill="#4A7143"/>
    <path d="M47.5932 889.74V791.049C47.5932 791.049 21.1943 791.049 21.1943 819.478C21.1943 847.908 30.9416 889.74 30.9416 889.74H47.5932Z" fill="#4A7143"/>
    <path d="M42.7194 889.74C47.3959 851.192 51.9941 810.138 47.1869 795.111C47.1869 795.111 53.6851 796.735 52.0605 828.82C50.436 860.905 50.436 889.74 50.436 889.74H42.7194Z" fill="black"/>
    <path d="M52.8724 889.74C61.4013 863.748 88.6125 805.264 47.9988 790.643C47.9988 790.643 78.459 791.861 73.9915 829.226C69.524 866.591 63.8381 889.74 63.8381 889.74H52.8724Z" fill="black"/>
    <rect x="23.631" y="889.334" width="48.7364" height="37.3646" fill="#F4973B"/>
    <path d="M32.1592 853.188L34.1898 889.334H39.4696L32.1592 853.188Z" fill="black"/>
    <path d="M357.448 510.102L320.882 474.004L216.294 649.179L341.08 649.179L357.448 510.102Z" fill="url(#paint4_linear_298_1712)"/>
    <path d="M379.457 453.19L376.722 450.456L336.99 490.188L347.15 500.348L357.311 510.509L379.457 488.363C389.169 478.65 389.169 462.903 379.457 453.19Z" fill="url(#paint5_linear_298_1712)"/>
    <path d="M377.93 451.663L376.722 450.456L336.99 490.188L320.611 473.81L342.758 451.663C352.47 441.951 368.217 441.951 377.93 451.663Z" fill="url(#paint6_linear_298_1712)"/>
    <path d="M330.414 498.837L331.486 499.909C335.78 504.202 342.742 504.202 347.035 499.909L338.188 491.062L330.414 498.837Z" fill="#DF9238"/>
    <path d="M330.414 484.896L331.218 484.092L338.188 491.062L330.414 498.837C326.565 494.987 326.565 488.746 330.414 484.896Z" fill="#DF9238"/>
    <path d="M376.295 450.142C377.945 451.658 379.158 452.871 380.675 454.691C382.95 453.096 384.915 451.816 387.578 451.137C395.84 449.044 403.653 449.869 410.465 455.456C413.207 457.706 415.245 460.551 416.343 463.99C417.774 465.792 417.993 467.97 418.254 470.141C418.284 470.457 418.308 470.772 418.338 471.088C419.145 472.719 419 474.46 418.903 476.195C418.933 476.85 418.981 477.499 418.981 478.154C418.981 497.899 418.988 517.644 418.981 537.395C418.981 539.002 418.933 540.616 418.903 542.223C418.921 542.624 418.939 543.018 418.951 543.418C418.951 543.831 418.963 544.237 418.969 544.65C418.951 545.359 418.927 546.063 418.909 546.773C419.03 554.034 419.06 561.295 418.89 568.556C418.915 568.804 419.677 598.772 419.701 599.027L425.482 599.553C425.494 599.049 424.787 568.422 424.787 567.919C424.787 539.912 424.787 511.899 424.787 483.893C424.787 483.244 424.671 482.577 424.956 481.952C424.768 481.351 424.768 480.757 424.95 480.156C424.635 478.342 424.762 476.523 424.853 474.703C424.841 474.381 424.823 474.066 424.811 473.744C424.344 473.18 424.374 472.586 424.72 471.973C424.708 471.597 424.69 471.227 424.677 470.851C423.737 469.547 423.877 467.994 423.707 466.52C423.677 466.308 423.646 466.089 423.61 465.877C423.106 465.501 422.924 465.009 423.052 464.397C422.797 463.821 422.585 463.232 422.615 462.583C422.275 462.516 422.069 462.359 422.166 461.97C421.79 460.994 421.414 460.017 421.044 459.047C420.371 458.725 420.025 458.185 420.013 457.439C419.97 457.336 419.934 457.227 419.891 457.124C419.558 457.069 419.333 456.917 419.388 456.535C419.157 456.196 418.927 455.856 418.696 455.522C418.272 455.419 418.138 455.128 418.181 454.722C417.738 454.394 417.368 454.012 417.174 453.484C416.804 453.454 416.616 453.272 416.658 452.884C406.273 441.637 387.244 441.461 376.295 450.142Z" fill="black"/>
    <path d="M83.1985 260V256.364C83.7745 256.4 84.2605 256.358 84.6565 256.238C85.0525 256.106 85.3825 255.86 85.6465 255.5C85.9225 255.128 86.1625 254.606 86.3665 253.934C86.5705 253.25 86.7685 252.392 86.9605 251.36C87.2365 249.884 87.4645 248.348 87.6445 246.752C87.8365 245.144 87.9985 243.566 88.1305 242.018C88.2625 240.458 88.3645 238.994 88.4365 237.626C88.5085 236.258 88.5685 235.076 88.6165 234.08H105.969V260H101.631V238.148H92.6305C92.5705 238.952 92.4985 239.924 92.4145 241.064C92.3425 242.192 92.2405 243.416 92.1085 244.736C91.9885 246.056 91.8325 247.424 91.6405 248.84C91.4605 250.256 91.2385 251.648 90.9745 253.016C90.7345 254.264 90.4465 255.386 90.1105 256.382C89.7745 257.366 89.3245 258.182 88.7605 258.83C88.2085 259.466 87.4825 259.892 86.5825 260.108C85.6945 260.324 84.5665 260.288 83.1985 260Z" fill="white"/>
    <path d="M119.852 260.54C117.884 260.54 116.156 260.114 114.668 259.262C113.18 258.41 112.016 257.228 111.176 255.716C110.348 254.204 109.934 252.464 109.934 250.496C109.934 248.372 110.342 246.53 111.158 244.97C111.974 243.398 113.108 242.18 114.56 241.316C116.012 240.452 117.692 240.02 119.6 240.02C121.616 240.02 123.326 240.494 124.73 241.442C126.146 242.378 127.196 243.704 127.88 245.42C128.564 247.136 128.822 249.158 128.654 251.486H124.352V249.902C124.34 247.79 123.968 246.248 123.236 245.276C122.504 244.304 121.352 243.818 119.78 243.818C118.004 243.818 116.684 244.37 115.82 245.474C114.956 246.566 114.524 248.168 114.524 250.28C114.524 252.248 114.956 253.772 115.82 254.852C116.684 255.932 117.944 256.472 119.6 256.472C120.668 256.472 121.586 256.238 122.354 255.77C123.134 255.29 123.734 254.6 124.154 253.7L128.438 254.996C127.694 256.748 126.542 258.11 124.982 259.082C123.434 260.054 121.724 260.54 119.852 260.54ZM113.156 251.486V248.21H126.53V251.486H113.156Z" fill="white"/>
    <path d="M132.67 260V240.56H146.53V244.628H137.008V260H132.67Z" fill="white"/>
    <path d="M149.931 260L149.967 240.56H154.359V249.92L161.469 240.56H166.887L159.345 250.28L167.535 260H161.793L154.359 250.64V260H149.931Z" fill="white"/>
    <path d="M177.573 260.54C175.629 260.54 173.931 260.102 172.479 259.226C171.027 258.35 169.899 257.144 169.095 255.608C168.303 254.06 167.907 252.284 167.907 250.28C167.907 248.24 168.315 246.452 169.131 244.916C169.947 243.38 171.081 242.18 172.533 241.316C173.985 240.452 175.665 240.02 177.573 240.02C179.529 240.02 181.233 240.458 182.685 241.334C184.137 242.21 185.265 243.422 186.069 244.97C186.873 246.506 187.275 248.276 187.275 250.28C187.275 252.296 186.867 254.078 186.051 255.626C185.247 257.162 184.119 258.368 182.667 259.244C181.215 260.108 179.517 260.54 177.573 260.54ZM177.573 256.472C179.301 256.472 180.585 255.896 181.425 254.744C182.265 253.592 182.685 252.104 182.685 250.28C182.685 248.396 182.259 246.896 181.407 245.78C180.555 244.652 179.277 244.088 177.573 244.088C176.409 244.088 175.449 244.352 174.693 244.88C173.949 245.396 173.397 246.122 173.037 247.058C172.677 247.982 172.497 249.056 172.497 250.28C172.497 252.164 172.923 253.67 173.775 254.798C174.639 255.914 175.905 256.472 177.573 256.472Z" fill="white"/>
    <path d="M203.884 260.54C202.48 260.54 201.292 260.276 200.32 259.748C199.348 259.208 198.61 258.494 198.106 257.606C197.614 256.718 197.368 255.74 197.368 254.672C197.368 253.736 197.524 252.896 197.836 252.152C198.148 251.396 198.628 250.748 199.276 250.208C199.924 249.656 200.764 249.206 201.796 248.858C202.576 248.606 203.488 248.378 204.532 248.174C205.588 247.97 206.728 247.784 207.952 247.616C209.188 247.436 210.478 247.244 211.822 247.04L210.274 247.922C210.286 246.578 209.986 245.588 209.374 244.952C208.762 244.316 207.73 243.998 206.278 243.998C205.402 243.998 204.556 244.202 203.74 244.61C202.924 245.018 202.354 245.72 202.03 246.716L198.07 245.474C198.55 243.83 199.462 242.51 200.806 241.514C202.162 240.518 203.986 240.02 206.278 240.02C208.006 240.02 209.524 240.302 210.832 240.866C212.152 241.43 213.13 242.354 213.766 243.638C214.114 244.322 214.324 245.024 214.396 245.744C214.468 246.452 214.504 247.226 214.504 248.066V260H210.706V255.788L211.336 256.472C210.46 257.876 209.434 258.908 208.258 259.568C207.094 260.216 205.636 260.54 203.884 260.54ZM204.748 257.084C205.732 257.084 206.572 256.91 207.268 256.562C207.964 256.214 208.516 255.788 208.924 255.284C209.344 254.78 209.626 254.306 209.77 253.862C209.998 253.31 210.124 252.68 210.148 251.972C210.184 251.252 210.202 250.67 210.202 250.226L211.534 250.622C210.226 250.826 209.104 251.006 208.168 251.162C207.232 251.318 206.428 251.468 205.756 251.612C205.084 251.744 204.49 251.894 203.974 252.062C203.47 252.242 203.044 252.452 202.696 252.692C202.348 252.932 202.078 253.208 201.886 253.52C201.706 253.832 201.616 254.198 201.616 254.618C201.616 255.098 201.736 255.524 201.976 255.896C202.216 256.256 202.564 256.544 203.02 256.76C203.488 256.976 204.064 257.084 204.748 257.084Z" fill="white"/>
    <path d="M228.532 260.54C226.636 260.54 225.046 260.09 223.762 259.19C222.478 258.29 221.512 257.066 220.864 255.518C220.216 253.958 219.892 252.212 219.892 250.28C219.892 248.324 220.216 246.572 220.864 245.024C221.512 243.476 222.46 242.258 223.708 241.37C224.968 240.47 226.522 240.02 228.37 240.02C230.206 240.02 231.796 240.47 233.14 241.37C234.496 242.258 235.546 243.476 236.29 245.024C237.034 246.56 237.406 248.312 237.406 250.28C237.406 252.224 237.04 253.97 236.308 255.518C235.576 257.066 234.544 258.29 233.212 259.19C231.88 260.09 230.32 260.54 228.532 260.54ZM219.154 268.64V240.56H222.988V254.204H223.528V268.64H219.154ZM227.866 256.652C228.994 256.652 229.924 256.37 230.656 255.806C231.388 255.242 231.928 254.48 232.276 253.52C232.636 252.548 232.816 251.468 232.816 250.28C232.816 249.104 232.636 248.036 232.276 247.076C231.916 246.104 231.358 245.336 230.602 244.772C229.846 244.196 228.886 243.908 227.722 243.908C226.618 243.908 225.718 244.178 225.022 244.718C224.326 245.246 223.81 245.99 223.474 246.95C223.15 247.898 222.988 249.008 222.988 250.28C222.988 251.54 223.15 252.65 223.474 253.61C223.81 254.57 224.332 255.32 225.04 255.86C225.76 256.388 226.702 256.652 227.866 256.652Z" fill="white"/>
    <path d="M250.212 260.54C248.244 260.54 246.516 260.114 245.028 259.262C243.54 258.41 242.376 257.228 241.536 255.716C240.708 254.204 240.294 252.464 240.294 250.496C240.294 248.372 240.702 246.53 241.518 244.97C242.334 243.398 243.468 242.18 244.92 241.316C246.372 240.452 248.052 240.02 249.96 240.02C251.976 240.02 253.686 240.494 255.09 241.442C256.506 242.378 257.556 243.704 258.24 245.42C258.924 247.136 259.182 249.158 259.014 251.486H254.712V249.902C254.7 247.79 254.328 246.248 253.596 245.276C252.864 244.304 251.712 243.818 250.14 243.818C248.364 243.818 247.044 244.37 246.18 245.474C245.316 246.566 244.884 248.168 244.884 250.28C244.884 252.248 245.316 253.772 246.18 254.852C247.044 255.932 248.304 256.472 249.96 256.472C251.028 256.472 251.946 256.238 252.714 255.77C253.494 255.29 254.094 254.6 254.514 253.7L258.798 254.996C258.054 256.748 256.902 258.11 255.342 259.082C253.794 260.054 252.084 260.54 250.212 260.54ZM243.516 251.486V248.21H256.89V251.486H243.516Z" fill="white"/>
    <path d="M262.994 260V240.56H267.332V248.228H276.062V240.56H280.4V260H276.062V252.296H267.332V260H262.994Z" fill="white"/>
    <path d="M283.984 264.32V256.598C285.04 256.598 285.79 256.238 286.234 255.518C286.678 254.798 287.032 253.55 287.296 251.774C287.464 250.718 287.602 249.602 287.71 248.426C287.818 247.25 287.908 246.008 287.98 244.7C288.064 243.392 288.136 242.012 288.196 240.56H302.668V256.598H304.63V264.32H300.526V260H288.07V264.32H283.984ZM289.798 256.598H298.348V243.962H291.994C291.958 244.682 291.916 245.42 291.868 246.176C291.82 246.92 291.766 247.664 291.706 248.408C291.646 249.152 291.58 249.866 291.508 250.55C291.448 251.222 291.376 251.846 291.292 252.422C291.16 253.43 290.998 254.258 290.806 254.906C290.614 255.554 290.278 256.118 289.798 256.598Z" fill="white"/>
    <path d="M316.827 260.54C314.883 260.54 313.185 260.102 311.733 259.226C310.281 258.35 309.153 257.144 308.349 255.608C307.557 254.06 307.161 252.284 307.161 250.28C307.161 248.24 307.569 246.452 308.385 244.916C309.201 243.38 310.335 242.18 311.787 241.316C313.239 240.452 314.919 240.02 316.827 240.02C318.783 240.02 320.487 240.458 321.939 241.334C323.391 242.21 324.519 243.422 325.323 244.97C326.127 246.506 326.529 248.276 326.529 250.28C326.529 252.296 326.121 254.078 325.305 255.626C324.501 257.162 323.373 258.368 321.921 259.244C320.469 260.108 318.771 260.54 316.827 260.54ZM316.827 256.472C318.555 256.472 319.839 255.896 320.679 254.744C321.519 253.592 321.939 252.104 321.939 250.28C321.939 248.396 321.513 246.896 320.661 245.78C319.809 244.652 318.531 244.088 316.827 244.088C315.663 244.088 314.703 244.352 313.947 244.88C313.203 245.396 312.651 246.122 312.291 247.058C311.931 247.982 311.751 249.056 311.751 250.28C311.751 252.164 312.177 253.67 313.029 254.798C313.893 255.914 315.159 256.472 316.827 256.472Z" fill="white"/>
    <path d="M330.459 260V240.56H339.297C339.933 240.56 340.527 240.596 341.079 240.668C341.631 240.74 342.105 240.83 342.501 240.938C343.437 241.214 344.265 241.754 344.985 242.558C345.705 243.35 346.065 244.448 346.065 245.852C346.065 246.68 345.933 247.364 345.669 247.904C345.405 248.432 345.057 248.876 344.625 249.236C344.421 249.404 344.211 249.548 343.995 249.668C343.779 249.788 343.563 249.884 343.347 249.956C343.815 250.028 344.259 250.166 344.679 250.37C345.339 250.694 345.891 251.174 346.335 251.81C346.791 252.446 347.019 253.34 347.019 254.492C347.019 255.8 346.701 256.904 346.065 257.804C345.441 258.692 344.523 259.31 343.311 259.658C342.867 259.778 342.357 259.868 341.781 259.928C341.205 259.976 340.617 260 340.017 260H330.459ZM334.851 256.652H339.711C339.963 256.652 340.239 256.628 340.539 256.58C340.839 256.532 341.109 256.466 341.349 256.382C341.781 256.226 342.093 255.95 342.285 255.554C342.489 255.158 342.591 254.744 342.591 254.312C342.591 253.724 342.441 253.256 342.141 252.908C341.853 252.548 341.505 252.308 341.097 252.188C340.857 252.092 340.593 252.038 340.305 252.026C340.029 252.002 339.801 251.99 339.621 251.99H334.851V256.652ZM334.851 248.588H338.451C338.823 248.588 339.183 248.57 339.531 248.534C339.891 248.486 340.191 248.408 340.431 248.3C340.827 248.144 341.115 247.88 341.295 247.508C341.487 247.136 341.583 246.722 341.583 246.266C341.583 245.786 341.475 245.354 341.259 244.97C341.055 244.574 340.725 244.31 340.269 244.178C339.969 244.058 339.603 243.992 339.171 243.98C338.751 243.968 338.481 243.962 338.361 243.962H334.851V248.588Z" fill="white"/>
    <path d="M356.04 260.54C354.636 260.54 353.448 260.276 352.476 259.748C351.504 259.208 350.766 258.494 350.262 257.606C349.77 256.718 349.524 255.74 349.524 254.672C349.524 253.736 349.68 252.896 349.992 252.152C350.304 251.396 350.784 250.748 351.432 250.208C352.08 249.656 352.92 249.206 353.952 248.858C354.732 248.606 355.644 248.378 356.688 248.174C357.744 247.97 358.884 247.784 360.108 247.616C361.344 247.436 362.634 247.244 363.978 247.04L362.43 247.922C362.442 246.578 362.142 245.588 361.53 244.952C360.918 244.316 359.886 243.998 358.434 243.998C357.558 243.998 356.712 244.202 355.896 244.61C355.08 245.018 354.51 245.72 354.186 246.716L350.226 245.474C350.706 243.83 351.618 242.51 352.962 241.514C354.318 240.518 356.142 240.02 358.434 240.02C360.162 240.02 361.68 240.302 362.988 240.866C364.308 241.43 365.286 242.354 365.922 243.638C366.27 244.322 366.48 245.024 366.552 245.744C366.624 246.452 366.66 247.226 366.66 248.066V260H362.862V255.788L363.492 256.472C362.616 257.876 361.59 258.908 360.414 259.568C359.25 260.216 357.792 260.54 356.04 260.54ZM356.904 257.084C357.888 257.084 358.728 256.91 359.424 256.562C360.12 256.214 360.672 255.788 361.08 255.284C361.5 254.78 361.782 254.306 361.926 253.862C362.154 253.31 362.28 252.68 362.304 251.972C362.34 251.252 362.358 250.67 362.358 250.226L363.69 250.622C362.382 250.826 361.26 251.006 360.324 251.162C359.388 251.318 358.584 251.468 357.912 251.612C357.24 251.744 356.646 251.894 356.13 252.062C355.626 252.242 355.2 252.452 354.852 252.692C354.504 252.932 354.234 253.208 354.042 253.52C353.862 253.832 353.772 254.198 353.772 254.618C353.772 255.098 353.892 255.524 354.132 255.896C354.372 256.256 354.72 256.544 355.176 256.76C355.644 256.976 356.22 257.084 356.904 257.084Z" fill="white"/>
    <path d="M376.224 260V244.412H369.726V240.56H387.06V244.412H380.562V260H376.224Z" fill="white"/>
    <path d="M390.453 260L390.435 240.56H394.773V247.04H398.265C398.805 247.04 399.411 247.052 400.083 247.076C400.767 247.1 401.337 247.154 401.793 247.238C402.885 247.478 403.815 247.862 404.583 248.39C405.363 248.918 405.957 249.608 406.365 250.46C406.773 251.312 406.977 252.338 406.977 253.538C406.977 255.254 406.533 256.628 405.645 257.66C404.769 258.68 403.533 259.376 401.937 259.748C401.457 259.856 400.869 259.928 400.173 259.964C399.489 259.988 398.871 260 398.319 260H390.453ZM394.773 256.598H398.697C398.961 256.598 399.255 256.586 399.579 256.562C399.903 256.538 400.215 256.484 400.515 256.4C401.055 256.256 401.529 255.932 401.937 255.428C402.357 254.912 402.567 254.282 402.567 253.538C402.567 252.758 402.357 252.116 401.937 251.612C401.517 251.108 401.001 250.778 400.389 250.622C400.113 250.55 399.825 250.502 399.525 250.478C399.225 250.454 398.949 250.442 398.697 250.442H394.773V256.598Z" fill="white"/>
    <path d="M434.987 240.56V260H430.829V247.31L421.577 260H418.103V240.56H422.261V252.926L431.549 240.56H434.987Z" fill="white"/>
    <path d="M99.1625 302.576C97.3145 302.552 95.7425 302.138 94.4465 301.334C93.1505 300.53 92.1365 299.396 91.4045 297.932C90.6725 296.468 90.2285 294.74 90.0725 292.748C90.0005 291.728 89.9945 290.588 90.0545 289.328C90.1145 288.068 90.2465 286.838 90.4505 285.638C90.6545 284.438 90.9365 283.418 91.2965 282.578C91.6685 281.738 92.1545 280.964 92.7545 280.256C93.3545 279.536 94.0025 278.936 94.6985 278.456C95.4905 277.904 96.3485 277.478 97.2725 277.178C98.2085 276.878 99.1865 276.65 100.207 276.494C101.227 276.326 102.277 276.176 103.357 276.044C104.437 275.912 105.505 275.744 106.561 275.54L106.957 279.374C106.285 279.542 105.505 279.674 104.617 279.77C103.741 279.854 102.829 279.95 101.881 280.058C100.945 280.166 100.051 280.322 99.1985 280.526C98.3465 280.73 97.6085 281.03 96.9845 281.426C96.1205 281.954 95.4605 282.71 95.0045 283.694C94.5485 284.678 94.2785 285.716 94.1945 286.808C94.9385 285.704 95.8625 284.93 96.9665 284.486C98.0825 284.03 99.2105 283.802 100.351 283.802C102.079 283.802 103.561 284.21 104.797 285.026C106.045 285.842 106.999 286.952 107.659 288.356C108.331 289.748 108.667 291.302 108.667 293.018C108.667 294.938 108.265 296.618 107.461 298.058C106.657 299.498 105.541 300.614 104.113 301.406C102.685 302.198 101.035 302.588 99.1625 302.576ZM99.3785 298.508C100.939 298.508 102.115 298.028 102.907 297.068C103.711 296.096 104.113 294.806 104.113 293.198C104.113 291.554 103.699 290.258 102.871 289.31C102.055 288.362 100.891 287.888 99.3785 287.888C97.8425 287.888 96.6725 288.362 95.8685 289.31C95.0645 290.258 94.6625 291.554 94.6625 293.198C94.6625 294.878 95.0705 296.186 95.8865 297.122C96.7025 298.046 97.8665 298.508 99.3785 298.508Z" fill="white"/>
    <path d="M121.469 302.54C119.501 302.54 117.773 302.114 116.285 301.262C114.797 300.41 113.633 299.228 112.793 297.716C111.965 296.204 111.551 294.464 111.551 292.496C111.551 290.372 111.959 288.53 112.775 286.97C113.591 285.398 114.725 284.18 116.177 283.316C117.629 282.452 119.309 282.02 121.217 282.02C123.233 282.02 124.943 282.494 126.347 283.442C127.763 284.378 128.813 285.704 129.497 287.42C130.181 289.136 130.439 291.158 130.271 293.486H125.969V291.902C125.957 289.79 125.585 288.248 124.853 287.276C124.121 286.304 122.969 285.818 121.397 285.818C119.621 285.818 118.301 286.37 117.437 287.474C116.573 288.566 116.141 290.168 116.141 292.28C116.141 294.248 116.573 295.772 117.437 296.852C118.301 297.932 119.561 298.472 121.217 298.472C122.285 298.472 123.203 298.238 123.971 297.77C124.751 297.29 125.351 296.6 125.771 295.7L130.055 296.996C129.311 298.748 128.159 300.11 126.599 301.082C125.051 302.054 123.341 302.54 121.469 302.54ZM114.773 293.486V290.21H128.147V293.486H114.773Z" fill="white"/>
    <path d="M140.496 302.54C138.648 302.54 136.962 302.15 135.438 301.37C133.914 300.59 132.714 299.522 131.838 298.166L135.258 295.88C135.954 296.708 136.728 297.35 137.58 297.806C138.432 298.25 139.38 298.472 140.424 298.472C141.516 298.472 142.374 298.232 142.998 297.752C143.622 297.272 143.934 296.63 143.934 295.826C143.934 295.118 143.724 294.62 143.304 294.332C142.884 294.032 142.332 293.852 141.648 293.792C140.964 293.732 140.232 293.702 139.452 293.702H138.012V290.264H139.434C140.526 290.264 141.438 290.138 142.17 289.886C142.914 289.634 143.286 289.076 143.286 288.212C143.286 287.432 142.998 286.88 142.422 286.556C141.846 286.22 141.174 286.052 140.406 286.052C139.47 286.052 138.546 286.25 137.634 286.646C136.722 287.042 135.906 287.522 135.186 288.086L132.738 285.134C133.818 284.174 135.024 283.418 136.356 282.866C137.688 282.302 139.11 282.02 140.622 282.02C141.87 282.02 143.034 282.236 144.114 282.668C145.206 283.1 146.082 283.748 146.742 284.612C147.414 285.476 147.75 286.544 147.75 287.816C147.75 288.728 147.552 289.586 147.156 290.39C146.772 291.194 146.154 291.956 145.302 292.676L145.248 291.272C145.908 291.548 146.466 291.932 146.922 292.424C147.39 292.916 147.744 293.492 147.984 294.152C148.236 294.812 148.362 295.514 148.362 296.258C148.362 297.614 148.002 298.76 147.282 299.696C146.562 300.632 145.602 301.34 144.402 301.82C143.214 302.3 141.912 302.54 140.496 302.54Z" fill="white"/>
    <path d="M160.909 302.54C158.965 302.54 157.267 302.102 155.815 301.226C154.363 300.35 153.235 299.144 152.431 297.608C151.639 296.06 151.243 294.284 151.243 292.28C151.243 290.24 151.651 288.452 152.467 286.916C153.283 285.38 154.417 284.18 155.869 283.316C157.321 282.452 159.001 282.02 160.909 282.02C162.865 282.02 164.569 282.458 166.021 283.334C167.473 284.21 168.601 285.422 169.405 286.97C170.209 288.506 170.611 290.276 170.611 292.28C170.611 294.296 170.203 296.078 169.387 297.626C168.583 299.162 167.455 300.368 166.003 301.244C164.551 302.108 162.853 302.54 160.909 302.54ZM160.909 298.472C162.637 298.472 163.921 297.896 164.761 296.744C165.601 295.592 166.021 294.104 166.021 292.28C166.021 290.396 165.595 288.896 164.743 287.78C163.891 286.652 162.613 286.088 160.909 286.088C159.745 286.088 158.785 286.352 158.029 286.88C157.285 287.396 156.733 288.122 156.373 289.058C156.013 289.982 155.833 291.056 155.833 292.28C155.833 294.164 156.259 295.67 157.111 296.798C157.975 297.914 159.241 298.472 160.909 298.472Z" fill="white"/>
    <path d="M174.541 302V282.56H191.425V302H187.087V286.628H178.879V302H174.541Z" fill="white"/>
    <path d="M201.915 302.54C200.511 302.54 199.323 302.276 198.351 301.748C197.379 301.208 196.641 300.494 196.137 299.606C195.645 298.718 195.399 297.74 195.399 296.672C195.399 295.736 195.555 294.896 195.867 294.152C196.179 293.396 196.659 292.748 197.307 292.208C197.955 291.656 198.795 291.206 199.827 290.858C200.607 290.606 201.519 290.378 202.563 290.174C203.619 289.97 204.759 289.784 205.983 289.616C207.219 289.436 208.509 289.244 209.853 289.04L208.305 289.922C208.317 288.578 208.017 287.588 207.405 286.952C206.793 286.316 205.761 285.998 204.309 285.998C203.433 285.998 202.587 286.202 201.771 286.61C200.955 287.018 200.385 287.72 200.061 288.716L196.101 287.474C196.581 285.83 197.493 284.51 198.837 283.514C200.193 282.518 202.017 282.02 204.309 282.02C206.037 282.02 207.555 282.302 208.863 282.866C210.183 283.43 211.161 284.354 211.797 285.638C212.145 286.322 212.355 287.024 212.427 287.744C212.499 288.452 212.535 289.226 212.535 290.066V302H208.737V297.788L209.367 298.472C208.491 299.876 207.465 300.908 206.289 301.568C205.125 302.216 203.667 302.54 201.915 302.54ZM202.779 299.084C203.763 299.084 204.603 298.91 205.299 298.562C205.995 298.214 206.547 297.788 206.955 297.284C207.375 296.78 207.657 296.306 207.801 295.862C208.029 295.31 208.155 294.68 208.179 293.972C208.215 293.252 208.233 292.67 208.233 292.226L209.565 292.622C208.257 292.826 207.135 293.006 206.199 293.162C205.263 293.318 204.459 293.468 203.787 293.612C203.115 293.744 202.521 293.894 202.005 294.062C201.501 294.242 201.075 294.452 200.727 294.692C200.379 294.932 200.109 295.208 199.917 295.52C199.737 295.832 199.647 296.198 199.647 296.618C199.647 297.098 199.767 297.524 200.007 297.896C200.247 298.256 200.595 298.544 201.051 298.76C201.519 298.976 202.095 299.084 202.779 299.084Z" fill="white"/>
    <path d="M225.663 302.54C223.659 302.54 221.949 302.096 220.533 301.208C219.117 300.308 218.031 299.084 217.275 297.536C216.531 295.988 216.153 294.236 216.141 292.28C216.153 290.288 216.543 288.524 217.311 286.988C218.091 285.44 219.195 284.228 220.623 283.352C222.051 282.464 223.749 282.02 225.717 282.02C227.925 282.02 229.791 282.578 231.315 283.694C232.851 284.798 233.853 286.31 234.321 288.23L230.001 289.4C229.665 288.356 229.107 287.546 228.327 286.97C227.547 286.382 226.659 286.088 225.663 286.088C224.535 286.088 223.605 286.358 222.873 286.898C222.141 287.426 221.601 288.158 221.253 289.094C220.905 290.03 220.731 291.092 220.731 292.28C220.731 294.128 221.145 295.622 221.973 296.762C222.801 297.902 224.031 298.472 225.663 298.472C226.815 298.472 227.721 298.208 228.381 297.68C229.053 297.152 229.557 296.39 229.893 295.394L234.321 296.384C233.721 298.364 232.671 299.888 231.171 300.956C229.671 302.012 227.835 302.54 225.663 302.54Z" fill="white"/>
    <path d="M237.892 302V282.56H242.23V290.228H250.96V282.56H255.298V302H250.96V294.296H242.23V302H237.892Z" fill="white"/>
    <path d="M268.909 302.54C266.965 302.54 265.267 302.102 263.815 301.226C262.363 300.35 261.235 299.144 260.431 297.608C259.639 296.06 259.243 294.284 259.243 292.28C259.243 290.24 259.651 288.452 260.467 286.916C261.283 285.38 262.417 284.18 263.869 283.316C265.321 282.452 267.001 282.02 268.909 282.02C270.865 282.02 272.569 282.458 274.021 283.334C275.473 284.21 276.601 285.422 277.405 286.97C278.209 288.506 278.611 290.276 278.611 292.28C278.611 294.296 278.203 296.078 277.387 297.626C276.583 299.162 275.455 300.368 274.003 301.244C272.551 302.108 270.853 302.54 268.909 302.54ZM268.909 298.472C270.637 298.472 271.921 297.896 272.761 296.744C273.601 295.592 274.021 294.104 274.021 292.28C274.021 290.396 273.595 288.896 272.743 287.78C271.891 286.652 270.613 286.088 268.909 286.088C267.745 286.088 266.785 286.352 266.029 286.88C265.285 287.396 264.733 288.122 264.373 289.058C264.013 289.982 263.833 291.056 263.833 292.28C263.833 294.164 264.259 295.67 265.111 296.798C265.975 297.914 267.241 298.472 268.909 298.472Z" fill="white"/>
    <path d="M298.226 302.54C296.222 302.54 294.512 302.096 293.096 301.208C291.68 300.308 290.594 299.084 289.838 297.536C289.094 295.988 288.716 294.236 288.704 292.28C288.716 290.288 289.106 288.524 289.874 286.988C290.654 285.44 291.758 284.228 293.186 283.352C294.614 282.464 296.312 282.02 298.28 282.02C300.488 282.02 302.354 282.578 303.878 283.694C305.414 284.798 306.416 286.31 306.884 288.23L302.564 289.4C302.228 288.356 301.67 287.546 300.89 286.97C300.11 286.382 299.222 286.088 298.226 286.088C297.098 286.088 296.168 286.358 295.436 286.898C294.704 287.426 294.164 288.158 293.816 289.094C293.468 290.03 293.294 291.092 293.294 292.28C293.294 294.128 293.708 295.622 294.536 296.762C295.364 297.902 296.594 298.472 298.226 298.472C299.378 298.472 300.284 298.208 300.944 297.68C301.616 297.152 302.12 296.39 302.456 295.394L306.884 296.384C306.284 298.364 305.234 299.888 303.734 300.956C302.234 302.012 300.398 302.54 298.226 302.54Z" fill="white"/>
    <path d="M308.523 306.32V298.598C309.579 298.598 310.329 298.238 310.773 297.518C311.217 296.798 311.571 295.55 311.835 293.774C312.003 292.718 312.141 291.602 312.249 290.426C312.357 289.25 312.447 288.008 312.519 286.7C312.603 285.392 312.675 284.012 312.735 282.56H327.207V298.598H329.169V306.32H325.065V302H312.609V306.32H308.523ZM314.337 298.598H322.887V285.962H316.533C316.497 286.682 316.455 287.42 316.407 288.176C316.359 288.92 316.305 289.664 316.245 290.408C316.185 291.152 316.119 291.866 316.047 292.55C315.987 293.222 315.915 293.846 315.831 294.422C315.699 295.43 315.537 296.258 315.345 296.906C315.153 297.554 314.817 298.118 314.337 298.598Z" fill="white"/>
    <path d="M338.216 302.54C336.812 302.54 335.624 302.276 334.652 301.748C333.68 301.208 332.942 300.494 332.438 299.606C331.946 298.718 331.7 297.74 331.7 296.672C331.7 295.736 331.856 294.896 332.168 294.152C332.48 293.396 332.96 292.748 333.608 292.208C334.256 291.656 335.096 291.206 336.128 290.858C336.908 290.606 337.82 290.378 338.864 290.174C339.92 289.97 341.06 289.784 342.284 289.616C343.52 289.436 344.81 289.244 346.154 289.04L344.606 289.922C344.618 288.578 344.318 287.588 343.706 286.952C343.094 286.316 342.062 285.998 340.61 285.998C339.734 285.998 338.888 286.202 338.072 286.61C337.256 287.018 336.686 287.72 336.362 288.716L332.402 287.474C332.882 285.83 333.794 284.51 335.138 283.514C336.494 282.518 338.318 282.02 340.61 282.02C342.338 282.02 343.856 282.302 345.164 282.866C346.484 283.43 347.462 284.354 348.098 285.638C348.446 286.322 348.656 287.024 348.728 287.744C348.8 288.452 348.836 289.226 348.836 290.066V302H345.038V297.788L345.668 298.472C344.792 299.876 343.766 300.908 342.59 301.568C341.426 302.216 339.968 302.54 338.216 302.54ZM339.08 299.084C340.064 299.084 340.904 298.91 341.6 298.562C342.296 298.214 342.848 297.788 343.256 297.284C343.676 296.78 343.958 296.306 344.102 295.862C344.33 295.31 344.456 294.68 344.48 293.972C344.516 293.252 344.534 292.67 344.534 292.226L345.866 292.622C344.558 292.826 343.436 293.006 342.5 293.162C341.564 293.318 340.76 293.468 340.088 293.612C339.416 293.744 338.822 293.894 338.306 294.062C337.802 294.242 337.376 294.452 337.028 294.692C336.68 294.932 336.41 295.208 336.218 295.52C336.038 295.832 335.948 296.198 335.948 296.618C335.948 297.098 336.068 297.524 336.308 297.896C336.548 298.256 336.896 298.544 337.352 298.76C337.82 298.976 338.396 299.084 339.08 299.084Z" fill="white"/>
    <path d="M353.486 302V282.56H362.324C362.96 282.56 363.554 282.596 364.106 282.668C364.658 282.74 365.132 282.83 365.528 282.938C366.464 283.214 367.292 283.754 368.012 284.558C368.732 285.35 369.092 286.448 369.092 287.852C369.092 288.68 368.96 289.364 368.696 289.904C368.432 290.432 368.084 290.876 367.652 291.236C367.448 291.404 367.238 291.548 367.022 291.668C366.806 291.788 366.59 291.884 366.374 291.956C366.842 292.028 367.286 292.166 367.706 292.37C368.366 292.694 368.918 293.174 369.362 293.81C369.818 294.446 370.046 295.34 370.046 296.492C370.046 297.8 369.728 298.904 369.092 299.804C368.468 300.692 367.55 301.31 366.338 301.658C365.894 301.778 365.384 301.868 364.808 301.928C364.232 301.976 363.644 302 363.044 302H353.486ZM357.878 298.652H362.738C362.99 298.652 363.266 298.628 363.566 298.58C363.866 298.532 364.136 298.466 364.376 298.382C364.808 298.226 365.12 297.95 365.312 297.554C365.516 297.158 365.618 296.744 365.618 296.312C365.618 295.724 365.468 295.256 365.168 294.908C364.88 294.548 364.532 294.308 364.124 294.188C363.884 294.092 363.62 294.038 363.332 294.026C363.056 294.002 362.828 293.99 362.648 293.99H357.878V298.652ZM357.878 290.588H361.478C361.85 290.588 362.21 290.57 362.558 290.534C362.918 290.486 363.218 290.408 363.458 290.3C363.854 290.144 364.142 289.88 364.322 289.508C364.514 289.136 364.61 288.722 364.61 288.266C364.61 287.786 364.502 287.354 364.286 286.97C364.082 286.574 363.752 286.31 363.296 286.178C362.996 286.058 362.63 285.992 362.198 285.98C361.778 285.968 361.508 285.962 361.388 285.962H357.878V290.588Z" fill="white"/>
    <path d="M379.067 302.54C377.663 302.54 376.475 302.276 375.503 301.748C374.531 301.208 373.793 300.494 373.289 299.606C372.797 298.718 372.551 297.74 372.551 296.672C372.551 295.736 372.707 294.896 373.019 294.152C373.331 293.396 373.811 292.748 374.459 292.208C375.107 291.656 375.947 291.206 376.979 290.858C377.759 290.606 378.671 290.378 379.715 290.174C380.771 289.97 381.911 289.784 383.135 289.616C384.371 289.436 385.661 289.244 387.005 289.04L385.457 289.922C385.469 288.578 385.169 287.588 384.557 286.952C383.945 286.316 382.913 285.998 381.461 285.998C380.585 285.998 379.739 286.202 378.923 286.61C378.107 287.018 377.537 287.72 377.213 288.716L373.253 287.474C373.733 285.83 374.645 284.51 375.989 283.514C377.345 282.518 379.169 282.02 381.461 282.02C383.189 282.02 384.707 282.302 386.015 282.866C387.335 283.43 388.313 284.354 388.949 285.638C389.297 286.322 389.507 287.024 389.579 287.744C389.651 288.452 389.687 289.226 389.687 290.066V302H385.889V297.788L386.519 298.472C385.643 299.876 384.617 300.908 383.441 301.568C382.277 302.216 380.819 302.54 379.067 302.54ZM379.931 299.084C380.915 299.084 381.755 298.91 382.451 298.562C383.147 298.214 383.699 297.788 384.107 297.284C384.527 296.78 384.809 296.306 384.953 295.862C385.181 295.31 385.307 294.68 385.331 293.972C385.367 293.252 385.385 292.67 385.385 292.226L386.717 292.622C385.409 292.826 384.287 293.006 383.351 293.162C382.415 293.318 381.611 293.468 380.939 293.612C380.267 293.744 379.673 293.894 379.157 294.062C378.653 294.242 378.227 294.452 377.879 294.692C377.531 294.932 377.261 295.208 377.069 295.52C376.889 295.832 376.799 296.198 376.799 296.618C376.799 297.098 376.919 297.524 377.159 297.896C377.399 298.256 377.747 298.544 378.203 298.76C378.671 298.976 379.247 299.084 379.931 299.084Z" fill="white"/>
    <path d="M399.252 302V286.412H392.754V282.56H410.088V286.412H403.59V302H399.252Z" fill="white"/>
    <path d="M413.481 302L413.463 282.56H417.801V289.04H421.293C421.833 289.04 422.439 289.052 423.111 289.076C423.794 289.1 424.365 289.154 424.821 289.238C425.913 289.478 426.842 289.862 427.611 290.39C428.391 290.918 428.985 291.608 429.393 292.46C429.801 293.312 430.005 294.338 430.005 295.538C430.005 297.254 429.561 298.628 428.673 299.66C427.797 300.68 426.561 301.376 424.965 301.748C424.484 301.856 423.897 301.928 423.201 301.964C422.517 301.988 421.899 302 421.347 302H413.481ZM417.801 298.598H421.725C421.989 298.598 422.283 298.586 422.607 298.562C422.931 298.538 423.243 298.484 423.543 298.4C424.083 298.256 424.557 297.932 424.965 297.428C425.385 296.912 425.595 296.282 425.595 295.538C425.595 294.758 425.385 294.116 424.965 293.612C424.544 293.108 424.029 292.778 423.417 292.622C423.141 292.55 422.853 292.502 422.553 292.478C422.253 292.454 421.977 292.442 421.725 292.442H417.801V298.598Z" fill="white"/>
    <path d="M202.726 59.4443C205.226 59.4443 207.313 59.7405 208.987 60.3328C210.66 60.9252 211.99 61.734 212.976 62.7593C213.985 63.7618 214.696 64.9237 215.109 66.2452C215.545 67.5666 215.763 68.9564 215.763 70.4146C215.763 71.8727 215.522 73.2739 215.04 74.6181C214.582 75.9624 213.836 77.1585 212.804 78.2065C211.796 79.2318 210.454 80.052 208.78 80.6672C207.129 81.2595 205.111 81.5557 202.726 81.5557H190V59.4443H202.726ZM194.575 77.6597H202.623C204.274 77.6597 205.639 77.4661 206.716 77.0788C207.817 76.6686 208.688 76.1218 209.33 75.4383C209.973 74.7548 210.431 73.9802 210.706 73.1144C210.981 72.2486 211.119 71.3487 211.119 70.4146C211.119 69.4804 210.981 68.5919 210.706 67.7489C210.431 66.9059 209.973 66.154 209.33 65.4933C208.688 64.8326 207.817 64.3086 206.716 63.9212C205.639 63.5339 204.274 63.3403 202.623 63.3403H194.575V77.6597Z" fill="white"/>
    <path d="M233.473 82C230.515 82 227.981 81.5443 225.872 80.633C223.785 79.6989 222.18 78.3774 221.056 76.6686C219.956 74.9599 219.405 72.9094 219.405 70.5171C219.405 68.102 219.956 66.0401 221.056 64.3314C222.18 62.6226 223.785 61.3125 225.872 60.4012C227.981 59.4671 230.515 59 233.473 59C236.454 59 238.988 59.4671 241.075 60.4012C243.161 61.3125 244.755 62.6226 245.856 64.3314C246.979 66.0401 247.541 68.102 247.541 70.5171C247.541 72.9094 246.979 74.9599 245.856 76.6686C244.755 78.3774 243.161 79.6989 241.075 80.633C238.988 81.5443 236.454 82 233.473 82ZM233.473 78.0698C235.308 78.0698 236.913 77.7964 238.289 77.2496C239.687 76.7028 240.777 75.8712 241.556 74.7548C242.359 73.6384 242.76 72.2259 242.76 70.5171C242.76 68.8083 242.359 67.3957 241.556 66.2793C240.777 65.163 239.687 64.3314 238.289 63.7845C236.913 63.215 235.308 62.9302 233.473 62.9302C231.662 62.9302 230.045 63.215 228.623 63.7845C227.202 64.3314 226.09 65.163 225.287 66.2793C224.484 67.3957 224.083 68.8083 224.083 70.5171C224.083 72.2259 224.484 73.6384 225.287 74.7548C226.09 75.8712 227.202 76.7028 228.623 77.2496C230.045 77.7964 231.662 78.0698 233.473 78.0698Z" fill="white"/>
    <path d="M252.007 81.5557V59.4443H264.836C267.817 59.4443 270.076 59.9455 271.612 60.948C273.172 61.9277 273.951 63.3972 273.951 65.3566C273.951 66.6097 273.642 67.6008 273.023 68.3299C272.403 69.0362 271.521 69.5602 270.374 69.9019C269.25 70.2437 267.921 70.4601 266.384 70.5513L266.522 70.312C267.645 70.3348 268.7 70.4146 269.686 70.5513C270.695 70.688 271.578 70.9386 272.335 71.3031C273.091 71.6677 273.688 72.1803 274.123 72.841C274.559 73.4789 274.777 74.3219 274.777 75.37C274.777 76.737 274.41 77.8762 273.676 78.7875C272.942 79.6761 271.922 80.3482 270.615 80.8039C269.308 81.2595 267.794 81.5102 266.075 81.5557H252.007ZM256.581 77.7964H265.593C267.038 77.7964 268.15 77.5686 268.929 77.1129C269.709 76.6345 270.099 75.8826 270.099 74.8574C270.099 74.1055 269.87 73.5587 269.411 73.2169C268.952 72.8752 268.345 72.6701 267.588 72.6018C266.831 72.5106 266.017 72.4651 265.146 72.4651H256.581V77.7964ZM256.581 68.8083H264.664C266.109 68.8083 267.221 68.6033 268.001 68.1932C268.78 67.7603 269.17 67.0312 269.17 66.0059C269.17 64.9807 268.78 64.263 268.001 63.8529C267.221 63.42 266.189 63.2036 264.905 63.2036H256.581V68.8083Z" fill="white"/>
    <path d="M278.845 81.5557V59.4443H293.945C295.664 59.4443 297.155 59.6835 298.416 60.162C299.7 60.6176 300.698 61.3467 301.409 62.3492C302.119 63.3289 302.475 64.5934 302.475 66.1426C302.475 67.1907 302.291 68.0792 301.925 68.8083C301.558 69.5374 301.042 70.1298 300.377 70.5854C299.735 71.0411 298.989 71.3943 298.141 71.6449C297.293 71.8727 296.387 72.0208 295.424 72.0892L294.942 71.8158C296.547 71.8385 297.866 71.9752 298.898 72.2259C299.93 72.4537 300.698 72.8866 301.202 73.5245C301.73 74.1397 301.993 75.0624 301.993 76.2927V81.5557H297.419V76.6003C297.419 75.7573 297.27 75.108 296.972 74.6523C296.673 74.1738 296.135 73.8435 295.355 73.6612C294.598 73.479 293.498 73.3878 292.053 73.3878H283.42V81.5557H278.845ZM283.42 69.8336H293.945C295.229 69.8336 296.203 69.526 296.868 68.9108C297.556 68.2957 297.9 67.4641 297.9 66.416C297.9 65.4136 297.556 64.6503 296.868 64.1263C296.203 63.6023 295.229 63.3403 293.945 63.3403H283.42V69.8336Z" fill="white"/>
    <path d="M311.836 72.3284V77.7623H329V81.5557H307.262V59.4443H328.966V63.2377H311.836V68.74H325.87V72.3284H311.836Z" fill="white"/>
    <defs>
        <linearGradient id="paint0_linear_298_1712" x1="398.363" y1="425.731" x2="398.363" y2="959.277" gradientUnits="userSpaceOnUse">
            <stop stop-color="#F69640"/>
            <stop offset="1" stop-color="#DF3680"/>
        </linearGradient>
        <linearGradient id="paint1_linear_298_1712" x1="332.984" y1="852.997" x2="273.661" y2="793.674" gradientUnits="userSpaceOnUse">
            <stop stop-color="#F59244"/>
            <stop offset="1" stop-color="#E03B7D"/>
        </linearGradient>
        <linearGradient id="paint2_linear_298_1712" x1="47.5833" y1="589.757" x2="47.5833" y2="870.864" gradientUnits="userSpaceOnUse">
            <stop stop-color="#F59144"/>
            <stop offset="1" stop-color="#E54D71"/>
        </linearGradient>
        <linearGradient id="paint3_linear_298_1712" x1="150.758" y1="851.679" x2="144.193" y2="827.18" gradientUnits="userSpaceOnUse">
            <stop stop-color="#F59244"/>
            <stop offset="1" stop-color="#E13C7D"/>
        </linearGradient>
        <linearGradient id="paint4_linear_298_1712" x1="341.275" y1="493.928" x2="255.84" y2="579.362" gradientUnits="userSpaceOnUse">
            <stop stop-color="#7A88E7"/>
            <stop offset="1" stop-color="#D9D9D9" stop-opacity="0"/>
        </linearGradient>
        <linearGradient id="paint5_linear_298_1712" x1="317.275" y1="488.368" x2="390.077" y2="466.52" gradientUnits="userSpaceOnUse">
            <stop stop-color="#D70563"/>
            <stop offset="1" stop-color="#EE8834"/>
        </linearGradient>
        <linearGradient id="paint6_linear_298_1712" x1="317.275" y1="488.368" x2="390.077" y2="466.52" gradientUnits="userSpaceOnUse">
            <stop stop-color="#D70563"/>
            <stop offset="1" stop-color="#EE8834"/>
        </linearGradient>
    </defs>
</svg>