<svg width="153" height="1010" viewBox="0 0 153 1010" fill="none" xmlns="http://www.w3.org/2000/svg">
<path d="M3.30312 924.421C3.30312 905.846 5.5052 890.339 9.90935 877.899C14.3135 865.459 20.3269 855.575 27.9495 848.247C35.4027 840.749 44.0416 835.466 53.8663 832.399C63.6909 829.161 74.0238 827.542 84.8648 827.542C95.7058 827.542 106.123 829.331 116.117 832.91C126.111 836.318 135.004 841.856 142.796 849.525C150.419 857.023 156.517 866.992 161.091 879.432C165.495 891.702 167.697 906.698 167.697 924.421L167.697 1019L3.30312 1019L3.30312 924.421ZM138.731 985.003L138.731 925.188C138.731 912.918 137.291 902.779 134.412 894.769C131.363 886.59 127.297 880.114 122.215 875.342C117.134 870.571 111.374 867.163 104.938 865.118C98.5008 863.073 91.8098 862.05 84.8648 862.05C77.9198 862.05 71.3135 863.073 65.0461 865.118C58.7786 867.163 53.1887 870.571 48.2764 875.342C43.364 880.114 39.4681 886.59 36.5884 894.769C33.7088 902.779 32.2689 912.918 32.2689 925.188L32.2689 985.003L138.731 985.003Z" fill="#EEEEEE"/>
<path d="M171 695.922C171 717.905 167.612 736.736 160.837 752.414C153.892 767.921 144.067 779.85 131.363 788.201C118.658 796.38 103.413 800.47 85.6271 800.47C67.6716 800.47 52.3418 796.38 39.6374 788.201C26.9331 779.85 17.1932 767.921 10.4175 752.414C3.4725 736.736 -1.31613e-05 717.905 -1.41222e-05 695.922C-1.50905e-05 673.769 3.4725 654.938 10.4175 639.431C17.1931 623.923 26.9331 612.079 39.6374 603.9C52.3417 595.549 67.6716 591.374 85.627 591.374C103.413 591.374 118.658 595.549 131.363 603.9C144.067 612.079 153.892 623.923 160.837 639.431C167.612 654.938 171 673.769 171 695.922ZM141.78 695.922C141.78 682.289 139.747 670.36 135.682 660.136C131.617 649.741 125.434 641.646 117.134 635.852C108.834 629.887 98.3314 626.905 85.6271 626.905C72.9227 626.905 62.4205 629.887 54.1204 635.852C45.8202 641.646 39.6374 649.741 35.5721 660.136C31.3373 670.36 29.2199 682.289 29.2199 695.922C29.2199 709.385 31.3373 721.399 35.5721 731.964C39.6374 742.53 45.8202 750.795 54.1204 756.759C62.4205 762.724 72.9227 765.706 85.6271 765.706C98.3314 765.706 108.834 762.724 117.134 756.759C125.434 750.795 131.617 742.53 135.682 731.964C139.747 721.399 141.78 709.385 141.78 695.922Z" fill="#EEEEEE"/>
<path d="M167.697 558.188L3.3031 558.188L3.3031 462.842C3.3031 440.689 7.02969 423.903 14.4829 412.485C21.7667 400.897 32.6924 395.103 47.26 395.103C56.5765 395.103 63.945 397.404 69.3655 402.005C74.6166 406.606 78.5126 413.167 81.0535 421.688C83.5943 430.038 85.2036 439.922 85.8811 451.339L84.1025 450.317C84.2719 441.967 84.8648 434.128 85.8811 426.8C86.8975 419.302 88.7608 412.741 91.471 407.117C94.1813 401.494 97.9926 397.063 102.905 393.825C107.648 390.587 113.915 388.968 121.707 388.968C131.871 388.968 140.34 391.695 147.116 397.148C153.722 402.601 158.719 410.185 162.107 419.898C165.495 429.612 167.358 440.859 167.697 453.64L167.697 558.188ZM139.747 524.191L139.747 457.219C139.747 446.483 138.054 438.218 134.666 432.424C131.108 426.63 125.519 423.733 117.896 423.733C112.306 423.733 108.241 425.437 105.7 428.845C103.159 432.253 101.634 436.769 101.126 442.393C100.449 448.016 100.11 454.066 100.11 460.542L100.11 524.191L139.747 524.191ZM72.9227 524.191L72.9227 464.12C72.9227 453.384 71.3982 445.119 68.3492 439.325C65.1307 433.531 59.7102 430.634 52.0877 430.634C44.4651 430.634 39.1293 433.531 36.0802 439.325C32.8618 445.119 31.2526 452.788 31.2526 462.331L31.2526 524.191L72.9227 524.191Z" fill="#EEEEEE"/>
<path d="M167.697 358.736L3.3031 358.736L3.30309 246.519C3.30309 233.738 5.08169 222.661 8.63889 213.289C12.0267 203.746 17.4472 196.333 24.9004 191.05C32.1842 185.767 41.5854 183.126 53.104 183.126C60.896 183.126 67.5022 184.489 72.9227 187.216C78.3432 189.942 82.7474 193.776 86.1352 198.718C89.523 203.49 92.1486 209.028 94.0119 215.334C95.7058 221.639 96.8068 228.37 97.315 235.527L95.2823 239.106C95.4517 227.177 96.468 217.379 98.3313 209.71C100.025 202.041 103.244 196.333 107.987 192.584C112.56 188.664 119.421 186.704 128.568 186.704L167.697 186.704L167.697 220.702L130.854 220.702C124.587 220.702 119.759 221.809 116.371 224.025C112.814 226.24 110.358 230.245 109.003 236.039C107.648 241.662 106.97 249.842 106.97 260.578L106.97 324.738L167.697 324.738L167.697 358.736ZM80.5453 324.738L80.5453 246.519C80.5453 236.976 78.2585 229.733 73.685 224.792C69.1114 219.679 62.9287 217.123 55.1367 217.123C47.6835 217.123 42.0089 219.679 38.1129 224.792C34.2169 229.733 32.2689 236.976 32.2689 246.519L32.2689 324.738L80.5453 324.738Z" fill="#EEEEEE"/>
<path d="M99.0936 113.554L139.493 113.554L139.493 -14L167.697 -14L167.697 147.551L3.30309 147.551L3.30308 -13.7444L31.5067 -13.7444L31.5067 113.554L72.4145 113.554L72.4145 9.26123L99.0936 9.26123L99.0936 113.554Z" fill="#EEEEEE"/>
</svg>
