<svg width="22" height="22" viewBox="0 0 22 22" fill="none" xmlns="http://www.w3.org/2000/svg">
<path d="M11.001 5.15022C11.4532 5.15022 11.8198 4.78365 11.8198 4.33147C11.8198 3.87929 11.4532 3.51272 11.001 3.51272C10.5488 3.51272 10.1823 3.87929 10.1823 4.33147C10.1823 4.78365 10.5488 5.15022 11.001 5.15022Z" fill="black" stroke="black" stroke-width="0.3"/>
<path d="M12.3306 7.5125L12.3312 7.5125L18.9996 7.5125C18.9997 7.5125 18.9997 7.5125 18.9998 7.5125H19V7.6625C19.1753 7.66204 19.3497 7.68448 19.5188 7.7291L12.3306 7.5125ZM12.3306 7.5125C11.7614 7.51494 11.2161 7.74173 10.813 8.14366L12.3306 7.5125ZM4.33125 18.4812H10.1813V19.5125H7.66875H7.51875V19.6625V21V21.15H7.66875H19C19.5702 21.15 20.1171 20.9235 20.5203 20.5203C20.9235 20.1171 21.15 19.5702 21.15 19V4.33125C21.15 3.40797 20.7832 2.5225 20.1304 1.86963C19.4775 1.21677 18.592 0.85 17.6688 0.85H4.33125C3.40796 0.85 2.5225 1.21677 1.86963 1.86963C1.21677 2.5225 0.85 3.40796 0.85 4.33125V15C0.85 15.9233 1.21677 16.8088 1.86963 17.4616C2.5225 18.1145 3.40797 18.4812 4.33125 18.4812ZM19.5188 4.33125V7.57434L10.9188 8.25C10.7324 8.43496 10.5845 8.65502 10.4837 8.89746C10.3828 9.1399 10.331 9.39992 10.3313 9.6625H10.1813V9.66263V16.85H4.3375C3.84685 16.85 3.37629 16.6551 3.02935 16.3081C2.68241 15.9612 2.4875 15.4907 2.4875 15V4.33125C2.4875 3.8406 2.68241 3.37004 3.02935 3.0231C3.37629 2.67616 3.84685 2.48125 4.3375 2.48125H17.6688C18.1594 2.48125 18.63 2.67616 18.9769 3.0231C19.3238 3.37004 19.5188 3.8406 19.5188 4.33125ZM19.3636 19.3618L19.3058 19.4186L19.3107 19.4435C19.2228 19.508 19.1161 19.5434 19.0058 19.5438H11.8187V18.4812H19.5188V18.999C19.5168 19.1356 19.4611 19.266 19.3636 19.3618ZM19.5188 16.85H11.8187V9.66875C11.8187 9.53117 11.8734 9.39922 11.9707 9.30194C12.068 9.20465 12.1999 9.15 12.3375 9.15H19C19.1376 9.15 19.2695 9.20465 19.3668 9.30194C19.4641 9.39922 19.5188 9.53117 19.5188 9.66875V16.85Z" fill="black" stroke="black" stroke-width="0.3"/>
</svg>
