<svg xmlns="http://www.w3.org/2000/svg" width="17" height="17" viewBox="0 0 17 17" fill="none">
    <g clip-path="url(#clip0_422_12305)">
        <path d="M16.8583 8.13027C16.7662 7.88306 14.5208 2.08252 8.5 2.08252C2.47917 2.08252 0.230917 7.88306 0.141667 8.13027L0 8.50002L0.141667 8.86977C0.23375 9.11698 2.47917 14.9175 8.5 14.9175C14.5208 14.9175 16.7691 9.11698 16.8583 8.86977L17 8.50002L16.8583 8.13027ZM8.5 12.8102C4.66225 12.8102 2.80429 9.61281 2.27375 8.50002C2.80571 7.38439 4.66437 4.18981 8.5 4.18981C12.3356 4.18981 14.1936 7.38369 14.7263 8.50002C14.1936 9.61635 12.3356 12.8102 8.5 12.8102Z" fill="#646E74"/>
        <path d="M8.50008 11.3334C10.0649 11.3334 11.3334 10.0649 11.3334 8.50008C11.3334 6.93527 10.0649 5.66675 8.50008 5.66675C6.93527 5.66675 5.66675 6.93527 5.66675 8.50008C5.66675 10.0649 6.93527 11.3334 8.50008 11.3334Z" fill="#646E74"/>
    </g>
    <defs>
        <clipPath id="clip0_422_12305">
            <rect width="17" height="17" fill="white"/>
        </clipPath>
    </defs>
</svg>
