<svg width="405" height="343" viewBox="0 0 405 343" fill="none" xmlns="http://www.w3.org/2000/svg">
<path d="M-2.68079 1.91333C-16.8875 25.5294 -24.4593 53.0169 -23.2388 80.6193C-22.0643 106.411 -12.9923 131.252 2.76877 151.722C18.5299 172.192 39.0744 186.484 63.126 193.194C87.3776 199.928 113.821 198.374 136.973 188.507C142.766 186.05 148.319 183.055 153.542 179.531C158.765 176.006 164.508 171.205 166.385 164.749C168.043 159.001 165.888 153.057 161.389 149.257C156.643 145.272 150.543 144.139 144.52 145.032C131.448 147.013 120.698 156.96 113.402 167.448C105.582 178.681 100.724 191.857 98.7018 205.351C94.6795 232.256 101.617 259.445 115.823 282.418C130.028 305.39 149.198 322.941 171.394 336.466C193.59 349.992 218.368 358.725 243.935 362.42C269.503 366.116 295.646 364.688 320.593 357.926C326.732 356.269 332.712 354.215 338.654 351.974C340.296 351.352 339.586 348.714 337.944 349.336C315.019 358.025 290.135 361.471 265.684 360.434C241.144 359.402 216.766 354.02 194.277 344.013C171.685 333.949 151.089 319.408 134.54 300.997C117.584 282.123 104.934 258.741 101.886 233.332C98.8387 207.924 104.943 179.306 123.417 160.578C131.518 152.369 146.322 143.155 157.688 150.624C163.104 154.198 165.139 160.7 161.986 166.519C158.833 172.338 152.964 176.073 147.509 179.359C126.804 191.769 101.647 196.233 77.8231 192.857C54.0546 189.496 32.1962 178.125 15.2069 161.247C-1.78244 144.369 -13.8221 122.124 -18.5642 98.414C-23.7849 72.3051 -20.5109 44.6686 -10.3204 20.1828C-7.81366 14.1314 -4.86104 8.28804 -1.46985 2.68011C-0.993544 1.89364 -2.24676 1.17451 -2.69554 1.96835L-2.68079 1.91333Z" fill="#2540E4"/>
<path d="M13.5222 317.195C33.0578 299.901 56.0681 286.93 80.4332 277.713C105.494 268.21 132.879 261.158 159.876 264.146C172.829 265.582 185.636 269.544 196.821 276.257C208.007 282.969 216.518 292.061 222.749 303.167C228.98 314.272 232.423 325.869 234.892 337.912C237.608 351.231 239.034 364.853 239.672 378.44C241.054 407.088 238.431 435.931 232.372 463.942C231.623 467.398 230.826 470.811 230.05 474.259C229.707 475.76 231.909 476.35 232.362 474.879C241.056 446.837 244.347 416.935 243.757 387.643C243.47 373.295 242.209 358.951 239.866 344.788C237.813 332.296 234.631 319.944 229.313 308.405C223.995 296.866 216.34 286.558 206.265 278.787C196.19 271.016 183.202 265.413 170.256 262.74C143.055 257.103 114.819 262.924 88.9781 271.923C64.0481 280.605 40.2747 292.901 19.6988 309.561C17.141 311.618 14.6786 313.76 12.2365 315.936C11.3801 316.709 12.6457 317.933 13.4671 317.18L13.5222 317.195Z" fill="#2540E4"/>
</svg>
