<svg xmlns="http://www.w3.org/2000/svg" width="17" height="16" viewBox="0 0 17 16" fill="none">
    <g clip-path="url(#clip0_876_338)">
        <path d="M8.5177 15.641L7.94037 15.233C7.18037 14.6957 0.517701 9.85501 0.517701 5.43301C0.474595 4.194 0.923747 2.98832 1.76698 2.0795C2.61021 1.17069 3.77894 0.632652 5.0177 0.583008C5.70148 0.589728 6.37418 0.756451 6.98195 1.06983C7.58972 1.38321 8.11567 1.83453 8.5177 2.38767C8.91973 1.83453 9.44569 1.38321 10.0535 1.06983C10.6612 0.756451 11.3339 0.589728 12.0177 0.583008C13.2565 0.632652 14.4252 1.17069 15.2684 2.0795C16.1117 2.98832 16.5608 4.194 16.5177 5.43301C16.5177 9.85501 9.85504 14.6957 9.09504 15.233L8.5177 15.641ZM5.0177 2.58301C4.30968 2.63317 3.65002 2.9606 3.18196 3.4942C2.71389 4.02779 2.4752 4.72448 2.5177 5.43301C2.5177 8.04367 6.42637 11.573 8.5177 13.1737C10.609 11.5737 14.5177 8.04367 14.5177 5.43301C14.5602 4.72448 14.3215 4.02779 13.8534 3.4942C13.3854 2.9606 12.7257 2.63317 12.0177 2.58301C11.3097 2.63317 10.65 2.9606 10.182 3.4942C9.71389 4.02779 9.4752 4.72448 9.5177 5.43301H7.5177C7.56021 4.72448 7.32152 4.02779 6.85345 3.4942C6.38538 2.9606 5.72572 2.63317 5.0177 2.58301Z" fill="black"/>
    </g>
    <defs>
        <clipPath id="clip0_876_338">
            <rect width="16" height="16" fill="white" transform="translate(0.5177 -0.000488281)"/>
        </clipPath>
    </defs>
</svg>