<svg xmlns="http://www.w3.org/2000/svg" width="13" height="13" viewBox="0 0 13 13" fill="none">
    <path d="M11.9858 6.89801C12.043 6.11071 11.93 5.32032 11.6545 4.58057C11.3791 3.84082 10.9476 3.16903 10.3894 2.61086C9.8312 2.05268 9.15939 1.62121 8.41962 1.34574C7.67985 1.07028 6.88945 0.957282 6.10212 1.01443C4.70692 1.17377 3.4181 1.83768 2.47837 2.88116C1.53864 3.92463 1.01285 5.27567 1 6.67985L1 9.75974C1 11.307 1.92094 12 2.83332 12H6.31662C7.72143 11.9879 9.07333 11.4625 10.1176 10.5227C11.1618 9.58296 11.8263 8.29375 11.9858 6.89801ZM9.52493 3.47591C9.95877 3.9107 10.2942 4.4336 10.5084 5.00924C10.7226 5.58488 10.8107 6.19982 10.7667 6.81246C10.6363 7.90244 10.1119 8.90716 9.2923 9.63749C8.4727 10.3678 7.4144 10.7734 6.31662 10.7778H2.83332C2.26621 10.7778 2.22221 9.99868 2.22221 9.75974V6.67985C2.22731 5.58256 2.63327 4.52497 3.36371 3.70609C4.09414 2.88721 5.09868 2.36352 6.18829 2.23356C6.28973 2.22623 6.39118 2.22256 6.49262 2.22256C7.05561 2.22204 7.61319 2.33246 8.13349 2.54751C8.65379 2.76257 9.12661 3.07804 9.52493 3.47591Z" fill="black" stroke="black" stroke-width="0.6"/>
</svg>