<svg width="310" height="412" viewBox="0 0 310 412" fill="none" xmlns="http://www.w3.org/2000/svg">
<path d="M16.5279 13.6041C36.0909 7.98354 57.1474 7.83619 76.6052 13.9831C94.7799 19.751 110.767 30.9712 122.357 46.1278C133.948 61.2845 140.217 78.6726 140.406 97.1132C140.574 115.701 134.411 134.268 122.946 148.898C120.086 152.561 116.888 155.951 113.375 159.003C109.862 162.055 105.34 165.234 100.375 165.339C95.9579 165.423 92.1294 162.75 90.2783 158.813C88.343 154.666 88.7006 150.098 90.4886 145.972C94.4012 137.026 103.552 131.258 112.429 128.058C121.937 124.627 132.265 123.679 142.278 124.816C162.241 127.09 180.31 137.236 193.983 151.761C207.656 166.287 216.512 183.317 221.918 201.736C227.324 220.156 228.818 239.502 226.567 258.448C224.316 277.393 218.3 295.771 208.708 312.275C206.352 316.338 203.744 320.211 201.009 324.021C200.252 325.074 198.506 324.063 199.263 323.011C209.844 308.317 217.059 291.224 220.993 273.583C224.947 255.879 225.768 237.46 222.928 219.503C220.067 201.463 213.63 183.99 203.659 168.665C193.436 152.961 179.174 139.468 161.631 132.437C144.087 125.406 122.505 124.29 105.613 133.889C98.2087 138.099 88.8058 146.899 91.9611 156.435C93.4757 160.982 97.7249 163.676 102.479 162.539C107.233 161.403 111.019 157.929 114.406 154.666C127.217 142.267 135.21 125.174 137.356 107.533C139.501 89.9348 135.568 72.1678 126.775 56.8217C117.982 41.4756 104.414 28.6345 88.4061 20.7194C70.7784 12.0043 50.4371 9.05714 31.0214 11.6464C26.2253 12.2779 21.4923 13.2673 16.8435 14.6146C16.1914 14.804 15.9179 13.7725 16.57 13.6041L16.5279 13.6041Z" fill="#F4F4F4"/>
<path d="M23.2389 190.6C35.9022 187.822 49.1546 187.969 61.7969 190.769C74.4392 193.569 86.6608 199.126 97.0944 206.978C107.528 214.83 116.342 225.25 122.211 237.144C128.08 249.038 131.382 262.889 131.593 276.467C131.803 290.045 128.984 303.475 123.073 315.643C122.337 317.159 121.538 318.632 120.696 320.085C120.149 321.053 118.719 320.19 119.224 319.222C131.067 295.666 132.118 267.268 121.958 242.912C111.798 218.556 90.8679 201.315 66.1512 193.926C52.352 189.8 37.6902 188.958 23.5965 191.99C22.6919 192.179 22.3133 190.811 23.2178 190.6L23.2389 190.6Z" fill="#F4F4F4"/>
<path d="M238.347 85.4297C222.276 96.0604 208.624 109.996 197.391 125.616C185.822 141.678 175.556 159.866 172.527 179.696C171.076 189.211 171.455 199.105 174.105 208.367C176.756 217.63 181.615 225.439 188.346 232.007C195.077 238.575 202.692 243.248 210.812 247.311C219.794 251.795 229.239 255.416 238.81 258.468C258.983 264.931 280.061 268.573 301.201 269.604C303.81 269.731 306.397 269.815 309.006 269.92C310.141 269.962 310.141 271.646 309.006 271.688C287.339 272.53 265.378 269.162 244.595 263.142C234.414 260.194 224.422 256.553 214.767 252.174C206.247 248.322 198.043 243.691 190.828 237.691C183.613 231.692 177.723 224.261 174.105 215.588C170.487 206.915 168.972 196.579 169.54 186.832C170.718 166.349 180.268 147.319 191.628 130.605C202.587 114.48 215.903 99.8706 231.721 88.3768C233.678 86.9453 235.676 85.5981 237.695 84.2719C238.41 83.8087 239.042 84.9455 238.347 85.3875L238.347 85.4297Z" fill="#F4F4F4"/>
<path d="M142.552 365.355C142.533 348.26 142.211 49.1285 142.211 35.5711C142.211 23.1793 146.449 16.0229 150.001 12.1998C153.83 8.08436 157.67 6.81633 158.292 6.6303C170.45 2.80341 178.87 3.49437 184.479 5.45717C184.805 4.07145 185.48 2.90592 186.528 2.10485C189.996 -0.548913 196.215 1.73659 200.575 7.19598C213.997 4.07904 232.601 13.259 245.992 30.7913L198.579 67.0442C185.188 49.5119 181.219 29.1436 187.75 17.0024C186.566 15.3813 185.678 13.6842 185.093 12.0213C184.551 11.729 183.951 11.4443 183.283 11.1823C179.193 9.5688 171.831 8.42225 160 12.1504H160.015L159.95 12.1656C159.461 12.3137 147.986 16.0495 147.986 35.5673C147.986 49.1247 148.309 348.32 148.328 365.352H175.884V368.996H115V365.352H142.552V365.355Z" fill="black"/>
<path d="M4.57764e-05 395.408C4.57764e-05 406.453 8.95435 415.408 20 415.408H144.511L88.7928 110.352H4.57764e-05V395.408Z" fill="url(#paint0_linear_532_1126)"/>
<path d="M195 396C195 407.046 186.046 416 175 416H20C8.9543 416 0 407.046 0 396V347H195V396Z" fill="black"/>
<path d="M187.396 379.63L209.783 360.588C227.675 345.386 236.266 322.844 234.209 300.648C233.594 294.025 232.044 287.465 229.507 281.113C228.263 277.98 226.786 274.912 225.049 271.905C215.346 255.098 199.785 243.803 182.39 239.119C165.075 234.456 145.944 236.393 129.163 246.081L115.01 254.253L187.396 379.63Z" fill="url(#paint1_linear_532_1126)"/>
<path d="M150.574 294.988C151.396 294.795 162.286 294.055 161.683 295.751C160.688 298.552 157.838 300.756 156.267 303.294C155.395 304.702 157.843 303.142 158.263 303.001C162.486 301.588 166.909 301.096 171.31 301.049C175.672 301.002 180.012 300.164 184.338 300.289C185.151 300.312 187.551 300.946 188.071 301.609C188.542 302.209 181.323 307.752 180.592 308.471C178.332 310.694 178.848 309.907 181.462 309.532C198.089 307.143 214.971 306.202 231.708 307.25" stroke="black" stroke-width="6" stroke-linecap="round"/>
<path d="M229.497 281.096C228.253 277.962 226.776 274.895 225.039 271.888C215.336 255.081 199.775 243.786 182.38 239.102C165.066 234.439 145.934 236.376 129.153 246.064L115 254.235L229.487 281.079L229.497 281.096Z" fill="#4A7143"/>
<path d="M50.2065 375.54V268.441C50.2065 268.441 78.8544 268.441 78.8544 299.292C78.8544 330.144 68.2767 375.54 68.2767 375.54H50.2065Z" fill="#4A7143"/>
<path d="M50.6478 375.54V268.441C50.6478 268.441 21.9999 268.441 21.9999 299.292C21.9999 330.144 32.5776 375.54 32.5776 375.54H50.6478Z" fill="#4A7143"/>
<path d="M45.3587 375.54C50.4336 333.707 55.4236 289.156 50.2068 272.848C50.2068 272.848 57.2586 274.611 55.4957 309.43C53.7327 344.248 53.7327 375.54 53.7327 375.54H45.3587Z" fill="black"/>
<path d="M56.3768 375.539C65.6322 347.333 95.1616 283.867 51.0879 268C51.0879 268 84.1432 269.322 79.2951 309.87C74.447 350.418 68.2767 375.539 68.2767 375.539H56.3768Z" fill="black"/>
<rect x="24.6441" y="375.099" width="52.8884" height="40.5478" fill="#F4973B"/>
<path d="M33.8989 335.874L36.1025 375.099H41.8321L33.8989 335.874Z" fill="black"/>
<defs>
<linearGradient id="paint0_linear_532_1126" x1="72.2558" y1="110.352" x2="72.2558" y2="415.408" gradientUnits="userSpaceOnUse">
<stop stop-color="#F59144"/>
<stop offset="1" stop-color="#E54D71"/>
</linearGradient>
<linearGradient id="paint1_linear_532_1126" x1="151.203" y1="316.941" x2="226.089" y2="273.706" gradientUnits="userSpaceOnUse">
<stop stop-color="#F59244"/>
<stop offset="1" stop-color="#E03B7D"/>
</linearGradient>
</defs>
</svg>
