<svg width="21" height="20" viewBox="0 0 21 20" fill="none" xmlns="http://www.w3.org/2000/svg">
<g id="g105">
<g id="g107">
<g id="Clip path group">
<mask id="mask0_982_11296" style="mask-type:luminance" maskUnits="userSpaceOnUse" x="0" y="0" width="21" height="20">
<g id="clipPath113">
<path id="path111" d="M0.316406 0H20.3164V20H0.316406V0Z" fill="white"/>
</g>
</mask>
<g mask="url(#mask0_982_11296)">
<g id="g109">
<g id="g115">
<path id="path117" d="M5.60938 11.0898C5.60938 10.3471 6.21148 9.745 6.95426 9.745C7.69699 9.745 8.2991 10.3471 8.2991 11.0898" stroke="black" stroke-width="1.8" stroke-miterlimit="10"/>
</g>
<g id="g119">
<path id="path121" d="M12.3335 11.0898C12.3335 10.3471 12.9356 9.745 13.6783 9.745C14.4211 9.745 15.0232 10.3471 15.0232 11.0898" stroke="black" stroke-width="1.8" stroke-miterlimit="10"/>
</g>
<g id="g123">
<path id="path125" d="M7.99854 13.7795C8.46639 14.5724 9.32889 15.1046 10.3162 15.1046C11.3034 15.1046 12.1659 14.5724 12.6338 13.7795" stroke="black" stroke-width="1.8" stroke-miterlimit="10"/>
</g>
<g id="g127">
<path id="path129" d="M19.7305 10.8555C19.7305 11.9563 18.8488 12.8512 17.7527 12.8719C16.8668 16.148 13.873 18.5586 10.3164 18.5586C6.75977 18.5586 3.76602 16.148 2.88008 12.8719C1.78398 12.8512 0.902344 11.9563 0.902344 10.8555C0.902344 10.2984 1.12812 9.79414 1.49297 9.42891C1.84961 9.07266 2.33867 8.84922 2.88008 8.83906C3.76602 5.56289 6.75977 3.15234 10.3164 3.15234C13.873 3.15234 16.8668 5.56289 17.7527 8.83906C18.2941 8.84922 18.7832 9.07266 19.1398 9.42891C19.5047 9.79414 19.7305 10.2984 19.7305 10.8555Z" stroke="black" stroke-width="1.8" stroke-miterlimit="10"/>
</g>
<g id="g131">
<path id="path133" d="M7.80951 5.65909C7.80951 7.04351 8.93178 8.16577 10.3162 8.16577C11.7006 8.16577 12.8229 7.04351 12.8229 5.65909C12.8229 4.27468 11.7006 3.15241 10.3162 3.15241H9.92334C8.65482 3.15241 7.62646 2.12405 7.62646 0.855497" stroke="black" stroke-width="1.8" stroke-miterlimit="10"/>
</g>
<g id="g135">
<path id="path137" d="M10.3165 3.15234H7.23389C5.96533 3.15234 4.93701 2.12398 4.93701 0.855469" stroke="black" stroke-width="1.8" stroke-miterlimit="10"/>
</g>
</g>
</g>
</g>
</g>
</g>
</svg>
