<svg width="22" height="22" viewBox="0 0 22 22" fill="none" xmlns="http://www.w3.org/2000/svg">
<path id="Vector" d="M7.74938 17.1384C7.84269 17.17 7.93774 17.185 8.03133 17.185C8.39891 17.185 8.74206 16.9531 8.86619 16.5853C9.02186 16.1242 8.77419 15.6242 8.31308 15.4685C7.083 15.0533 6.25647 13.9015 6.25625 12.6021C6.29164 9.30457 10.8001 8.4144 12.0807 11.4526C12.2659 11.9025 12.7807 12.1171 13.2307 11.9322L13.2307 11.9322C13.6808 11.7472 13.8957 11.2322 13.7107 10.7821L13.7103 10.7813C11.6855 5.97334 4.54944 7.38247 4.49375 12.6005V12.6015C4.49375 14.6578 5.80208 16.4811 7.74938 17.1384ZM7.74938 17.1384L7.78119 17.0443L7.74943 17.1385C7.74941 17.1385 7.7494 17.1385 7.74938 17.1384ZM7.79688 21.1V21.1001L7.80055 21.0999C8.96329 21.0572 8.96483 19.3807 7.80058 19.3376L7.80058 19.3375H7.79688H5.6875C4.0196 19.3375 2.6625 17.9804 2.6625 16.3125V4.20312C2.6625 3.3537 3.3537 2.6625 4.20312 2.6625H14.2812C15.1307 2.6625 15.8219 3.3537 15.8219 4.20312V10.8438H15.8218L15.8219 10.8474C15.8647 12.0102 17.5411 12.0117 17.5843 10.8475L17.5844 10.8475V10.8438V4.20312C17.5844 2.38169 16.1027 0.9 14.2812 0.9H4.20312C2.38169 0.9 0.9 2.38169 0.9 4.20312V16.3125C0.9 18.9524 3.04758 21.1 5.6875 21.1H7.79688ZM13.4609 5.82656V5.82663L13.4646 5.8265C14.6274 5.78374 14.6289 4.10731 13.4646 4.06413L13.4646 4.06406H13.4609H10.3359V4.06399L10.3323 4.06413C9.16952 4.10689 9.16799 5.78332 10.3322 5.82649L10.3322 5.82656H10.3359H13.4609ZM20.2188 21.1V21.1001L20.2224 21.0999C21.3852 21.0572 21.3867 19.3807 20.2225 19.3376L20.2225 19.3375H20.2188H12.0176C11.1135 19.3017 11.1133 18.0112 12.0176 17.975H18.6562V17.9751L18.66 17.9749C21.8914 17.853 21.8945 13.2107 18.6601 13.0876L18.6601 13.0875H18.6562H10.8438V13.0874L10.8401 13.0876C9.67734 13.1303 9.6758 14.8068 10.84 14.8499L10.84 14.85H10.8438H18.6543C19.5584 14.8859 19.5585 16.1763 18.6543 16.2125H12.0156V16.2124L12.0119 16.2126C8.78043 16.3345 8.77738 20.9768 12.0118 21.0999L12.0118 21.1H12.0156H20.2188ZM5.10156 6.06094V6.06101L5.10526 6.06087C6.52774 6.00822 6.52721 3.96031 5.10525 3.90788L5.10525 3.90781H5.10156C4.507 3.90781 4.025 4.38977 4.025 4.98438C4.025 5.57894 4.507 6.06094 5.10156 6.06094Z" fill="black" stroke="black" stroke-width="0.2"/>
</svg>
