<svg xmlns="http://www.w3.org/2000/svg" width="21" height="19" viewBox="0 0 21 19" fill="none">
    <path d="M19.4323 3.17599L19.5559 3.09091C18.8523 2.0694 17.5167 0.85 15.1716 0.85C12.9352 0.85 11.4092 1.93199 10.5685 2.76112C9.72777 1.93199 8.20176 0.85 5.96535 0.85C3.6203 0.85 2.28461 2.0694 1.58111 3.09091L1.70465 3.17599L1.58111 3.09091C0.860497 4.13728 0.432032 5.53379 0.432032 6.83193C0.432032 7.34567 0.848478 7.76212 1.36222 7.76212C1.87596 7.76212 2.29241 7.34567 2.29241 6.83193C2.29241 6.25867 2.45967 5.21955 3.00571 4.32902C3.54666 3.44679 4.45753 2.71038 5.96535 2.71038C7.01075 2.71038 7.96428 3.03789 8.80338 3.68612L8.89509 3.56742L8.80339 3.68612C9.43499 4.17402 9.76769 4.67382 9.78349 4.69781C9.9527 4.97148 10.2467 5.13721 10.5695 5.13721C10.8935 5.13721 11.1868 4.96732 11.3554 4.69482C11.3576 4.69151 11.3619 4.68507 11.3688 4.67512C11.3788 4.66069 11.394 4.63914 11.4145 4.61151C11.4554 4.55622 11.5171 4.4767 11.5993 4.38127C11.7638 4.19027 12.0095 3.93651 12.3336 3.68612C13.1728 3.03793 14.1263 2.71038 15.1716 2.71038C16.6795 2.71038 17.5903 3.44679 18.1313 4.32902C18.6773 5.21955 18.8446 6.25867 18.8446 6.83193C18.8446 7.72804 18.6073 8.65611 18.1341 9.59118C18.1341 9.59118 18.1341 9.59118 18.1341 9.59119L18.268 9.65892C18.0734 10.0434 18.2273 10.5128 18.6118 10.7073L19.4323 3.17599ZM19.4323 3.17599L19.5559 3.09091C20.2765 4.13728 20.7049 5.53379 20.7049 6.83193C20.7049 8.02841 20.397 9.23965 19.794 10.4312C19.6301 10.7552 19.3027 10.9416 18.9635 10.9416L19.4323 3.17599ZM10.1596 18.2976L10.2255 18.1628L10.1596 18.2976C10.0596 18.2487 7.77846 17.1233 5.44342 15.2185L5.53824 15.1023L5.44342 15.2185C5.04534 14.8938 4.98591 14.3078 5.31063 13.9098C5.63535 13.5117 6.22128 13.4522 6.61941 13.777C8.2244 15.0862 9.83678 16.0165 10.5704 16.4135C11.3062 16.0186 12.9241 15.091 14.5321 13.7771L14.5321 13.7771C14.9299 13.4521 15.5159 13.5109 15.841 13.9088C16.166 14.3066 16.107 14.8926 15.7092 15.2176C13.3675 17.1313 11.0744 18.2506 10.9739 18.2993C10.8459 18.3613 10.7071 18.3923 10.5685 18.3923C10.4286 18.3923 10.2886 18.3607 10.1596 18.2976ZM19.2688 14.8696L19.3547 14.7466L19.2688 14.8696L10.6021 8.81026L7.43139 11.0821C7.14801 11.2852 6.77472 11.3127 6.46458 11.1533C6.15447 10.994 5.95945 10.6746 5.95945 10.3259V9.10631H4.69907V12.5078C4.69907 12.8176 4.5449 13.107 4.28778 13.2798L1.9082 14.8792L1.82453 14.7547L1.90819 14.8792C1.74913 14.9861 1.56855 15.0375 1.39 15.0375C1.09107 15.0375 0.79689 14.8933 0.617283 14.6261C0.330696 14.1997 0.443989 13.6218 0.87039 13.3352L2.83869 12.0123V8.17612C2.83869 7.66238 3.25513 7.24593 3.76888 7.24593H6.88964C7.40339 7.24593 7.81984 7.66238 7.81984 8.17612V8.51514L10.0538 6.91454C10.3744 6.68472 10.8052 6.68226 11.1285 6.9083L20.3348 13.3449C20.7558 13.6392 20.8585 14.2192 20.5641 14.6402C20.2697 15.0613 19.6898 15.1639 19.2688 14.8696ZM10.2054 13.6331C9.90713 13.6331 9.66532 13.3913 9.66532 13.093V12.3128C9.66532 12.0145 9.90713 11.7727 10.2054 11.7727H10.9856C11.2839 11.7727 11.5257 12.0145 11.5257 12.3128V13.093C11.5257 13.3913 11.2839 13.6331 10.9856 13.6331H10.2054Z" fill="black" stroke="black" stroke-width="0.3"/>
</svg>