<svg width="1680" height="470" viewBox="0 0 1680 470" fill="none" xmlns="http://www.w3.org/2000/svg">
<mask id="mask0_532_1438" style="mask-type:alpha" maskUnits="userSpaceOnUse" x="0" y="0" width="1680" height="470">
<path d="M0 0H1680V446C1680 459.255 1669.25 470 1656 470H23C10.2974 470 0 459.703 0 447V0Z" fill="#EFF6FF"/>
</mask>
<g mask="url(#mask0_532_1438)">
<path d="M1544 128.149V128.156C1544 128.446 1544 128.73 1543.99 129.027C1543.77 129.02 1543.53 129.02 1543.3 129.02C1516.41 129.02 1494.6 150.481 1494.5 177C1494.41 150.481 1472.59 129.02 1445.7 129.02C1445.47 129.02 1445.23 129.02 1445.01 129.027C1445 128.73 1445 128.446 1445 128.156V128.149C1445.23 128.156 1445.46 128.156 1445.7 128.156C1472.65 128.156 1494.5 106.595 1494.5 80C1494.5 106.595 1516.35 128.156 1543.3 128.156C1543.54 128.156 1543.77 128.156 1544 128.149Z" fill="#EDBC2C"/>
<path d="M1364.41 430.814C1388.69 437.789 1414.82 437.972 1438.97 430.343C1461.53 423.185 1481.37 409.259 1495.76 390.448C1510.14 371.637 1517.92 350.057 1518.16 327.17C1518.37 304.1 1510.72 281.056 1496.49 262.899C1492.94 258.353 1488.97 254.146 1484.61 250.358C1480.25 246.57 1474.64 242.624 1468.47 242.494C1462.99 242.389 1458.24 245.707 1455.94 250.593C1453.54 255.74 1453.99 261.409 1456.2 266.53C1461.06 277.634 1472.42 284.793 1483.43 288.764C1495.23 293.022 1508.05 294.198 1520.48 292.787C1545.26 289.966 1567.68 277.373 1584.65 259.345C1601.62 241.318 1612.61 220.182 1619.32 197.321C1626.03 174.46 1627.89 150.45 1625.09 126.936C1622.3 103.423 1614.83 80.6142 1602.93 60.131C1600 55.0886 1596.77 50.2813 1593.37 45.5524C1592.43 44.2461 1590.27 45.5001 1591.21 46.8065C1604.34 65.0427 1613.29 86.2574 1618.17 108.151C1623.08 130.124 1624.1 152.984 1620.58 175.27C1617.03 197.661 1609.04 219.346 1596.66 238.366C1583.97 257.856 1566.27 274.603 1544.5 283.33C1522.73 292.056 1495.94 293.44 1474.98 281.527C1465.79 276.301 1454.12 265.381 1458.03 253.545C1459.91 247.902 1465.19 244.558 1471.09 245.969C1476.99 247.379 1481.69 251.69 1485.89 255.74C1501.79 271.128 1511.71 292.343 1514.37 314.237C1517.03 336.079 1512.15 358.13 1501.24 377.176C1490.33 396.222 1473.49 412.159 1453.62 421.983C1431.74 432.799 1406.5 436.457 1382.4 433.243C1376.45 432.459 1370.57 431.232 1364.8 429.559C1363.99 429.324 1363.65 430.604 1364.46 430.814L1364.41 430.814Z" fill="white"/>
<path d="M1639.71 341.67C1619.77 328.476 1602.82 311.181 1588.88 291.795C1574.52 271.86 1561.78 249.287 1558.02 224.676C1556.22 212.867 1556.69 200.587 1559.98 189.092C1563.27 177.596 1569.3 167.903 1577.66 159.752C1586.01 151.6 1595.46 145.8 1605.54 140.758C1616.69 135.193 1628.41 130.699 1640.29 126.911C1665.32 118.89 1691.48 114.37 1717.72 113.09C1720.96 112.933 1724.17 112.828 1727.41 112.698C1728.82 112.646 1728.82 110.555 1727.41 110.503C1700.52 109.458 1673.26 113.638 1647.47 121.111C1634.83 124.768 1622.43 129.288 1610.45 134.722C1599.87 139.504 1589.69 145.251 1580.74 152.697C1571.78 160.144 1564.47 169.366 1559.98 180.13C1555.49 190.894 1553.61 203.723 1554.32 215.819C1555.78 241.24 1567.63 264.858 1581.73 285.603C1595.33 305.616 1611.86 323.748 1631.49 338.013C1633.92 339.789 1636.4 341.461 1638.9 343.107C1639.79 343.682 1640.57 342.271 1639.71 341.723L1639.71 341.67Z" fill="white"/>
<ellipse cx="1300.95" cy="165.737" rx="29.2009" ry="38.5493" transform="rotate(46.3512 1300.95 165.737)" fill="#FD687A"/>
<path d="M1298.46 193.901C1302.98 192.094 1316.54 183.962 1325.57 190.288" stroke="white" stroke-width="3"/>
<path d="M1128.59 136.071C1128.59 136.071 1150.28 149.893 1170.15 165.61C1181.14 174.296 1181.33 175.829 1194.55 191.19C1207.77 206.551 1225.27 194.804 1237.92 187.576C1252.38 176.732 1259.84 175.892 1263.22 174.925C1269.55 173.118 1277.68 176.732 1277.68 176.732" stroke="white" stroke-width="3"/>
<path d="M1106 207.455C1106 207.455 1161.12 251.731 1190.03 257.152C1218.95 262.574 1267.74 209.262 1274.97 207.455C1282.2 205.648 1307.5 208.358 1312.02 207.455C1316.54 206.551 1331.9 191.19 1331.9 191.19C1331.9 191.19 1333.7 184.865 1312.02 197.515" stroke="white" stroke-width="3"/>
<path d="M239 266.733V266.738C239 266.959 239 267.176 238.995 267.402C238.823 267.397 238.637 267.397 238.465 267.397C217.819 267.397 201.075 283.769 200.997 304C200.927 283.769 184.181 267.397 163.535 267.397C163.358 267.397 163.177 267.397 163.005 267.402C163 267.176 163 266.959 163 266.738V266.733C163.177 266.738 163.352 266.738 163.535 266.738C184.227 266.738 200.997 250.289 200.997 230C200.997 250.289 217.773 266.738 238.465 266.738C238.651 266.738 238.823 266.738 239 266.733Z" fill="#EDBC2C"/>
<path d="M559.32 250.525C559.32 250.525 482.217 268.737 474.122 247.658C466.026 226.578 446.142 152.371 446.142 152.371C446.142 152.371 434.704 137.082 432.95 135.104C431.197 133.127 429.973 128.56 432.257 127.948C434.54 127.337 451.687 141.096 451.687 141.096L440.39 117.204C440.39 117.204 438.024 112.943 441.45 112.025C444.875 111.107 463.021 133.165 463.021 133.165C463.021 133.165 479.816 115.27 495.073 129.167C495.787 129.817 495.179 130.988 494.221 130.871C488.176 130.136 475.385 129.822 479.03 141.111C483.757 155.751 495.846 141.5 495.237 133.098" stroke="white" stroke-width="3"/>
<path d="M555.463 208.731C555.463 208.731 505.23 222.191 499.664 215.117C494.098 208.043 483.309 163.213 483.309 163.213C483.309 163.213 491.386 159.826 498.46 154.26C505.534 148.693 503.449 133.344 495.152 134.343" stroke="white" stroke-width="3"/>
<path d="M-75.6447 93.5312C-54.659 87.5018 -32.0712 87.3438 -11.1983 93.9377C8.29805 100.125 25.4476 112.161 37.8811 128.42C50.3146 144.679 57.039 163.332 57.2421 183.113C57.4226 203.053 50.811 222.97 38.5129 238.665C35.4441 242.594 32.0141 246.23 28.2457 249.504C24.4773 252.778 19.6258 256.188 14.3004 256.301C9.5617 256.391 5.45482 253.524 3.46907 249.301C1.39307 244.852 1.77668 239.952 3.69473 235.526C7.89187 225.929 17.7078 219.741 27.2303 216.309C37.4298 212.628 48.5093 211.612 59.2504 212.831C80.6648 215.27 100.048 226.154 114.716 241.736C129.383 257.317 138.883 275.586 144.682 295.345C150.482 315.104 152.084 335.857 149.669 356.181C147.255 376.504 140.801 396.218 130.511 413.922C127.984 418.281 125.186 422.436 122.253 426.523C121.44 427.652 119.567 426.568 120.38 425.439C131.73 409.677 139.47 391.341 143.69 372.417C147.932 353.426 148.812 333.667 145.766 314.404C142.697 295.052 135.792 276.309 125.096 259.869C114.129 243.023 98.8299 228.548 80.0104 221.006C61.191 213.463 38.0391 212.267 19.9192 222.564C11.9762 227.08 1.8895 236.519 5.27429 246.749C6.89899 251.627 11.4572 254.517 16.5569 253.298C21.6567 252.078 25.7184 248.352 29.3514 244.852C43.0937 231.551 51.6685 213.215 53.9701 194.291C56.2718 175.413 52.0521 156.354 42.6198 139.892C33.1875 123.43 18.6329 109.655 1.46078 101.164C-17.4489 91.815 -39.2695 88.6535 -60.0973 91.4311C-65.2421 92.1085 -70.3193 93.1699 -75.3063 94.6151C-76.0058 94.8183 -76.2991 93.7118 -75.5996 93.5312L-75.6447 93.5312Z" fill="white"/>
</g>
</svg>
