<svg width="21" height="22" viewBox="0 0 21 22" fill="none" xmlns="http://www.w3.org/2000/svg">
<path d="M19.2118 0.5H1.47321C0.660406 0.5 0 1.17969 0 2.01406V19.9859C0 20.8203 0.660406 21.5 1.47321 21.5H19.2118C20.0246 21.5 20.6897 20.8203 20.6897 19.9859V2.01406C20.6897 1.17969 20.0246 0.5 19.2118 0.5ZM6.25308 18.5H3.18658V8.47812H6.2577V18.5H6.25308ZM4.71983 7.10938C3.73615 7.10938 2.94181 6.29844 2.94181 5.30469C2.94181 4.31094 3.73615 3.5 4.71983 3.5C5.69889 3.5 6.49784 4.31094 6.49784 5.30469C6.49784 6.30312 5.70351 7.10938 4.71983 7.10938ZM17.7478 18.5H14.6813V13.625C14.6813 12.4625 14.6583 10.9672 13.0881 10.9672C11.4901 10.9672 11.2454 12.2328 11.2454 13.5406V18.5H8.17888V8.47812H11.1207V9.84687H11.1623C11.5733 9.05937 12.5754 8.22969 14.0671 8.22969C17.1706 8.22969 17.7478 10.3062 17.7478 13.0062V18.5Z" fill="#2540E4"/>
</svg>
