<svg width="16" height="16" viewBox="0 0 16 16" fill="none" xmlns="http://www.w3.org/2000/svg">
<g clip-path="url(#clip0_532_1193)">
<path d="M8 0.0140381C6.22093 0.0161556 4.51535 0.723871 3.25742 1.98193C1.99949 3.23998 1.29194 4.94564 1.29 6.7247C1.29 10.2407 6.734 14.944 7.35667 15.4694L8.00133 16.014L8.646 15.4694C9.26733 14.944 14.7127 10.2407 14.7127 6.7247C14.7107 4.94518 14.0028 3.23912 12.7443 1.98099C11.4858 0.722854 9.77953 0.0154498 8 0.0140381ZM8 13.376C5.95667 11.5147 3.28867 8.4907 3.28867 6.7247C3.28867 5.47518 3.78504 4.27684 4.66859 3.39329C5.55213 2.50974 6.75048 2.01337 8 2.01337C9.24952 2.01337 10.4479 2.50974 11.3314 3.39329C12.215 4.27684 12.7113 5.47518 12.7113 6.7247C12.7113 8.48737 10.0427 11.5127 8 13.376Z" fill="black"/>
<path d="M8 8.66604C9.10346 8.66604 9.998 7.77151 9.998 6.66804C9.998 5.56458 9.10346 4.67004 8 4.67004C6.89653 4.67004 6.002 5.56458 6.002 6.66804C6.002 7.77151 6.89653 8.66604 8 8.66604Z" fill="black"/>
</g>
<defs>
<clipPath id="clip0_532_1193">
<rect width="16" height="16" fill="white"/>
</clipPath>
</defs>
</svg>
