<svg width="54" height="41" viewBox="0 0 54 41" fill="none" xmlns="http://www.w3.org/2000/svg">
<path d="M46.0938 0H7.55938C3.41094 0 0 3.41094 0 7.55937V33.3719C0 37.5203 3.41094 40.9313 7.55938 40.9313H46.1859C50.3344 40.9313 53.7453 37.5203 53.7453 33.3719V7.55937C53.6531 3.41094 50.3344 0 46.0938 0ZM49.9656 33.3719C49.9656 35.4922 48.2141 37.2438 46.0938 37.2438H7.55938C5.43906 37.2438 3.6875 35.4922 3.6875 33.3719V7.55937C3.6875 5.43906 5.43906 3.6875 7.55938 3.6875H46.1859C48.3062 3.6875 50.0578 5.43906 50.0578 7.55937V33.3719H49.9656Z" fill="black"/>
<path d="M43.7894 9.21875C38.1659 13.3672 32.5425 17.5156 26.8269 21.7563C21.2034 17.6078 15.58 13.4594 9.86438 9.21875C9.03469 8.66563 7.83625 9.12657 7.37531 9.86407C6.82219 10.7859 7.19094 11.8 8.02063 12.3531C14.0128 16.7781 19.9128 21.2031 25.905 25.6281C26.3659 25.9969 27.2878 25.9969 27.7488 25.6281C33.7409 21.2031 39.6409 16.8703 45.6331 12.4453C46.4628 11.8922 46.8316 10.8781 46.2784 9.95625C45.8175 9.12657 44.5269 8.66563 43.7894 9.21875Z" fill="black"/>
</svg>
