<svg xmlns="http://www.w3.org/2000/svg" width="41" height="40" viewBox="0 0 41 40" fill="none">
    <path d="M40.5254 20C40.5254 31.0457 31.5711 40 20.5254 40C9.4797 40 0.525391 31.0457 0.525391 20C0.525391 8.95431 9.4797 0 20.5254 0C31.5711 0 40.5254 8.95431 40.5254 20Z" fill="white"/>
    <circle cx="20.5254" cy="20" r="19.5" stroke="#C0C0C0"/>
    <mask id="mask0_876_386" style="mask-type:alpha" maskUnits="userSpaceOnUse" x="0" y="0" width="41" height="40">
        <path d="M40.5254 20C40.5254 31.0457 31.5711 40 20.5254 40C9.4797 40 0.525391 31.0457 0.525391 20C0.525391 8.95431 9.4797 0 20.5254 0C31.5711 0 40.5254 8.95431 40.5254 20Z" fill="white"/>
    </mask>
    <g mask="url(#mask0_876_386)">
        <path d="M20.1256 25.6002C24.1021 25.6002 27.3256 22.3767 27.3256 18.4002C27.3256 14.4238 24.1021 11.2002 20.1256 11.2002C16.1492 11.2002 12.9256 14.4238 12.9256 18.4002C12.9256 22.3767 16.1492 25.6002 20.1256 25.6002Z" fill="#C5C5C5"/>
        <path d="M20.1255 28C14.1636 28.0066 9.33214 32.8381 9.3255 38.8C9.3255 39.4628 9.86275 40 10.5255 40H29.7255C30.3883 40 30.9255 39.4628 30.9255 38.8C30.9189 32.8381 26.0875 28.0066 20.1255 28Z" fill="#C5C5C5"/>
    </g>
</svg>