<svg width="20" height="20" viewBox="0 0 20 20" fill="none" xmlns="http://www.w3.org/2000/svg">
<path d="M17.6344 2.36346L16.8467 1.68079C15.939 0.77307 14.4687 0.77307 13.5609 1.68079C13.5384 1.7033 12.1506 3.51123 12.1506 3.51123C11.2954 4.41145 11.2954 5.8293 12.1506 6.72202L13.0208 7.81728C11.9255 10.3004 10.2226 12.0108 7.82204 13.031L6.72678 12.1533C5.83406 11.2906 4.40871 11.2906 3.516 12.1533C3.516 12.1533 1.70806 13.5412 1.68555 13.5637C0.777833 14.4714 0.777833 15.9418 1.64804 16.812L2.39823 17.6747C3.26094 18.5374 4.42372 19.01 5.68402 19.01C11.4154 19.01 19.0073 11.4107 19.0073 5.68676C19.0073 4.43396 18.5346 3.26368 17.6344 2.37096V2.36346ZM5.68402 17.5021C4.82882 17.5021 4.04113 17.1871 3.50099 16.6394L2.75081 15.7767C2.44324 15.4691 2.42823 14.9665 2.7208 14.6439C2.7208 14.6439 4.51374 13.2636 4.53625 13.2411C4.84382 12.9335 5.38395 12.9335 5.69903 13.2411C5.72153 13.2636 7.2294 14.4714 7.2294 14.4714C7.43945 14.6364 7.71702 14.6814 7.96458 14.5839C11.0703 13.3986 13.2984 11.1781 14.5812 7.97482C14.6787 7.72726 14.6412 7.44219 14.4687 7.22464C14.4687 7.22464 13.2609 5.70927 13.2459 5.69427C12.9233 5.37169 12.9233 4.85406 13.2459 4.53148C13.2684 4.50898 14.6487 2.71604 14.6487 2.71604C14.9713 2.42347 15.4739 2.43097 15.819 2.77606L16.6067 3.45872C17.1843 4.03636 17.5069 4.82405 17.5069 5.67926C17.5069 10.9005 10.1776 17.5021 5.68402 17.5021Z" fill="#2540E4" stroke="#2540E4" stroke-width="0.4"/>
</svg>
