<svg xmlns="http://www.w3.org/2000/svg" width="21" height="20" viewBox="0 0 21 20" fill="none">
    <path d="M19.9492 3H17.9492C17.9483 2.20462 17.632 1.44206 17.0696 0.879644C16.5072 0.317225 15.7446 0.000873479 14.9492 0H3.94922C3.15384 0.000873479 2.39128 0.317225 1.82886 0.879644C1.26644 1.44206 0.950092 2.20462 0.949219 3V5C0.950092 5.79538 1.26644 6.55794 1.82886 7.12036C2.39128 7.68278 3.15384 7.99913 3.94922 8H14.9492C15.7446 7.99913 16.5072 7.68278 17.0696 7.12036C17.632 6.55794 17.9483 5.79538 17.9492 5H18.9492V5.9448C18.9481 6.60263 18.7312 7.24193 18.3318 7.76467C17.9325 8.28741 17.3727 8.66474 16.7383 8.8388L10.1592 10.6328C9.52494 10.8071 8.96531 11.1846 8.56613 11.7074C8.16695 12.2302 7.95024 12.8695 7.94922 13.5273V19C7.94922 19.2652 8.05458 19.5196 8.24211 19.7071C8.42965 19.8946 8.684 20 8.94922 20H11.9492C12.2144 20 12.4688 19.8946 12.6563 19.7071C12.8439 19.5196 12.9492 19.2652 12.9492 19V14C12.9492 13.7348 12.8439 13.4804 12.6563 13.2929C12.4688 13.1054 12.2144 13 11.9492 13C11.684 13 11.4296 13.1054 11.2421 13.2929C11.0546 13.4804 10.9492 13.7348 10.9492 14V18H9.94922V13.5273C9.94944 13.308 10.0216 13.0948 10.1548 12.9205C10.2879 12.7462 10.4745 12.6204 10.686 12.5625L17.2646 10.7686C18.3219 10.4784 19.2549 9.8494 19.9204 8.97808C20.586 8.10677 20.9474 7.04122 20.9492 5.9448V4C20.9492 3.73478 20.8439 3.48043 20.6563 3.29289C20.4688 3.10536 20.2144 3 19.9492 3ZM15.9492 5C15.9489 5.26511 15.8434 5.51927 15.6559 5.70673C15.4685 5.89419 15.2143 5.99966 14.9492 6H3.94922C3.68411 5.99966 3.42995 5.89419 3.24249 5.70673C3.05503 5.51927 2.94956 5.26511 2.94922 5V3C2.94956 2.73489 3.05503 2.48073 3.24249 2.29327C3.42995 2.10581 3.68411 2.00034 3.94922 2H14.9492C15.2143 2.00034 15.4685 2.10581 15.6559 2.29327C15.8434 2.48073 15.9489 2.73489 15.9492 3V5Z" fill="black"/>
    <path d="M1.94922 9C1.684 9 1.42965 9.10536 1.24211 9.29289C1.05458 9.48043 0.949219 9.73478 0.949219 10V13C0.949219 13.2652 1.05458 13.5196 1.24211 13.7071C1.42965 13.8946 1.684 14 1.94922 14C2.21444 14 2.46879 13.8946 2.65633 13.7071C2.84386 13.5196 2.94922 13.2652 2.94922 13V10C2.94922 9.73478 2.84386 9.48043 2.65633 9.29289C2.46879 9.10536 2.21444 9 1.94922 9Z" fill="black"/>
    <path d="M4.94922 10C4.684 10 4.42965 10.1054 4.24211 10.2929C4.05458 10.4804 3.94922 10.7348 3.94922 11V15C3.94922 15.2652 4.05458 15.5196 4.24211 15.7071C4.42965 15.8946 4.684 16 4.94922 16C5.21444 16 5.46879 15.8946 5.65633 15.7071C5.84386 15.5196 5.94922 15.2652 5.94922 15V11C5.94922 10.7348 5.84386 10.4804 5.65633 10.2929C5.46879 10.1054 5.21444 10 4.94922 10Z" fill="black"/>
</svg>