<svg width="22" height="22" viewBox="0 0 22 22" fill="none" xmlns="http://www.w3.org/2000/svg">
<path id="Vector" d="M21 11.2119C20.6958 11.5154 20.2971 11.6777 19.8983 11.678C19.4989 11.6782 19.0731 11.5159 18.7683 11.2119C18.4639 10.9081 18.0701 10.7034 17.671 10.7034C17.2719 10.7034 16.8694 10.9081 16.565 11.2119C16.2652 11.5109 15.8561 11.6733 15.4633 11.678C15.058 11.6828 14.6284 11.5203 14.3192 11.2119C14.0147 10.9081 13.6175 10.7034 13.2184 10.7034C12.8193 10.7034 12.4203 10.9081 12.1158 11.2119C11.8142 11.5127 11.3988 11.675 11.0036 11.6779C10.6007 11.6808 10.1775 11.5185 9.87004 11.2119C9.56619 10.9087 9.16657 10.7464 8.76835 10.7458C8.36843 10.7451 7.97178 10.9075 7.66665 11.2119C7.35784 11.5199 6.92729 11.6823 6.52258 11.678C6.12915 11.6737 5.72106 11.5114 5.42089 11.2119C5.11653 10.9082 4.74623 10.7459 4.34746 10.7458M7.86441 2.69492C7.86441 1.75886 7.10555 1 6.16949 1C5.23343 1 4.47458 1.75886 4.47458 2.69492M17.6102 2.69492C17.6102 1.75886 16.8513 1 15.9153 1C14.9792 1 14.2203 1.75886 14.2203 2.69492M5.23729 21C2.89708 21 1 19.1029 1 16.7627V9.81356C1 7.47335 2.89708 5.57627 5.23729 5.57627H16.7627C19.1029 5.57627 21 7.47335 21 9.81356V16.7627C21 19.1029 19.1029 21 16.7627 21H5.23729Z" stroke="black" stroke-width="2" stroke-miterlimit="10" stroke-linecap="round" stroke-linejoin="round"/>
</svg>
