<svg xmlns="http://www.w3.org/2000/svg" width="18" height="18" viewBox="0 0 18 18" fill="none">
    <g clip-path="url(#clip0_532_1243)">
        <path d="M17.6709 16.0839L14.187 12.5986C16.7938 9.115 16.083 4.17775 12.5995 1.57096C9.11587 -1.03583 4.17862 -0.325041 1.57183 3.15854C-1.03496 6.64212 -0.324171 11.5794 3.15941 14.1862C5.95771 16.2802 9.80112 16.2802 12.5995 14.1862L16.0848 17.6715C16.5228 18.1095 17.2329 18.1095 17.6709 17.6715C18.1088 17.2335 18.1088 16.5234 17.6709 16.0854L17.6709 16.0839ZM7.90847 13.5135C4.81243 13.5135 2.30263 11.0036 2.30263 7.90761C2.30263 4.81156 4.81243 2.30176 7.90847 2.30176C11.0045 2.30176 13.5143 4.81156 13.5143 7.90761C13.511 11.0022 11.0031 13.5102 7.90847 13.5135Z" fill="#81878B"/>
    </g>
    <defs>
        <clipPath id="clip0_532_1243">
            <rect width="18" height="18" fill="white"/>
        </clipPath>
    </defs>
</svg>