<svg xmlns="http://www.w3.org/2000/svg" width="16" height="16" viewBox="0 0 16 16" fill="none">
    <g clip-path="url(#clip0_3893_4360)">
        <path d="M8.03239 16L7.79639 15.8953C7.53372 15.78 1.40039 13.01 1.40039 7.994V3.64467C1.40062 3.22611 1.53291 2.81831 1.77842 2.47932C2.02392 2.14033 2.37012 1.88744 2.76772 1.75667L8.06706 0L13.3664 1.75667C13.764 1.88744 14.1102 2.14033 14.3557 2.47932C14.6012 2.81831 14.7335 3.22611 14.7337 3.64467V7.994C14.7337 13.712 8.54172 15.8307 8.27772 15.9187L8.03239 16ZM8.06706 1.398L3.18972 3.01533C3.05702 3.05868 2.94144 3.1429 2.85953 3.25595C2.77762 3.369 2.73358 3.50506 2.73372 3.64467V7.994C2.73372 11.6567 7.02706 14.0327 8.09839 14.568C9.16772 14.138 13.4004 12.1693 13.4004 7.994V3.64467C13.4005 3.50506 13.3565 3.369 13.2746 3.25595C13.1927 3.1429 13.0771 3.05868 12.9444 3.01533L8.06706 1.398Z" fill="#55C94D"/>
        <path d="M7.47306 9.68877H7.45106C7.28232 9.68619 7.11585 9.64941 6.96174 9.58066C6.80762 9.5119 6.66904 9.41261 6.55439 9.28877L5.01706 7.68877L5.97772 6.76744L7.47372 8.32744L10.9277 4.87344L11.8704 5.8161L8.36306 9.32344C8.24624 9.44016 8.10742 9.53255 7.95465 9.59526C7.80189 9.65797 7.63819 9.68975 7.47306 9.68877Z" fill="#55C94D"/>
        <path d="M8.03239 16L7.79639 15.8953C7.53372 15.78 1.40039 13.01 1.40039 7.994V3.64467C1.40062 3.22611 1.53291 2.81831 1.77842 2.47932C2.02392 2.14033 2.37012 1.88744 2.76772 1.75667L8.06706 0L13.3664 1.75667C13.764 1.88744 14.1102 2.14033 14.3557 2.47932C14.6012 2.81831 14.7335 3.22611 14.7337 3.64467V7.994C14.7337 13.712 8.54172 15.8307 8.27772 15.9187L8.03239 16ZM8.06706 1.398L3.18972 3.01533C3.05702 3.05868 2.94144 3.1429 2.85953 3.25595C2.77762 3.369 2.73358 3.50506 2.73372 3.64467V7.994C2.73372 11.6567 7.02706 14.0327 8.09839 14.568C9.16772 14.138 13.4004 12.1693 13.4004 7.994V3.64467C13.4005 3.50506 13.3565 3.369 13.2746 3.25595C13.1927 3.1429 13.0771 3.05868 12.9444 3.01533L8.06706 1.398Z" stroke="#55C94D" stroke-width="0.4"/>
        <path d="M7.47306 9.68877H7.45106C7.28232 9.68619 7.11585 9.64941 6.96174 9.58066C6.80762 9.5119 6.66904 9.41261 6.55439 9.28877L5.01706 7.68877L5.97772 6.76744L7.47372 8.32744L10.9277 4.87344L11.8704 5.8161L8.36306 9.32344C8.24624 9.44016 8.10742 9.53255 7.95465 9.59526C7.80189 9.65797 7.63819 9.68975 7.47306 9.68877Z" stroke="#55C94D" stroke-width="0.4"/>
    </g>
    <defs>
        <clipPath id="clip0_3893_4360">
            <rect width="16" height="16" fill="white"/>
        </clipPath>
    </defs>
</svg>