<svg width="20" height="20" viewBox="0 0 20 20" fill="none" xmlns="http://www.w3.org/2000/svg">
<path d="M18.3377 1.66107C18.0688 1.38891 17.7342 1.1907 17.3664 1.08559C16.9985 0.980485 16.6097 0.972034 16.2376 1.06105L4.23732 3.58862C3.54624 3.68339 2.89534 3.96923 2.35793 4.41395C1.82052 4.85866 1.41794 5.44458 1.19553 6.10573C0.97312 6.76688 0.939715 7.47699 1.09908 8.15609C1.25844 8.8352 1.60423 9.45633 2.09752 9.94953L3.38605 11.2373C3.45579 11.307 3.5111 11.3898 3.54881 11.4809C3.58652 11.572 3.60589 11.6697 3.60581 11.7683V14.1444C3.60746 14.4785 3.68437 14.8079 3.83081 15.1082L3.82481 15.1134L3.84431 15.1329C4.06408 15.5748 4.42302 15.9321 4.86584 16.1499L4.88534 16.1694L4.89059 16.1634C5.19087 16.3099 5.52028 16.3868 5.85437 16.3884H8.23042C8.42922 16.3883 8.61994 16.467 8.76069 16.6074L10.0485 17.8952C10.3939 18.2445 10.805 18.5219 11.2581 18.7115C11.7112 18.9011 12.1974 18.9991 12.6885 19C13.0979 18.9995 13.5044 18.9326 13.8923 18.802C14.5474 18.5869 15.1294 18.193 15.5725 17.6648C16.0157 17.1365 16.3024 16.4949 16.4004 15.8124L18.9317 3.78587C19.0253 3.41059 19.0198 3.01742 18.9157 2.64492C18.8115 2.27241 18.6124 1.93338 18.3377 1.66107ZM4.44808 10.1783L3.1588 8.8905C2.85858 8.59751 2.64816 8.22497 2.55225 7.81659C2.45633 7.40821 2.47889 6.98095 2.61728 6.58494C2.75146 6.17867 2.9995 5.81949 3.3319 5.55011C3.6643 5.28073 4.06708 5.1125 4.49233 5.0654L16.3734 2.56409L5.10435 13.8346V11.7683C5.10548 11.4731 5.04807 11.1805 4.93542 10.9076C4.82277 10.6347 4.65713 10.3868 4.44808 10.1783ZM14.9266 15.5559C14.869 15.9702 14.6971 16.3602 14.4302 16.6822C14.1632 17.0042 13.8118 17.2454 13.4154 17.3787C13.019 17.5121 12.5932 17.5323 12.186 17.4371C11.7787 17.342 11.406 17.1352 11.1097 16.8399L9.81971 15.5499C9.61149 15.3405 9.36381 15.1745 9.09101 15.0615C8.81821 14.9485 8.52571 14.8907 8.23042 14.8914H6.16412L17.4347 3.62462L14.9266 15.5559Z" fill="#2540E4" stroke="#2540E4" stroke-width="0.4"/>
</svg>
