<svg width="23" height="21" viewBox="0 0 23 21" fill="none" xmlns="http://www.w3.org/2000/svg">
<path d="M20.0303 12.4015C19.6041 12.4015 19.241 12.0754 19.2028 11.643C19.162 11.1855 19.5005 10.7817 19.958 10.7414H19.9588C20.0145 10.2856 20.4262 9.96413 20.8858 10.0174C21.342 10.0735 21.6659 10.4885 21.6098 10.9443C21.5146 11.7182 20.8812 12.3295 20.1044 12.3982C20.0794 12.4006 20.0545 12.4015 20.0303 12.4015Z" fill="black" stroke="black" stroke-width="0.3"/>
<path d="M6.52137 13.5835C6.0947 13.5835 5.73165 13.2571 5.69381 12.8242C5.65347 12.3663 5.9924 11.9633 6.44984 11.923L19.9582 10.7411C20.4181 10.6987 20.819 11.0397 20.859 11.4971C20.8993 11.955 20.5604 12.358 20.1029 12.3983L6.59456 13.5802C6.57044 13.5823 6.54549 13.5835 6.52137 13.5835Z" fill="black" stroke="black" stroke-width="0.3"/>
<path d="M20.785 11.6749C20.7509 11.6749 20.7168 11.6728 20.6822 11.6687C20.226 11.6125 19.9021 11.1975 19.9582 10.7417L20.9675 2.54803C21.0241 2.09225 21.442 1.7683 21.8945 1.82444C22.3507 1.88058 22.6746 2.29561 22.6185 2.75139L21.6092 10.9451C21.5576 11.3663 21.1987 11.6749 20.785 11.6749Z" fill="black" stroke="black" stroke-width="0.3"/>
<path d="M4.30616 5.01112C3.87949 5.01112 3.51644 4.68467 3.4786 4.25176C3.43826 3.7939 3.77719 3.39093 4.23463 3.35059L21.7207 1.82064C22.1798 1.77864 22.5815 2.11923 22.6214 2.57667C22.6618 3.03454 22.3229 3.4375 21.8654 3.47784L4.37935 5.00779C4.35482 5.00987 4.33028 5.01112 4.30616 5.01112Z" fill="black" stroke="black" stroke-width="0.3"/>
<path d="M4.0894 3.38579C3.67936 3.38579 3.32214 3.08221 3.26641 2.66427V2.66344C2.8073 2.66344 2.43469 2.29124 2.43469 1.83172C2.43469 1.37219 2.8073 1 3.26641 1C4.09647 1 4.80509 1.62046 4.91529 2.44345C4.97601 2.89881 4.65621 3.31717 4.20085 3.3783C4.163 3.38329 4.12641 3.38579 4.0894 3.38579Z" fill="black" stroke="black" stroke-width="0.3"/>
<path d="M3.26602 2.66393H1.83172C1.37261 2.66393 1 2.29132 1 1.83221C1 1.3731 1.37261 1.00049 1.83172 1.00049H3.26602C3.72513 1.00049 4.09774 1.3731 4.09774 1.83221C4.09774 2.29132 3.72554 2.66393 3.26602 2.66393Z" fill="black" stroke="black" stroke-width="0.3"/>
<path d="M5.25125 12.1001C4.84122 12.1001 4.48358 11.7965 4.42827 11.3781L3.26594 2.66381C3.20522 2.20844 3.52502 1.79009 3.98039 1.72937C4.43284 1.66782 4.85452 1.98845 4.91482 2.44382L6.07673 11.1586C6.13745 11.6139 5.81765 12.0323 5.36229 12.093C5.32486 12.098 5.28826 12.1001 5.25125 12.1001Z" fill="black" stroke="black" stroke-width="0.3"/>
<path d="M8.99158 20.13C7.41381 20.13 6.08057 18.7968 6.08057 17.219C6.08057 15.6412 7.41381 14.308 8.99158 14.308C10.5694 14.308 11.9026 15.6412 11.9026 17.219C11.9026 18.7968 10.5694 20.13 8.99158 20.13ZM8.99158 15.9714C8.32704 15.9714 7.744 16.5545 7.744 17.219C7.744 17.8835 8.32704 18.4666 8.99158 18.4666C9.65613 18.4666 10.2392 17.8835 10.2392 17.219C10.2392 16.5545 9.65571 15.9714 8.99158 15.9714Z" fill="black" stroke="black" stroke-width="0.3"/>
<path d="M16.893 20.13C15.3152 20.13 13.9819 18.7968 13.9819 17.219C13.9819 15.6412 15.3152 14.308 16.893 14.308C18.4707 14.308 19.804 15.6412 19.804 17.219C19.804 18.7968 18.4707 20.13 16.893 20.13ZM16.893 15.9714C16.2284 15.9714 15.6454 16.5545 15.6454 17.219C15.6454 17.8835 16.2284 18.4666 16.893 18.4666C17.5575 18.4666 18.1405 17.8835 18.1405 17.219C18.1405 16.5545 17.5571 15.9714 16.893 15.9714Z" fill="black" stroke="black" stroke-width="0.3"/>
<path d="M6.89729 13.5441C5.65762 13.5441 4.59468 12.6301 4.42792 11.3783C4.3672 10.9229 4.68742 10.5046 5.14278 10.4443C5.59482 10.3823 6.0165 10.7038 6.0768 11.1592C6.13585 11.6012 6.53674 11.9127 6.9734 11.8778C7.44124 11.8378 7.83464 12.1768 7.87456 12.6338C7.9149 13.0912 7.57598 13.4946 7.11895 13.535C7.04451 13.5408 6.97007 13.5441 6.89729 13.5441Z" fill="black" stroke="black" stroke-width="0.3"/>
</svg>
