<svg width="14" height="13" viewBox="0 0 14 13" fill="none" xmlns="http://www.w3.org/2000/svg">
<path d="M10.55 10.5545L12.3856 8.71889L12.3856 8.71889C12.5043 8.60016 12.6654 8.53346 12.8333 8.53346C13.0012 8.53346 13.1623 8.60014 13.2811 8.71885C13.2811 8.71886 13.2811 8.71888 13.2811 8.71889L10.55 10.5545ZM10.55 10.5545V1.58333C10.55 1.41536 10.4833 1.25427 10.3645 1.1355C10.2457 1.01673 10.0846 0.95 9.91666 0.95C9.74869 0.95 9.5876 1.01673 9.46882 1.1355C9.35005 1.25427 9.28333 1.41536 9.28333 1.58333V10.5545L7.44776 8.71889L7.44777 8.71889L7.44715 8.71829C7.3277 8.60292 7.16772 8.53908 7.00166 8.54052C6.8356 8.54197 6.67675 8.60858 6.55933 8.726C6.4419 8.84343 6.3753 9.00227 6.37385 9.16833C6.37241 9.33439 6.43625 9.49437 6.55161 9.61382L6.55161 9.61382L6.55222 9.61444L9.46884 12.5311L10.55 10.5545ZM10.16 12.6688C10.2369 12.6368 10.3068 12.5901 10.3656 12.5311H9.46889C9.52771 12.5901 9.59758 12.6368 9.67451 12.6688C9.75145 12.7007 9.83394 12.7171 9.91724 12.7171C10.0005 12.7171 10.083 12.7007 10.16 12.6688Z" fill="black" stroke="black" stroke-width="0.1"/>
<path d="M7.44848 4.05299L7.44848 4.053C7.56384 4.17245 7.62768 4.33243 7.62624 4.49848C7.62479 4.66454 7.55819 4.82339 7.44076 4.94082C7.32334 5.05824 7.16449 5.12485 6.99843 5.12629C6.83237 5.12773 6.67239 5.0639 6.55294 4.94853L6.55232 4.94793L6.55232 4.94792L4.71676 3.11236V12.0835C4.71676 12.2515 4.65003 12.4125 4.53126 12.5313C4.41249 12.6501 4.2514 12.7168 4.08343 12.7168C3.91546 12.7168 3.75437 12.6501 3.63559 12.5313C3.51682 12.4125 3.45009 12.2515 3.45009 12.0835V3.11236L1.61456 4.9479L1.61453 4.94792L1.57918 4.91257C1.4698 5.0221 1.32139 5.0837 1.16659 5.08381C1.01179 5.08392 0.863295 5.02253 0.753761 4.91315C0.644226 4.80377 0.582629 4.65536 0.58252 4.50056C0.58241 4.34577 0.643798 4.19727 0.753177 4.08773L7.44848 4.05299ZM7.44848 4.05299L7.44787 4.05238L4.53123 1.13575M7.44848 4.05299L7.41251 4.08773L4.49584 1.17107M4.53123 1.13575L4.5312 1.13571L4.49584 1.17107M4.53123 1.13575L3.86001 1.04448C4.00271 0.985498 4.16298 0.985498 4.30568 1.04448C4.37686 1.07359 4.44152 1.11663 4.49584 1.17107M4.53123 1.13575L4.49584 1.17107" fill="black" stroke="black" stroke-width="0.1"/>
</svg>
