<svg xmlns="http://www.w3.org/2000/svg" width="30" height="18" viewBox="0 0 30 18" fill="none">
    <path d="M23.4301 6.20782C22.6844 6.20782 21.9709 6.34728 21.3136 6.60097C20.7986 5.45663 20.3537 4.24642 20.1315 3.12053C19.7747 1.31236 18.1768 0 16.3322 0C15.8647 0 15.4856 0.37904 15.4856 0.846575C15.4856 1.31411 15.8647 1.69315 16.3322 1.69315C16.5336 1.69315 16.7298 1.72126 16.9166 1.77346C17.4846 1.93217 17.9665 2.31629 18.2476 2.83213C18.2248 2.86103 18.2031 2.891 18.1839 2.92345L17.9209 3.36621L16.5903 5.60625H9.4811L9.077 4.58917H9.24474C9.71227 4.58917 10.0913 4.21013 10.0913 3.7426C10.0913 3.27506 9.71227 2.89602 9.24474 2.89602H6.3258C5.85827 2.89602 5.47923 3.27506 5.47923 3.7426C5.47923 4.21013 5.85827 4.58917 6.3258 4.58917H7.25512L7.9939 6.44848C7.46473 6.29214 6.90497 6.20777 6.3258 6.20777C3.07467 6.20782 0.429688 8.85281 0.429688 12.1039C0.429688 15.355 3.07467 17.9999 6.32575 17.9999C9.28938 17.9999 11.749 15.8019 12.1608 12.9505H13.7155C14.0142 12.9505 14.2908 12.7931 14.4433 12.5363L18.8922 5.04655C19.1532 5.85418 19.4798 6.66339 19.832 7.43649C18.4353 8.5157 17.534 10.2064 17.534 12.1039C17.534 15.355 20.179 18 23.4301 18C26.6811 18 29.3261 15.355 29.3261 12.1039C29.3261 8.85287 26.6811 6.20782 23.4301 6.20782ZM6.32575 12.9505H10.443C10.0502 14.8636 8.35335 16.3068 6.32575 16.3068C4.00828 16.3067 2.12284 14.4214 2.12284 12.1039C2.12284 9.78641 4.00828 7.90098 6.32575 7.90098C8.35335 7.90098 10.0502 9.34422 10.443 11.2573H6.32575C5.85821 11.2573 5.47917 11.6363 5.47917 12.1039C5.47917 12.5714 5.85821 12.9505 6.32575 12.9505ZM13.2337 11.2573H12.1608C11.9643 9.8972 11.302 8.68592 10.3412 7.79081C10.3324 7.75683 10.3221 7.72297 10.3088 7.6895L10.1538 7.29946H15.5846L13.2337 11.2573ZM23.4301 16.3067C21.1125 16.3067 19.2272 14.4213 19.2272 12.1038C19.2272 10.8761 19.7564 9.76982 20.5987 9.00068C21.6398 10.9905 22.6568 12.4738 22.7333 12.5847C22.8976 12.8227 23.1619 12.9505 23.4308 12.9505C23.5966 12.9505 23.7642 12.9018 23.911 12.8005C24.2958 12.5349 24.3924 12.0077 24.1268 11.6229C24.1086 11.5964 23.0841 10.1025 22.0582 8.13198C22.4885 7.98292 22.9498 7.90086 23.4301 7.90086C25.7475 7.90086 27.633 9.7863 27.633 12.1038C27.633 14.4212 25.7475 16.3067 23.4301 16.3067Z" fill="black"/>
</svg>