<svg width="20" height="20" viewBox="0 0 20 20" fill="none" xmlns="http://www.w3.org/2000/svg">
<path d="M16.4227 19.6591C12.1545 20.1145 7.85001 20.1145 3.58182 19.6591C2.75298 19.5716 1.97918 19.2026 1.38942 18.6137C0.799671 18.0247 0.429601 17.2514 0.340911 16.4227C-0.114451 12.1545 -0.114451 7.85001 0.340911 3.58182C0.428438 2.75298 0.797422 1.97918 1.38635 1.38942C1.97527 0.799671 2.74855 0.429601 3.57727 0.340911C7.84547 -0.114451 12.15 -0.114451 16.4182 0.340911C17.247 0.428438 18.0208 0.797422 18.6106 1.38635C19.2003 1.97527 19.5704 2.74855 19.6591 3.57727C20.1145 7.84547 20.1145 12.15 19.6591 16.4182C19.5716 17.247 19.2026 18.0208 18.6137 18.6106C18.0247 19.2003 17.2514 19.5704 16.4227 19.6591Z" fill="#4169E1"/>
<path d="M15.7636 13.5727C15.4727 13.6136 14.05 13.5727 13.9761 13.5727C13.6083 13.5774 13.2535 13.437 12.9886 13.1818C12.6886 12.8932 12.4204 12.575 12.1273 12.2727C12.0406 12.181 11.9467 12.0962 11.8466 12.0193C11.6125 11.8386 11.3807 11.8796 11.2704 12.1557C11.1843 12.4541 11.1242 12.7594 11.0909 13.0682C11.0716 13.3477 10.8943 13.5227 10.5807 13.5421C10.3864 13.5523 10.192 13.5557 9.99999 13.5511C9.3001 13.5467 8.61122 13.3765 7.98976 13.0546C7.31734 12.6799 6.73149 12.1676 6.27044 11.5511C5.51249 10.583 4.90681 9.51933 4.3659 8.42273C4.33749 8.36819 3.78294 7.18864 3.76931 7.13296C3.71931 6.9466 3.76931 6.76819 3.92272 6.70682C4.02044 6.66932 5.84772 6.70682 5.8784 6.70682C6.01424 6.70565 6.14694 6.74774 6.25726 6.82701C6.36759 6.90628 6.44981 7.01861 6.49204 7.14773C6.82982 8.01264 7.29229 8.82349 7.86476 9.55455C7.94488 9.65231 8.03865 9.73804 8.14317 9.8091C8.29204 9.91023 8.43294 9.87501 8.49431 9.70342C8.56702 9.46533 8.60978 9.21912 8.62158 8.97046C8.63181 8.47728 8.62158 8.15228 8.59431 7.66023C8.57613 7.34433 8.46476 7.06705 7.99885 6.97842C7.85567 6.95342 7.84317 6.83523 7.93522 6.71705C8.12726 6.4716 8.38976 6.43296 8.68408 6.41819C9.12272 6.39319 9.56135 6.41023 9.99999 6.41819H10.0954C10.2863 6.41749 10.4768 6.43692 10.6636 6.47614C10.7741 6.49848 10.8743 6.5559 10.9495 6.63986C11.0246 6.72382 11.0707 6.82982 11.0807 6.94205C11.1031 7.0665 11.1126 7.19292 11.1091 7.31933C11.0977 7.85796 11.0716 8.39546 11.0659 8.9341C11.0607 9.14737 11.0801 9.36052 11.1239 9.56932C11.1864 9.85569 11.3829 9.92728 11.5784 9.72046C11.8315 9.4531 12.0636 9.16664 12.2727 8.86364C12.6425 8.31141 12.9475 7.71851 13.1818 7.0966C13.3091 6.77728 13.4091 6.70682 13.75 6.70682H15.6886C15.8039 6.7048 15.9188 6.72012 16.0295 6.75228C16.0687 6.76258 16.1054 6.78086 16.1372 6.80597C16.169 6.83108 16.1952 6.86249 16.2143 6.89823C16.2334 6.93397 16.2449 6.97326 16.2481 7.01365C16.2513 7.05404 16.2462 7.09466 16.2329 7.13296C16.1375 7.55796 15.9079 7.92046 15.6648 8.26932C15.2704 8.82842 14.8545 9.37273 14.4511 9.92273C14.4001 9.99568 14.3534 10.0716 14.3114 10.15C14.1591 10.4239 14.1704 10.5773 14.3909 10.8057C14.7432 11.1671 15.1193 11.5068 15.4591 11.8796C15.7086 12.1505 15.9337 12.4429 16.1318 12.7534C16.3807 13.1386 16.2273 13.5068 15.7636 13.5727Z" fill="white"/>
</svg>
